<ttFont>
    <TTGlyph name=".notdef" xMin="68" yMin="0" xMax="612" yMax="1365">
      <contour>
        <pt x="68" y="0" on="1"/>
        <pt x="68" y="1365" on="1"/>
        <pt x="612" y="1365" on="1"/>
        <pt x="612" y="0" on="1"/>
      </contour>
      <contour>
        <pt x="136" y="68" on="1"/>
        <pt x="544" y="68" on="1"/>
        <pt x="544" y="1297" on="1"/>
        <pt x="136" y="1297" on="1"/>
      </contour>
    </TTGlyph>
    <TTGlyph name="A" xMin="10" yMin="0" xMax="1430" yMax="1408">
      <contour>
        <pt x="400" y="1408" on="1"/>
        <pt x="1022" y="1408" on="1"/>
        <pt x="1430" y="0" on="1"/>
        <pt x="948" y="0" on="1"/>
        <pt x="894" y="270" on="1"/>
        <pt x="530" y="270" on="1"/>
        <pt x="472" y="0" on="1"/>
        <pt x="10" y="0" on="1"/>
      </contour>
      <contour>
        <pt x="846" y="522" on="1"/>
        <pt x="712" y="1138" on="1"/>
        <pt x="574" y="522" on="1"/>
      </contour>
    </TTGlyph>
    <TTGlyph name="AE" xMin="-6" yMin="0" xMax="1898" yMax="1408">
      <contour>
        <pt x="476" y="1408" on="1"/>
        <pt x="1652" y="1408" on="1"/>
        <pt x="1708" y="1098" on="1"/>
        <pt x="1143" y="1098" on="1"/>
        <pt x="1192" y="842" on="1"/>
        <pt x="1702" y="842" on="1"/>
        <pt x="1752" y="584" on="1"/>
        <pt x="1254" y="584" on="1"/>
        <pt x="1314" y="308" on="1"/>
        <pt x="1842" y="308" on="1"/>
        <pt x="1898" y="0" on="1"/>
        <pt x="918" y="0" on="1"/>
        <pt x="872" y="270" on="1"/>
        <pt x="526" y="270" on="1"/>
        <pt x="442" y="0" on="1"/>
        <pt x="-6" y="0" on="1"/>
      </contour>
      <contour>
        <pt x="824" y="522" on="1"/>
        <pt x="740" y="1036" on="1"/>
        <pt x="602" y="522" on="1"/>
      </contour>
    </TTGlyph>
    <TTGlyph name="Aacute" xMin="10" yMin="0" xMax="1430" yMax="2201">
      <component glyphName="acute" x="581" y="411" flags="0x4"/>
      <component glyphName="A" x="0" y="0" flags="0x4"/>
    </TTGlyph>
    <TTGlyph name="Abreve" xMin="10" yMin="0" xMax="1430" yMax="1911">
      <component glyphName="breve" x="290" y="411" flags="0x4"/>
      <component glyphName="A" x="0" y="0" flags="0x4"/>
    </TTGlyph>
    <TTGlyph name="Acircumflex" xMin="10" yMin="0" xMax="1430" yMax="2071">
      <component glyphName="circumflex" x="222" y="431" flags="0x4"/>
      <component glyphName="A" x="0" y="0" flags="0x4"/>
    </TTGlyph>
    <TTGlyph name="Adieresis" xMin="10" yMin="0" xMax="1430" yMax="1975">
      <component glyphName="dieresis" x="88" y="439" flags="0x4"/>
      <component glyphName="A" x="0" y="0" flags="0x4"/>
    </TTGlyph>
    <TTGlyph name="Agrave" xMin="10" yMin="0" xMax="1430" yMax="2201">
      <component glyphName="grave" x="0" y="411" flags="0x4"/>
      <component glyphName="A" x="0" y="0" flags="0x4"/>
    </TTGlyph>
    <TTGlyph name="Amacron" xMin="10" yMin="0" xMax="1430" yMax="1803">
      <component glyphName="hyphen" x="341" y="1153" flags="0x4"/>
      <component glyphName="A" x="0" y="0" flags="0x4"/>
    </TTGlyph>
    <TTGlyph name="Aogonek" xMin="10" yMin="-491" xMax="1430" yMax="1408">
      <component glyphName="ogonek" x="595" y="17" flags="0x4"/>
      <component glyphName="A" x="0" y="0" flags="0x4"/>
    </TTGlyph>
    <TTGlyph name="Aring" xMin="10" yMin="0" xMax="1430" yMax="2172">
      <component glyphName="ring" x="290" y="318" flags="0x4"/>
      <component glyphName="A" x="0" y="0" flags="0x4"/>
    </TTGlyph>
    <TTGlyph name="Atilde" xMin="10" yMin="0" xMax="1430" yMax="2021">
      <component glyphName="tilde" x="153" y="409" flags="0x4"/>
      <component glyphName="A" x="0" y="0" flags="0x4"/>
    </TTGlyph>
    <TTGlyph name="B" xMin="134" yMin="-32" xMax="1426" yMax="1408">
      <contour>
        <pt x="830" y="-32" on="1"/>
        <pt x="600" y="-32" on="0"/>
        <pt x="134" y="-2" on="1"/>
        <pt x="134" y="1408" on="1"/>
        <pt x="838" y="1408" on="1"/>
        <pt x="951" y="1408" on="0"/>
        <pt x="1143" y="1360" on="0"/>
        <pt x="1283" y="1272" on="0"/>
        <pt x="1362" y="1145" on="0"/>
        <pt x="1362" y="1066" on="1"/>
        <pt x="1362" y="937" on="0"/>
        <pt x="1250" y="783" on="0"/>
        <pt x="1138" y="766" on="1"/>
        <pt x="1278" y="753" on="0"/>
        <pt x="1426" y="579" on="0"/>
        <pt x="1426" y="428" on="1"/>
        <pt x="1426" y="333" on="0"/>
        <pt x="1336" y="166" on="0"/>
        <pt x="1176" y="41" on="0"/>
        <pt x="958" y="-32" on="0"/>
      </contour>
      <contour>
        <pt x="976" y="456" on="1"/>
        <pt x="976" y="498" on="0"/>
        <pt x="945" y="562" on="0"/>
        <pt x="889" y="604" on="0"/>
        <pt x="811" y="626" on="0"/>
        <pt x="764" y="626" on="1"/>
        <pt x="588" y="626" on="1"/>
        <pt x="588" y="297" on="1"/>
        <pt x="611" y="296" on="0"/>
        <pt x="655" y="296" on="0"/>
        <pt x="675" y="296" on="1"/>
        <pt x="790" y="296" on="1"/>
        <pt x="829" y="296" on="0"/>
        <pt x="897" y="318" on="0"/>
        <pt x="947" y="360" on="0"/>
        <pt x="976" y="419" on="0"/>
      </contour>
      <contour>
        <pt x="936" y="992" on="1"/>
        <pt x="936" y="1136" on="0"/>
        <pt x="756" y="1136" on="1"/>
        <pt x="590" y="1136" on="1"/>
        <pt x="590" y="852" on="1"/>
        <pt x="752" y="852" on="1"/>
        <pt x="791" y="852" on="0"/>
        <pt x="859" y="872" on="0"/>
        <pt x="908" y="908" on="0"/>
        <pt x="936" y="960" on="0"/>
      </contour>
    </TTGlyph>
    <TTGlyph name="C" xMin="63" yMin="-32" xMax="1185" yMax="1439">
      <contour>
        <pt x="875" y="338" on="1"/>
        <pt x="910" y="338" on="0"/>
        <pt x="970" y="345" on="0"/>
        <pt x="1029" y="359" on="0"/>
        <pt x="1091" y="381" on="0"/>
        <pt x="1129" y="396" on="1"/>
        <pt x="1185" y="71" on="1"/>
        <pt x="1007" y="-32" on="0"/>
        <pt x="797" y="-32" on="1"/>
        <pt x="500" y="-32" on="0"/>
        <pt x="288" y="168" on="1"/>
        <pt x="66" y="376" on="0"/>
        <pt x="63" y="705" on="1"/>
        <pt x="63" y="865" on="0"/>
        <pt x="173" y="1135" on="0"/>
        <pt x="367" y="1330" on="0"/>
        <pt x="631" y="1439" on="0"/>
        <pt x="785" y="1439" on="1"/>
        <pt x="1004" y="1439" on="0"/>
        <pt x="1183" y="1337" on="1"/>
        <pt x="1129" y="1019" on="1"/>
        <pt x="982" y="1075" on="0"/>
        <pt x="863" y="1075" on="1"/>
        <pt x="696" y="1075" on="0"/>
        <pt x="523" y="882" on="0"/>
        <pt x="523" y="707" on="1"/>
        <pt x="523" y="620" on="0"/>
        <pt x="570" y="483" on="0"/>
        <pt x="660" y="388" on="0"/>
        <pt x="791" y="338" on="0"/>
      </contour>
    </TTGlyph>
    <TTGlyph name="Cacute" xMin="63" yMin="-32" xMax="1185" yMax="2201">
      <component glyphName="acute" x="367" y="411" flags="0x4"/>
      <component glyphName="C" x="0" y="0" flags="0x4"/>
    </TTGlyph>
    <TTGlyph name="Ccaron" xMin="63" yMin="-32" xMax="1226" yMax="2071">
      <component glyphName="caron" x="296" y="431" flags="0x4"/>
      <component glyphName="C" x="0" y="0" flags="0x4"/>
    </TTGlyph>
    <TTGlyph name="Ccedilla" xMin="63" yMin="-521" xMax="1185" yMax="1439">
      <component glyphName="cedilla" x="512" y="-13" flags="0x4"/>
      <component glyphName="C" x="0" y="0" flags="0x4"/>
    </TTGlyph>
    <TTGlyph name="Ccircumflex" xMin="63" yMin="-32" xMax="1226" yMax="2071">
      <component glyphName="circumflex" x="296" y="431" flags="0x4"/>
      <component glyphName="C" x="0" y="0" flags="0x4"/>
    </TTGlyph>
    <TTGlyph name="Cdotaccent" xMin="63" yMin="-32" xMax="1185" yMax="1975">
      <component glyphName="dotaccent" x="469" y="397" flags="0x4"/>
      <component glyphName="C" x="0" y="0" flags="0x4"/>
    </TTGlyph>
    <TTGlyph name="D" xMin="134" yMin="0" xMax="1500" yMax="1408">
      <contour>
        <pt x="134" y="1408" on="1"/>
        <pt x="746" y="1408" on="1"/>
        <pt x="917" y="1408" on="0"/>
        <pt x="1195" y="1305" on="0"/>
        <pt x="1392" y="1121" on="0"/>
        <pt x="1500" y="866" on="0"/>
        <pt x="1500" y="714" on="1"/>
        <pt x="1500" y="554" on="0"/>
        <pt x="1393" y="291" on="0"/>
        <pt x="1195" y="103" on="0"/>
        <pt x="917" y="0" on="0"/>
        <pt x="746" y="0" on="1"/>
        <pt x="134" y="0" on="1"/>
      </contour>
      <contour>
        <pt x="746" y="368" on="1"/>
        <pt x="823" y="368" on="0"/>
        <pt x="934" y="434" on="0"/>
        <pt x="1006" y="536" on="0"/>
        <pt x="1040" y="660" on="0"/>
        <pt x="1040" y="718" on="1"/>
        <pt x="1040" y="788" on="0"/>
        <pt x="997" y="906" on="0"/>
        <pt x="919" y="992" on="0"/>
        <pt x="811" y="1040" on="0"/>
        <pt x="746" y="1040" on="1"/>
        <pt x="586" y="1040" on="1"/>
        <pt x="586" y="368" on="1"/>
      </contour>
    </TTGlyph>
    <TTGlyph name="Dcaron" xMin="134" yMin="0" xMax="1500" yMax="2071">
      <component glyphName="caron" x="328" y="431" flags="0x4"/>
      <component glyphName="D" x="0" y="0" flags="0x4"/>
    </TTGlyph>
    <TTGlyph name="Dcroat" xMin="78" yMin="0" xMax="1500" yMax="1376">
      <contour>
        <pt x="78" y="766" on="1"/>
        <pt x="134" y="766" on="1"/>
        <pt x="134" y="1376" on="1"/>
        <pt x="746" y="1376" on="1"/>
        <pt x="913" y="1376" on="0"/>
        <pt x="1190" y="1275" on="0"/>
        <pt x="1390" y="1095" on="0"/>
        <pt x="1500" y="846" on="0"/>
        <pt x="1500" y="698" on="1"/>
        <pt x="1500" y="412" on="0"/>
        <pt x="1310" y="216" on="1"/>
        <pt x="1101" y="0" on="0"/>
        <pt x="746" y="0" on="1"/>
        <pt x="134" y="0" on="1"/>
        <pt x="134" y="592" on="1"/>
        <pt x="78" y="592" on="1"/>
      </contour>
      <contour>
        <pt x="746" y="368" on="1"/>
        <pt x="814" y="368" on="0"/>
        <pt x="923" y="420" on="0"/>
        <pt x="999" y="511" on="0"/>
        <pt x="1040" y="633" on="0"/>
        <pt x="1040" y="702" on="1"/>
        <pt x="1040" y="769" on="0"/>
        <pt x="995" y="881" on="0"/>
        <pt x="917" y="962" on="0"/>
        <pt x="809" y="1008" on="0"/>
        <pt x="746" y="1008" on="1"/>
        <pt x="586" y="1008" on="1"/>
        <pt x="586" y="766" on="1"/>
        <pt x="718" y="766" on="1"/>
        <pt x="718" y="592" on="1"/>
        <pt x="586" y="592" on="1"/>
        <pt x="586" y="368" on="1"/>
      </contour>
    </TTGlyph>
    <TTGlyph name="Delta" xMin="51" yMin="0" xMax="1161" yMax="1376">
      <contour>
        <pt x="421" y="1376" on="1"/>
        <pt x="785" y="1376" on="1"/>
        <pt x="1161" y="0" on="1"/>
        <pt x="51" y="0" on="1"/>
      </contour>
      <contour>
        <pt x="799" y="230" on="1"/>
        <pt x="605" y="1060" on="1"/>
        <pt x="417" y="230" on="1"/>
      </contour>
    </TTGlyph>
    <TTGlyph name="E" xMin="134" yMin="0" xMax="1122" yMax="1408">
      <contour>
        <pt x="134" y="1408" on="1"/>
        <pt x="1122" y="1408" on="1"/>
        <pt x="1122" y="1098" on="1"/>
        <pt x="630" y="1098" on="1"/>
        <pt x="630" y="842" on="1"/>
        <pt x="1080" y="842" on="1"/>
        <pt x="1080" y="584" on="1"/>
        <pt x="630" y="584" on="1"/>
        <pt x="630" y="308" on="1"/>
        <pt x="1122" y="308" on="1"/>
        <pt x="1122" y="0" on="1"/>
        <pt x="134" y="0" on="1"/>
      </contour>
    </TTGlyph>
    <TTGlyph name="Eacute" xMin="134" yMin="0" xMax="1310" yMax="2201">
      <component glyphName="acute" x="498" y="411" flags="0x4"/>
      <component glyphName="E" x="0" y="0" flags="0x4"/>
    </TTGlyph>
    <TTGlyph name="Ebreve" xMin="134" yMin="0" xMax="1122" yMax="1911">
      <component glyphName="breve" x="207" y="411" flags="0x4"/>
      <component glyphName="E" x="0" y="0" flags="0x4"/>
    </TTGlyph>
    <TTGlyph name="Ecaron" xMin="134" yMin="0" xMax="1122" yMax="2071">
      <component glyphName="caron" x="139" y="431" flags="0x4"/>
      <component glyphName="E" x="0" y="0" flags="0x4"/>
    </TTGlyph>
    <TTGlyph name="Ecircumflex" xMin="134" yMin="0" xMax="1122" yMax="2071">
      <component glyphName="circumflex" x="139" y="431" flags="0x4"/>
      <component glyphName="E" x="0" y="0" flags="0x4"/>
    </TTGlyph>
    <TTGlyph name="Edieresis" xMin="89" yMin="0" xMax="1167" yMax="1975">
      <component glyphName="dieresis" x="5" y="439" flags="0x4"/>
      <component glyphName="E" x="0" y="0" flags="0x4"/>
    </TTGlyph>
    <TTGlyph name="Edotaccent" xMin="134" yMin="0" xMax="1122" yMax="1975">
      <component glyphName="dotaccent" x="312" y="397" flags="0x4"/>
      <component glyphName="E" x="0" y="0" flags="0x4"/>
    </TTGlyph>
    <TTGlyph name="Egrave" xMin="-52" yMin="0" xMax="1122" yMax="2201">
      <component glyphName="grave" x="-82" y="411" flags="0x4"/>
      <component glyphName="E" x="0" y="0" flags="0x4"/>
    </TTGlyph>
    <TTGlyph name="Emacron" xMin="134" yMin="0" xMax="1122" yMax="1803">
      <component glyphName="hyphen" x="258" y="1153" flags="0x4"/>
      <component glyphName="E" x="0" y="0" flags="0x4"/>
    </TTGlyph>
    <TTGlyph name="Eng" xMin="134" yMin="-508" xMax="1472" yMax="1376">
      <contour>
        <pt x="832" y="-172" on="1"/>
        <pt x="926" y="-202" on="0"/>
        <pt x="974" y="-202" on="1"/>
        <pt x="1108" y="-202" on="0"/>
        <pt x="1108" y="-32" on="1"/>
        <pt x="498" y="734" on="1"/>
        <pt x="498" y="0" on="1"/>
        <pt x="134" y="0" on="1"/>
        <pt x="134" y="1376" on="1"/>
        <pt x="544" y="1376" on="1"/>
        <pt x="1106" y="650" on="1"/>
        <pt x="1106" y="1376" on="1"/>
        <pt x="1472" y="1376" on="1"/>
        <pt x="1472" y="-32" on="1"/>
        <pt x="1472" y="-137" on="0"/>
        <pt x="1420" y="-312" on="0"/>
        <pt x="1321" y="-438" on="0"/>
        <pt x="1178" y="-508" on="0"/>
        <pt x="1088" y="-508" on="1"/>
        <pt x="936" y="-508" on="0"/>
        <pt x="738" y="-426" on="1"/>
      </contour>
    </TTGlyph>
    <TTGlyph name="Eogonek" xMin="134" yMin="-491" xMax="1122" yMax="1408">
      <component glyphName="ogonek" x="266" y="17" flags="0x4"/>
      <component glyphName="E" x="0" y="0" flags="0x4"/>
    </TTGlyph>
    <TTGlyph name="Eth" xMin="3" yMin="0" xMax="1553" yMax="1376">
      <contour>
        <pt x="3" y="618" on="1"/>
        <pt x="3" y="792" on="1"/>
        <pt x="187" y="792" on="1"/>
        <pt x="187" y="1376" on="1"/>
        <pt x="799" y="1376" on="1"/>
        <pt x="966" y="1376" on="0"/>
        <pt x="1244" y="1274" on="0"/>
        <pt x="1443" y="1094" on="0"/>
        <pt x="1553" y="845" on="0"/>
        <pt x="1553" y="698" on="1"/>
        <pt x="1553" y="597" on="0"/>
        <pt x="1504" y="416" on="0"/>
        <pt x="1411" y="261" on="0"/>
        <pt x="1277" y="136" on="0"/>
        <pt x="1110" y="48" on="0"/>
        <pt x="911" y="0" on="0"/>
        <pt x="799" y="0" on="1"/>
        <pt x="187" y="0" on="1"/>
        <pt x="187" y="618" on="1"/>
      </contour>
      <contour>
        <pt x="799" y="368" on="1"/>
        <pt x="867" y="368" on="0"/>
        <pt x="976" y="420" on="0"/>
        <pt x="1052" y="511" on="0"/>
        <pt x="1093" y="633" on="0"/>
        <pt x="1093" y="702" on="1"/>
        <pt x="1093" y="769" on="0"/>
        <pt x="1048" y="882" on="0"/>
        <pt x="970" y="963" on="0"/>
        <pt x="862" y="1008" on="0"/>
        <pt x="799" y="1008" on="1"/>
        <pt x="639" y="1008" on="1"/>
        <pt x="639" y="792" on="1"/>
        <pt x="801" y="792" on="1"/>
        <pt x="801" y="618" on="1"/>
        <pt x="639" y="618" on="1"/>
        <pt x="639" y="368" on="1"/>
      </contour>
    </TTGlyph>
    <TTGlyph name="Euro" xMin="54" yMin="-32" xMax="1286" yMax="1414">
      <contour>
        <pt x="978" y="338" on="1"/>
        <pt x="1013" y="338" on="0"/>
        <pt x="1073" y="345" on="0"/>
        <pt x="1132" y="359" on="0"/>
        <pt x="1194" y="381" on="0"/>
        <pt x="1232" y="396" on="1"/>
        <pt x="1284" y="74" on="1"/>
        <pt x="1100" y="-32" on="0"/>
        <pt x="900" y="-32" on="1"/>
        <pt x="768" y="-32" on="0"/>
        <pt x="538" y="46" on="0"/>
        <pt x="353" y="185" on="0"/>
        <pt x="223" y="378" on="0"/>
        <pt x="192" y="492" on="1"/>
        <pt x="54" y="492" on="1"/>
        <pt x="54" y="614" on="1"/>
        <pt x="170" y="614" on="1"/>
        <pt x="168" y="634" on="0"/>
        <pt x="166" y="674" on="0"/>
        <pt x="166" y="694" on="1"/>
        <pt x="166" y="730" on="0"/>
        <pt x="169" y="766" on="1"/>
        <pt x="54" y="766" on="1"/>
        <pt x="54" y="892" on="1"/>
        <pt x="191" y="892" on="1"/>
        <pt x="221" y="1007" on="0"/>
        <pt x="352" y="1199" on="0"/>
        <pt x="536" y="1337" on="0"/>
        <pt x="762" y="1414" on="0"/>
        <pt x="888" y="1414" on="1"/>
        <pt x="1097" y="1414" on="0"/>
        <pt x="1286" y="1306" on="1"/>
        <pt x="1232" y="988" on="1"/>
        <pt x="1081" y="1044" on="0"/>
        <pt x="966" y="1044" on="1"/>
        <pt x="753" y="1044" on="0"/>
        <pt x="669" y="892" on="1"/>
        <pt x="966" y="892" on="1"/>
        <pt x="966" y="766" on="1"/>
        <pt x="630" y="766" on="1"/>
        <pt x="628" y="749" on="0"/>
        <pt x="626" y="714" on="0"/>
        <pt x="626" y="696" on="1"/>
        <pt x="626" y="651" on="0"/>
        <pt x="632" y="614" on="1"/>
        <pt x="966" y="614" on="1"/>
        <pt x="966" y="492" on="1"/>
        <pt x="675" y="492" on="1"/>
        <pt x="763" y="338" on="0"/>
      </contour>
    </TTGlyph>
    <TTGlyph name="F" xMin="134" yMin="0" xMax="1104" yMax="1408">
      <contour>
        <pt x="134" y="1408" on="1"/>
        <pt x="1104" y="1408" on="1"/>
        <pt x="1104" y="1098" on="1"/>
        <pt x="574" y="1098" on="1"/>
        <pt x="574" y="814" on="1"/>
        <pt x="1064" y="814" on="1"/>
        <pt x="1064" y="554" on="1"/>
        <pt x="574" y="554" on="1"/>
        <pt x="574" y="0" on="1"/>
        <pt x="134" y="0" on="1"/>
      </contour>
    </TTGlyph>
    <TTGlyph name="G" xMin="61" yMin="-32" xMax="1261" yMax="1440">
      <contour>
        <pt x="1105" y="1020" on="1"/>
        <pt x="927" y="1078" on="0"/>
        <pt x="825" y="1078" on="1"/>
        <pt x="750" y="1078" on="0"/>
        <pt x="635" y="1016" on="0"/>
        <pt x="557" y="914" on="0"/>
        <pt x="517" y="781" on="0"/>
        <pt x="517" y="711" on="1"/>
        <pt x="517" y="633" on="0"/>
        <pt x="562" y="496" on="0"/>
        <pt x="643" y="395" on="0"/>
        <pt x="757" y="336" on="0"/>
        <pt x="825" y="336" on="1"/>
        <pt x="862" y="336" on="0"/>
        <pt x="907" y="342" on="1"/>
        <pt x="907" y="674" on="1"/>
        <pt x="1261" y="714" on="1"/>
        <pt x="1261" y="74" on="1"/>
        <pt x="1022" y="-32" on="0"/>
        <pt x="769" y="-32" on="1"/>
        <pt x="475" y="-32" on="0"/>
        <pt x="268" y="186" on="1"/>
        <pt x="61" y="405" on="0"/>
        <pt x="61" y="716" on="1"/>
        <pt x="61" y="1019" on="0"/>
        <pt x="272" y="1230" on="1"/>
        <pt x="480" y="1440" on="0"/>
        <pt x="767" y="1440" on="1"/>
        <pt x="1029" y="1440" on="0"/>
        <pt x="1241" y="1338" on="1"/>
      </contour>
    </TTGlyph>
    <TTGlyph name="Gbreve" xMin="61" yMin="-32" xMax="1261" yMax="1912">
      <component glyphName="breve" x="346" y="412" flags="0x4"/>
      <component glyphName="G" x="0" y="0" flags="0x4"/>
    </TTGlyph>
    <TTGlyph name="Gcircumflex" xMin="61" yMin="-32" xMax="1261" yMax="2072">
      <component glyphName="circumflex" x="278" y="432" flags="0x4"/>
      <component glyphName="G" x="0" y="0" flags="0x4"/>
    </TTGlyph>
    <TTGlyph name="Gcommaaccent" xMin="61" yMin="-880" xMax="1261" yMax="1440">
      <component glyphName="comma" x="465" y="-534" flags="0x4"/>
      <component glyphName="G" x="0" y="0" flags="0x4"/>
    </TTGlyph>
    <TTGlyph name="Gdotaccent" xMin="61" yMin="-32" xMax="1261" yMax="1976">
      <component glyphName="dotaccent" x="451" y="398" flags="0x4"/>
      <component glyphName="G" x="0" y="0" flags="0x4"/>
    </TTGlyph>
    <TTGlyph name="H" xMin="134" yMin="0" xMax="1492" yMax="1408">
      <contour>
        <pt x="134" y="1408" on="1"/>
        <pt x="594" y="1408" on="1"/>
        <pt x="594" y="848" on="1"/>
        <pt x="1030" y="848" on="1"/>
        <pt x="1030" y="1408" on="1"/>
        <pt x="1492" y="1408" on="1"/>
        <pt x="1492" y="0" on="1"/>
        <pt x="1030" y="0" on="1"/>
        <pt x="1030" y="552" on="1"/>
        <pt x="594" y="552" on="1"/>
        <pt x="594" y="0" on="1"/>
        <pt x="134" y="0" on="1"/>
      </contour>
    </TTGlyph>
    <TTGlyph name="Hbar" xMin="86" yMin="0" xMax="1562" yMax="1376">
      <contour>
        <pt x="86" y="1152" on="1"/>
        <pt x="144" y="1152" on="1"/>
        <pt x="144" y="1376" on="1"/>
        <pt x="604" y="1376" on="1"/>
        <pt x="604" y="1152" on="1"/>
        <pt x="1040" y="1152" on="1"/>
        <pt x="1040" y="1376" on="1"/>
        <pt x="1502" y="1376" on="1"/>
        <pt x="1502" y="1152" on="1"/>
        <pt x="1562" y="1152" on="1"/>
        <pt x="1562" y="978" on="1"/>
        <pt x="1502" y="978" on="1"/>
        <pt x="1502" y="0" on="1"/>
        <pt x="1040" y="0" on="1"/>
        <pt x="1040" y="552" on="1"/>
        <pt x="604" y="552" on="1"/>
        <pt x="604" y="0" on="1"/>
        <pt x="144" y="0" on="1"/>
        <pt x="144" y="978" on="1"/>
        <pt x="86" y="978" on="1"/>
      </contour>
      <contour>
        <pt x="1040" y="848" on="1"/>
        <pt x="1040" y="978" on="1"/>
        <pt x="604" y="978" on="1"/>
        <pt x="604" y="848" on="1"/>
      </contour>
    </TTGlyph>
    <TTGlyph name="Hcircumflex" xMin="134" yMin="0" xMax="1492" yMax="2071">
      <component glyphName="circumflex" x="324" y="431" flags="0x4"/>
      <component glyphName="H" x="0" y="0" flags="0x4"/>
    </TTGlyph>
    <TTGlyph name="I" xMin="134" yMin="0" xMax="606" yMax="1408">
      <contour>
        <pt x="134" y="1408" on="1"/>
        <pt x="606" y="1408" on="1"/>
        <pt x="606" y="0" on="1"/>
        <pt x="134" y="0" on="1"/>
      </contour>
    </TTGlyph>
    <TTGlyph name="IJ" xMin="134" yMin="-92" xMax="1638" yMax="1408">
      <component glyphName="I" x="0" y="0" flags="0x4"/>
      <component glyphName="J" x="828" y="0" flags="0x4"/>
    </TTGlyph>
    <TTGlyph name="Iacute" xMin="134" yMin="0" xMax="1052" yMax="2201">
      <component glyphName="acute" x="240" y="411" flags="0x4"/>
      <component glyphName="I" x="0" y="0" flags="0x4"/>
    </TTGlyph>
    <TTGlyph name="Ibreve" xMin="21" yMin="0" xMax="723" yMax="1911">
      <component glyphName="breve" x="-49" y="411" flags="0x4"/>
      <component glyphName="I" x="0" y="0" flags="0x4"/>
    </TTGlyph>
    <TTGlyph name="Icircumflex" xMin="-69" yMin="0" xMax="813" yMax="2071">
      <component glyphName="circumflex" x="-117" y="431" flags="0x4"/>
      <component glyphName="I" x="0" y="0" flags="0x4"/>
    </TTGlyph>
    <TTGlyph name="Idieresis" xMin="-167" yMin="0" xMax="911" yMax="1975">
      <component glyphName="dieresis" x="-251" y="439" flags="0x4"/>
      <component glyphName="I" x="0" y="0" flags="0x4"/>
    </TTGlyph>
    <TTGlyph name="Idotaccent" xMin="134" yMin="0" xMax="606" yMax="1975">
      <component glyphName="dotaccent" x="54" y="397" flags="0x4"/>
      <component glyphName="I" x="0" y="0" flags="0x4"/>
    </TTGlyph>
    <TTGlyph name="Igrave" xMin="-310" yMin="0" xMax="606" yMax="2201">
      <component glyphName="grave" x="-340" y="411" flags="0x4"/>
      <component glyphName="I" x="0" y="0" flags="0x4"/>
    </TTGlyph>
    <TTGlyph name="Imacron" xMin="95" yMin="0" xMax="645" yMax="1803">
      <component glyphName="hyphen" x="0" y="1153" flags="0x204"/>
      <component glyphName="I" x="0" y="0" flags="0x4"/>
    </TTGlyph>
    <TTGlyph name="Iogonek" xMin="40" yMin="-491" xMax="606" yMax="1408">
      <component glyphName="ogonek" x="-46" y="17" flags="0x4"/>
      <component glyphName="I" x="0" y="0" flags="0x4"/>
    </TTGlyph>
    <TTGlyph name="Itilde" xMin="-124" yMin="0" xMax="868" yMax="2021">
      <component glyphName="tilde" x="-186" y="409" flags="0x4"/>
      <component glyphName="I" x="0" y="0" flags="0x4"/>
    </TTGlyph>
    <TTGlyph name="J" xMin="-2" yMin="-92" xMax="810" yMax="1408">
      <contour>
        <pt x="234" y="242" on="1"/>
        <pt x="370" y="242" on="0"/>
        <pt x="370" y="412" on="1"/>
        <pt x="370" y="1408" on="1"/>
        <pt x="810" y="1408" on="1"/>
        <pt x="810" y="412" on="1"/>
        <pt x="810" y="294" on="0"/>
        <pt x="746" y="107" on="0"/>
        <pt x="627" y="-23" on="0"/>
        <pt x="456" y="-92" on="0"/>
        <pt x="350" y="-92" on="1"/>
        <pt x="160" y="-92" on="0"/>
        <pt x="-2" y="16" on="1"/>
        <pt x="94" y="270" on="1"/>
        <pt x="175" y="242" on="0"/>
      </contour>
    </TTGlyph>
    <TTGlyph name="Jcircumflex" xMin="-2" yMin="-92" xMax="1031" yMax="2071">
      <component glyphName="circumflex" x="101" y="431" flags="0x4"/>
      <component glyphName="J" x="0" y="0" flags="0x4"/>
    </TTGlyph>
    <TTGlyph name="K" xMin="134" yMin="0" xMax="1548" yMax="1408">
      <contour>
        <pt x="134" y="1408" on="1"/>
        <pt x="608" y="1408" on="1"/>
        <pt x="608" y="834" on="1"/>
        <pt x="756" y="834" on="1"/>
        <pt x="1028" y="1408" on="1"/>
        <pt x="1502" y="1408" on="1"/>
        <pt x="1502" y="1316" on="1"/>
        <pt x="1178" y="710" on="1"/>
        <pt x="1548" y="92" on="1"/>
        <pt x="1548" y="0" on="1"/>
        <pt x="1050" y="0" on="1"/>
        <pt x="748" y="560" on="1"/>
        <pt x="608" y="560" on="1"/>
        <pt x="608" y="0" on="1"/>
        <pt x="134" y="0" on="1"/>
      </contour>
    </TTGlyph>
    <TTGlyph name="Kcommaaccent" xMin="134" yMin="-848" xMax="1548" yMax="1408">
      <component glyphName="comma" x="537" y="-502" flags="0x4"/>
      <component glyphName="K" x="0" y="0" flags="0x4"/>
    </TTGlyph>
    <TTGlyph name="L" xMin="134" yMin="0" xMax="1064" yMax="1408">
      <contour>
        <pt x="134" y="1408" on="1"/>
        <pt x="576" y="1408" on="1"/>
        <pt x="576" y="302" on="1"/>
        <pt x="1064" y="302" on="1"/>
        <pt x="1064" y="0" on="1"/>
        <pt x="134" y="0" on="1"/>
      </contour>
    </TTGlyph>
    <TTGlyph name="Lacute" xMin="134" yMin="0" xMax="1064" yMax="2201">
      <component glyphName="acute" x="141" y="411" flags="0x4"/>
      <component glyphName="L" x="0" y="0" flags="0x4"/>
    </TTGlyph>
    <TTGlyph name="Lcaron" xMin="134" yMin="0" xMax="1667" yMax="1439">
      <component glyphName="comma" x="1153" y="1057" flags="0x4"/>
      <component glyphName="L" x="0" y="0" flags="0x4"/>
    </TTGlyph>
    <TTGlyph name="Lcommaaccent" xMin="134" yMin="-848" xMax="1064" yMax="1408">
      <component glyphName="comma" x="295" y="-502" flags="0x4"/>
      <component glyphName="L" x="0" y="0" flags="0x4"/>
    </TTGlyph>
    <TTGlyph name="Ldot" xMin="134" yMin="0" xMax="1064" yMax="1408">
      <component glyphName="periodcentered" x="517" y="-100" flags="0x4"/>
      <component glyphName="L" x="0" y="0" flags="0x4"/>
    </TTGlyph>
    <TTGlyph name="Lslash" xMin="6" yMin="0" xMax="1120" yMax="1408">
      <contour>
        <pt x="6" y="788" on="1"/>
        <pt x="190" y="835" on="1"/>
        <pt x="190" y="1408" on="1"/>
        <pt x="630" y="1408" on="1"/>
        <pt x="630" y="947" on="1"/>
        <pt x="936" y="1026" on="1"/>
        <pt x="936" y="852" on="1"/>
        <pt x="630" y="773" on="1"/>
        <pt x="630" y="302" on="1"/>
        <pt x="1120" y="302" on="1"/>
        <pt x="1120" y="0" on="1"/>
        <pt x="190" y="0" on="1"/>
        <pt x="190" y="661" on="1"/>
        <pt x="6" y="614" on="1"/>
      </contour>
    </TTGlyph>
    <TTGlyph name="M" xMin="134" yMin="0" xMax="1682" yMax="1408">
      <contour>
        <pt x="134" y="1408" on="1"/>
        <pt x="560" y="1408" on="1"/>
        <pt x="912" y="724" on="1"/>
        <pt x="1256" y="1408" on="1"/>
        <pt x="1682" y="1408" on="1"/>
        <pt x="1682" y="0" on="1"/>
        <pt x="1256" y="0" on="1"/>
        <pt x="1256" y="752" on="1"/>
        <pt x="996" y="260" on="1"/>
        <pt x="822" y="260" on="1"/>
        <pt x="560" y="752" on="1"/>
        <pt x="560" y="0" on="1"/>
        <pt x="134" y="0" on="1"/>
      </contour>
    </TTGlyph>
    <TTGlyph name="N" xMin="134" yMin="0" xMax="1472" yMax="1408">
      <contour>
        <pt x="134" y="1408" on="1"/>
        <pt x="544" y="1408" on="1"/>
        <pt x="1106" y="650" on="1"/>
        <pt x="1106" y="1408" on="1"/>
        <pt x="1472" y="1408" on="1"/>
        <pt x="1472" y="0" on="1"/>
        <pt x="1062" y="0" on="1"/>
        <pt x="498" y="734" on="1"/>
        <pt x="498" y="0" on="1"/>
        <pt x="134" y="0" on="1"/>
      </contour>
    </TTGlyph>
    <TTGlyph name="Nacute" xMin="134" yMin="0" xMax="1472" yMax="2201">
      <component glyphName="acute" x="437" y="411" flags="0x4"/>
      <component glyphName="N" x="0" y="0" flags="0x4"/>
    </TTGlyph>
    <TTGlyph name="Ncaron" xMin="134" yMin="0" xMax="1472" yMax="2071">
      <component glyphName="caron" x="314" y="431" flags="0x4"/>
      <component glyphName="N" x="0" y="0" flags="0x4"/>
    </TTGlyph>
    <TTGlyph name="Ncommaaccent" xMin="134" yMin="-848" xMax="1472" yMax="1408">
      <component glyphName="comma" x="499" y="-502" flags="0x4"/>
      <component glyphName="N" x="0" y="0" flags="0x4"/>
    </TTGlyph>
    <TTGlyph name="Ntilde" xMin="134" yMin="0" xMax="1472" yMax="2021">
      <component glyphName="tilde" x="245" y="409" flags="0x4"/>
      <component glyphName="N" x="0" y="0" flags="0x4"/>
    </TTGlyph>
    <TTGlyph name="O" xMin="64" yMin="-32" xMax="1570" yMax="1439">
      <contour>
        <pt x="64" y="702" on="1"/>
        <pt x="64" y="1007" on="0"/>
        <pt x="258" y="1216" on="1"/>
        <pt x="465" y="1439" on="0"/>
        <pt x="818" y="1439" on="1"/>
        <pt x="990" y="1439" on="0"/>
        <pt x="1268" y="1328" on="0"/>
        <pt x="1464" y="1132" on="0"/>
        <pt x="1570" y="861" on="0"/>
        <pt x="1570" y="702" on="1"/>
        <pt x="1570" y="606" on="0"/>
        <pt x="1526" y="422" on="0"/>
        <pt x="1439" y="259" on="0"/>
        <pt x="1311" y="122" on="0"/>
        <pt x="1144" y="23" on="0"/>
        <pt x="939" y="-32" on="0"/>
        <pt x="818" y="-32" on="1"/>
        <pt x="694" y="-32" on="0"/>
        <pt x="487" y="24" on="0"/>
        <pt x="319" y="124" on="0"/>
        <pt x="192" y="262" on="0"/>
        <pt x="107" y="425" on="0"/>
        <pt x="64" y="607" on="0"/>
      </contour>
      <contour>
        <pt x="818" y="340" on="1"/>
        <pt x="897" y="340" on="0"/>
        <pt x="1008" y="407" on="0"/>
        <pt x="1079" y="512" on="0"/>
        <pt x="1112" y="642" on="0"/>
        <pt x="1112" y="704" on="1"/>
        <pt x="1112" y="785" on="0"/>
        <pt x="1071" y="920" on="0"/>
        <pt x="994" y="1019" on="0"/>
        <pt x="885" y="1077" on="0"/>
        <pt x="818" y="1080" on="1"/>
        <pt x="738" y="1078" on="0"/>
        <pt x="626" y="1010" on="0"/>
        <pt x="555" y="903" on="0"/>
        <pt x="522" y="770" on="0"/>
        <pt x="522" y="704" on="1"/>
        <pt x="522" y="626" on="0"/>
        <pt x="563" y="493" on="0"/>
        <pt x="640" y="396" on="0"/>
        <pt x="750" y="340" on="0"/>
      </contour>
    </TTGlyph>
    <TTGlyph name="OE" xMin="64" yMin="-32" xMax="2000" yMax="1414">
      <contour>
        <pt x="712" y="1414" on="1"/>
        <pt x="756" y="1414" on="0"/>
        <pt x="834" y="1401" on="0"/>
        <pt x="908" y="1376" on="0"/>
        <pt x="981" y="1338" on="0"/>
        <pt x="1020" y="1314" on="1"/>
        <pt x="1020" y="1376" on="1"/>
        <pt x="2000" y="1376" on="1"/>
        <pt x="2000" y="1066" on="1"/>
        <pt x="1508" y="1066" on="1"/>
        <pt x="1508" y="842" on="1"/>
        <pt x="1958" y="842" on="1"/>
        <pt x="1958" y="584" on="1"/>
        <pt x="1508" y="584" on="1"/>
        <pt x="1508" y="308" on="1"/>
        <pt x="2000" y="308" on="1"/>
        <pt x="2000" y="0" on="1"/>
        <pt x="1014" y="0" on="1"/>
        <pt x="1014" y="60" on="1"/>
        <pt x="838" y="-32" on="0"/>
        <pt x="696" y="-32" on="1"/>
        <pt x="405" y="-32" on="0"/>
        <pt x="226" y="201" on="1"/>
        <pt x="64" y="412" on="0"/>
        <pt x="64" y="692" on="1"/>
        <pt x="64" y="776" on="0"/>
        <pt x="105" y="949" on="0"/>
        <pt x="183" y="1110" on="0"/>
        <pt x="296" y="1250" on="0"/>
        <pt x="440" y="1354" on="0"/>
        <pt x="613" y="1414" on="0"/>
      </contour>
      <contour>
        <pt x="748" y="338" on="1"/>
        <pt x="898" y="338" on="0"/>
        <pt x="1014" y="368" on="1"/>
        <pt x="1014" y="1018" on="1"/>
        <pt x="869" y="1050" on="0"/>
        <pt x="748" y="1050" on="1"/>
        <pt x="698" y="1050" on="0"/>
        <pt x="615" y="998" on="0"/>
        <pt x="555" y="905" on="0"/>
        <pt x="522" y="773" on="0"/>
        <pt x="522" y="694" on="1"/>
        <pt x="522" y="622" on="0"/>
        <pt x="549" y="493" on="0"/>
        <pt x="605" y="396" on="0"/>
        <pt x="690" y="338" on="0"/>
      </contour>
    </TTGlyph>
    <TTGlyph name="Oacute" xMin="64" yMin="-32" xMax="1570" yMax="2201">
      <component glyphName="acute" x="688" y="411" flags="0x4"/>
      <component glyphName="O" x="0" y="0" flags="0x4"/>
    </TTGlyph>
    <TTGlyph name="Obreve" xMin="64" yMin="-32" xMax="1570" yMax="1911">
      <component glyphName="breve" x="397" y="411" flags="0x4"/>
      <component glyphName="O" x="0" y="0" flags="0x4"/>
    </TTGlyph>
    <TTGlyph name="Ocircumflex" xMin="64" yMin="-32" xMax="1570" yMax="2071">
      <component glyphName="circumflex" x="329" y="431" flags="0x4"/>
      <component glyphName="O" x="0" y="0" flags="0x4"/>
    </TTGlyph>
    <TTGlyph name="Odieresis" xMin="64" yMin="-32" xMax="1570" yMax="1975">
      <component glyphName="dieresis" x="195" y="439" flags="0x4"/>
      <component glyphName="O" x="0" y="0" flags="0x4"/>
    </TTGlyph>
    <TTGlyph name="Ograve" xMin="64" yMin="-32" xMax="1570" yMax="2201">
      <component glyphName="grave" x="106" y="411" flags="0x4"/>
      <component glyphName="O" x="0" y="0" flags="0x4"/>
    </TTGlyph>
    <TTGlyph name="Ohungarumlaut" xMin="64" yMin="-32" xMax="1570" yMax="2355">
      <component glyphName="hungarumlaut" x="230" y="345" flags="0x4"/>
      <component glyphName="O" x="0" y="0" flags="0x4"/>
    </TTGlyph>
    <TTGlyph name="Omacron" xMin="64" yMin="-32" xMax="1570" yMax="1803">
      <component glyphName="hyphen" x="448" y="1153" flags="0x4"/>
      <component glyphName="O" x="0" y="0" flags="0x4"/>
    </TTGlyph>
    <TTGlyph name="Oslash" xMin="65" yMin="-340" xMax="1571" yMax="1677">
      <contour>
        <pt x="819" y="1439" on="1"/>
        <pt x="851" y="1439" on="0"/>
        <pt x="914" y="1435" on="0"/>
        <pt x="944" y="1431" on="1"/>
        <pt x="1007" y="1677" on="1"/>
        <pt x="1147" y="1677" on="1"/>
        <pt x="1076" y="1402" on="1"/>
        <pt x="1187" y="1367" on="0"/>
        <pt x="1369" y="1238" on="0"/>
        <pt x="1500" y="1058" on="0"/>
        <pt x="1571" y="833" on="0"/>
        <pt x="1571" y="702" on="1"/>
        <pt x="1571" y="605" on="0"/>
        <pt x="1527" y="421" on="0"/>
        <pt x="1440" y="258" on="0"/>
        <pt x="1312" y="122" on="0"/>
        <pt x="1145" y="23" on="0"/>
        <pt x="940" y="-32" on="0"/>
        <pt x="819" y="-32" on="1"/>
        <pt x="761" y="-32" on="0"/>
        <pt x="709" y="-26" on="1"/>
        <pt x="628" y="-340" on="1"/>
        <pt x="492" y="-340" on="1"/>
        <pt x="579" y="0" on="1"/>
        <pt x="463" y="33" on="0"/>
        <pt x="274" y="162" on="0"/>
        <pt x="139" y="344" on="0"/>
        <pt x="65" y="571" on="0"/>
        <pt x="65" y="702" on="1"/>
        <pt x="65" y="1007" on="0"/>
        <pt x="259" y="1216" on="1"/>
        <pt x="467" y="1439" on="0"/>
      </contour>
      <contour>
        <pt x="853" y="1076" on="1"/>
        <pt x="852" y="1076" on="0"/>
        <pt x="835" y="1078" on="0"/>
        <pt x="819" y="1080" on="1"/>
        <pt x="745" y="1079" on="0"/>
        <pt x="634" y="1016" on="0"/>
        <pt x="560" y="912" on="0"/>
        <pt x="523" y="777" on="0"/>
        <pt x="523" y="704" on="1"/>
        <pt x="523" y="592" on="0"/>
        <pt x="603" y="424" on="0"/>
        <pt x="675" y="379" on="1"/>
      </contour>
      <contour>
        <pt x="819" y="340" on="1"/>
        <pt x="898" y="340" on="0"/>
        <pt x="1009" y="407" on="0"/>
        <pt x="1080" y="512" on="0"/>
        <pt x="1113" y="641" on="0"/>
        <pt x="1113" y="704" on="1"/>
        <pt x="1113" y="813" on="0"/>
        <pt x="1042" y="976" on="0"/>
        <pt x="979" y="1024" on="1"/>
        <pt x="803" y="340" on="1"/>
      </contour>
    </TTGlyph>
    <TTGlyph name="Otilde" xMin="64" yMin="-32" xMax="1570" yMax="2021">
      <component glyphName="tilde" x="260" y="409" flags="0x4"/>
      <component glyphName="O" x="0" y="0" flags="0x4"/>
    </TTGlyph>
    <TTGlyph name="P" xMin="134" yMin="0" xMax="1302" yMax="1408">
      <contour>
        <pt x="134" y="1408" on="1"/>
        <pt x="642" y="1408" on="1"/>
        <pt x="800" y="1408" on="0"/>
        <pt x="1046" y="1346" on="0"/>
        <pt x="1214" y="1226" on="0"/>
        <pt x="1302" y="1053" on="0"/>
        <pt x="1302" y="942" on="1"/>
        <pt x="1302" y="834" on="0"/>
        <pt x="1202" y="664" on="0"/>
        <pt x="1028" y="545" on="0"/>
        <pt x="795" y="482" on="0"/>
        <pt x="662" y="482" on="1"/>
        <pt x="576" y="482" on="1"/>
        <pt x="576" y="0" on="1"/>
        <pt x="134" y="0" on="1"/>
      </contour>
      <contour>
        <pt x="664" y="766" on="1"/>
        <pt x="770" y="766" on="0"/>
        <pt x="890" y="854" on="0"/>
        <pt x="890" y="942" on="1"/>
        <pt x="890" y="985" on="0"/>
        <pt x="855" y="1049" on="0"/>
        <pt x="794" y="1092" on="0"/>
        <pt x="712" y="1114" on="0"/>
        <pt x="664" y="1114" on="1"/>
        <pt x="576" y="1114" on="1"/>
        <pt x="576" y="770" on="1"/>
        <pt x="590" y="768" on="0"/>
        <pt x="634" y="766" on="0"/>
      </contour>
    </TTGlyph>
    <TTGlyph name="Q" xMin="62" yMin="-326" xMax="1570" yMax="1439">
      <contour>
        <pt x="1570" y="-124" on="1"/>
        <pt x="1312" y="-326" on="1"/>
        <pt x="860" y="-28" on="1"/>
        <pt x="850" y="-30" on="0"/>
        <pt x="828" y="-32" on="0"/>
        <pt x="816" y="-32" on="1"/>
        <pt x="571" y="-32" on="0"/>
        <pt x="405" y="71" on="1"/>
        <pt x="325" y="120" on="0"/>
        <pt x="198" y="256" on="0"/>
        <pt x="109" y="420" on="0"/>
        <pt x="62" y="607" on="0"/>
        <pt x="62" y="706" on="1"/>
        <pt x="62" y="999" on="0"/>
        <pt x="252" y="1208" on="1"/>
        <pt x="462" y="1439" on="0"/>
        <pt x="816" y="1439" on="1"/>
        <pt x="939" y="1439" on="0"/>
        <pt x="1146" y="1383" on="0"/>
        <pt x="1313" y="1284" on="0"/>
        <pt x="1441" y="1147" on="0"/>
        <pt x="1526" y="984" on="0"/>
        <pt x="1570" y="801" on="0"/>
        <pt x="1570" y="706" on="1"/>
        <pt x="1570" y="622" on="0"/>
        <pt x="1537" y="460" on="0"/>
        <pt x="1471" y="310" on="0"/>
        <pt x="1373" y="178" on="0"/>
        <pt x="1308" y="124" on="1"/>
        <pt x="1570" y="-47" on="1"/>
      </contour>
      <contour>
        <pt x="816" y="338" on="1"/>
        <pt x="895" y="338" on="0"/>
        <pt x="1006" y="406" on="0"/>
        <pt x="1077" y="513" on="0"/>
        <pt x="1110" y="643" on="0"/>
        <pt x="1110" y="706" on="1"/>
        <pt x="1110" y="785" on="0"/>
        <pt x="1069" y="920" on="0"/>
        <pt x="993" y="1019" on="0"/>
        <pt x="884" y="1075" on="0"/>
        <pt x="816" y="1075" on="1"/>
        <pt x="736" y="1075" on="0"/>
        <pt x="624" y="1006" on="0"/>
        <pt x="554" y="899" on="0"/>
        <pt x="522" y="768" on="0"/>
        <pt x="522" y="706" on="1"/>
        <pt x="522" y="629" on="0"/>
        <pt x="564" y="495" on="0"/>
        <pt x="641" y="395" on="0"/>
        <pt x="750" y="338" on="0"/>
      </contour>
    </TTGlyph>
    <TTGlyph name="R" xMin="134" yMin="-32" xMax="1389" yMax="1408">
      <contour>
        <pt x="1389" y="4" on="1"/>
        <pt x="1258" y="-32" on="0"/>
        <pt x="1200" y="-32" on="1"/>
        <pt x="829" y="-32" on="0"/>
        <pt x="734" y="306" on="1"/>
        <pt x="678" y="534" on="1"/>
        <pt x="582" y="534" on="1"/>
        <pt x="582" y="0" on="1"/>
        <pt x="134" y="0" on="1"/>
        <pt x="134" y="1408" on="1"/>
        <pt x="760" y="1408" on="1"/>
        <pt x="882" y="1408" on="0"/>
        <pt x="1096" y="1353" on="0"/>
        <pt x="1255" y="1248" on="0"/>
        <pt x="1346" y="1094" on="0"/>
        <pt x="1346" y="994" on="1"/>
        <pt x="1346" y="920" on="0"/>
        <pt x="1309" y="803" on="0"/>
        <pt x="1239" y="710" on="0"/>
        <pt x="1138" y="638" on="0"/>
        <pt x="1074" y="610" on="1"/>
        <pt x="1083" y="561" on="1"/>
        <pt x="1086" y="544" on="0"/>
        <pt x="1092" y="520" on="0"/>
        <pt x="1094" y="512" on="1"/>
        <pt x="1105" y="469" on="1"/>
        <pt x="1117" y="431" on="0"/>
        <pt x="1148" y="378" on="0"/>
        <pt x="1196" y="345" on="0"/>
        <pt x="1267" y="330" on="0"/>
        <pt x="1318" y="330" on="1"/>
        <pt x="1326" y="330" on="0"/>
        <pt x="1361" y="334" on="0"/>
        <pt x="1389" y="338" on="1"/>
      </contour>
      <contour>
        <pt x="936" y="974" on="1"/>
        <pt x="936" y="1013" on="0"/>
        <pt x="903" y="1064" on="0"/>
        <pt x="845" y="1093" on="0"/>
        <pt x="767" y="1104" on="0"/>
        <pt x="722" y="1104" on="1"/>
        <pt x="582" y="1104" on="1"/>
        <pt x="582" y="822" on="1"/>
        <pt x="660" y="822" on="1"/>
        <pt x="726" y="825" on="1"/>
        <pt x="765" y="828" on="0"/>
        <pt x="840" y="843" on="0"/>
        <pt x="900" y="876" on="0"/>
        <pt x="936" y="931" on="0"/>
      </contour>
    </TTGlyph>
    <TTGlyph name="Racute" xMin="134" yMin="-32" xMax="1389" yMax="2201">
      <component glyphName="acute" x="317" y="411" flags="0x4"/>
      <component glyphName="R" x="0" y="0" flags="0x4"/>
    </TTGlyph>
    <TTGlyph name="Rcaron" xMin="8" yMin="-32" xMax="1389" yMax="2071">
      <component glyphName="caron" x="-40" y="431" flags="0x4"/>
      <component glyphName="R" x="0" y="0" flags="0x4"/>
    </TTGlyph>
    <TTGlyph name="Rcommaaccent" xMin="134" yMin="-880" xMax="1389" yMax="1408">
      <component glyphName="comma" x="440" y="-534" flags="0x4"/>
      <component glyphName="R" x="0" y="0" flags="0x4"/>
    </TTGlyph>
    <TTGlyph name="S" xMin="70" yMin="-32" xMax="1152" yMax="1440">
      <contour>
        <pt x="1152" y="460" on="1"/>
        <pt x="1152" y="334" on="0"/>
        <pt x="1075" y="149" on="0"/>
        <pt x="931" y="28" on="0"/>
        <pt x="722" y="-32" on="0"/>
        <pt x="590" y="-32" on="1"/>
        <pt x="297" y="-32" on="0"/>
        <pt x="76" y="74" on="1"/>
        <pt x="137" y="226" on="0"/>
        <pt x="172" y="352" on="1"/>
        <pt x="178" y="373" on="0"/>
        <pt x="184" y="388" on="1"/>
        <pt x="334" y="351" on="1"/>
        <pt x="361" y="345" on="0"/>
        <pt x="423" y="331" on="0"/>
        <pt x="485" y="320" on="0"/>
        <pt x="541" y="312" on="0"/>
        <pt x="562" y="312" on="1"/>
        <pt x="596" y="312" on="0"/>
        <pt x="659" y="317" on="0"/>
        <pt x="707" y="335" on="0"/>
        <pt x="736" y="369" on="0"/>
        <pt x="736" y="398" on="1"/>
        <pt x="736" y="433" on="0"/>
        <pt x="670" y="481" on="0"/>
        <pt x="571" y="519" on="0"/>
        <pt x="453" y="550" on="0"/>
        <pt x="402" y="568" on="1"/>
        <pt x="331" y="590" on="0"/>
        <pt x="209" y="666" on="0"/>
        <pt x="120" y="771" on="0"/>
        <pt x="70" y="904" on="0"/>
        <pt x="70" y="984" on="1"/>
        <pt x="70" y="1440" on="0"/>
        <pt x="618" y="1440" on="1"/>
        <pt x="878" y="1440" on="0"/>
        <pt x="1102" y="1332" on="1"/>
        <pt x="992" y="1026" on="1"/>
        <pt x="895" y="1051" on="0"/>
        <pt x="782" y="1080" on="0"/>
        <pt x="714" y="1094" on="0"/>
        <pt x="674" y="1098" on="0"/>
        <pt x="652" y="1098" on="1"/>
        <pt x="618" y="1098" on="1"/>
        <pt x="607" y="1098" on="0"/>
        <pt x="592" y="1099" on="0"/>
        <pt x="585" y="1099" on="1"/>
        <pt x="540" y="1099" on="0"/>
        <pt x="492" y="1072" on="0"/>
        <pt x="492" y="1030" on="1"/>
        <pt x="492" y="967" on="0"/>
        <pt x="602" y="934" on="1"/>
        <pt x="873" y="871" on="0"/>
        <pt x="1152" y="631" on="0"/>
      </contour>
    </TTGlyph>
    <TTGlyph name="Sacute" xMin="70" yMin="-32" xMax="1152" yMax="2202">
      <component glyphName="acute" x="284" y="412" flags="0x4"/>
      <component glyphName="S" x="0" y="0" flags="0x4"/>
    </TTGlyph>
    <TTGlyph name="Scaron" xMin="70" yMin="-32" xMax="1152" yMax="2072">
      <component glyphName="caron" x="129" y="432" flags="0x4"/>
      <component glyphName="S" x="0" y="0" flags="0x4"/>
    </TTGlyph>
    <TTGlyph name="Scedilla" xMin="70" yMin="-521" xMax="1152" yMax="1440">
      <component glyphName="cedilla" x="305" y="-13" flags="0x4"/>
      <component glyphName="S" x="0" y="0" flags="0x4"/>
    </TTGlyph>
    <TTGlyph name="Scircumflex" xMin="70" yMin="-32" xMax="1152" yMax="2072">
      <component glyphName="circumflex" x="129" y="432" flags="0x4"/>
      <component glyphName="S" x="0" y="0" flags="0x4"/>
    </TTGlyph>
    <TTGlyph name="Scommaaccent" xMin="70" yMin="-880" xMax="1152" yMax="1440">
      <component glyphName="comma" x="286" y="-534" flags="0x4"/>
      <component glyphName="S" x="0" y="0" flags="0x4"/>
    </TTGlyph>
    <TTGlyph name="T" xMin="60" yMin="0" xMax="1122" yMax="1408">
      <contour>
        <pt x="352" y="1110" on="1"/>
        <pt x="60" y="1110" on="1"/>
        <pt x="60" y="1408" on="1"/>
        <pt x="1122" y="1408" on="1"/>
        <pt x="1122" y="1110" on="1"/>
        <pt x="830" y="1110" on="1"/>
        <pt x="830" y="0" on="1"/>
        <pt x="352" y="0" on="1"/>
      </contour>
    </TTGlyph>
    <TTGlyph name="Tbar" xMin="70" yMin="0" xMax="1132" yMax="1376">
      <contour>
        <pt x="362" y="518" on="1"/>
        <pt x="216" y="518" on="1"/>
        <pt x="216" y="692" on="1"/>
        <pt x="362" y="692" on="1"/>
        <pt x="362" y="1078" on="1"/>
        <pt x="70" y="1078" on="1"/>
        <pt x="70" y="1376" on="1"/>
        <pt x="1132" y="1376" on="1"/>
        <pt x="1132" y="1078" on="1"/>
        <pt x="840" y="1078" on="1"/>
        <pt x="840" y="692" on="1"/>
        <pt x="986" y="692" on="1"/>
        <pt x="986" y="518" on="1"/>
        <pt x="840" y="518" on="1"/>
        <pt x="840" y="0" on="1"/>
        <pt x="362" y="0" on="1"/>
      </contour>
    </TTGlyph>
    <TTGlyph name="Tcaron" xMin="60" yMin="0" xMax="1122" yMax="2071">
      <component glyphName="caron" x="102" y="431" flags="0x4"/>
      <component glyphName="T" x="0" y="0" flags="0x4"/>
    </TTGlyph>
    <TTGlyph name="Tcommaaccent" xMin="60" yMin="-491" xMax="1122" yMax="1408">
      <component glyphName="cedilla" x="306" y="17" flags="0x4"/>
      <component glyphName="T" x="0" y="0" flags="0x4"/>
    </TTGlyph>
    <TTGlyph name="Thorn" xMin="134" yMin="0" xMax="1302" yMax="1408">
      <contour>
        <pt x="134" y="1408" on="1"/>
        <pt x="574" y="1408" on="1"/>
        <pt x="574" y="1266" on="1"/>
        <pt x="642" y="1266" on="1"/>
        <pt x="800" y="1266" on="0"/>
        <pt x="1046" y="1204" on="0"/>
        <pt x="1214" y="1084" on="0"/>
        <pt x="1302" y="911" on="0"/>
        <pt x="1302" y="800" on="1"/>
        <pt x="1302" y="694" on="0"/>
        <pt x="1204" y="524" on="0"/>
        <pt x="1032" y="404" on="0"/>
        <pt x="797" y="340" on="0"/>
        <pt x="660" y="340" on="1"/>
        <pt x="574" y="340" on="1"/>
        <pt x="574" y="0" on="1"/>
        <pt x="134" y="0" on="1"/>
      </contour>
      <contour>
        <pt x="662" y="624" on="1"/>
        <pt x="766" y="624" on="0"/>
        <pt x="890" y="712" on="0"/>
        <pt x="890" y="800" on="1"/>
        <pt x="890" y="841" on="0"/>
        <pt x="854" y="905" on="0"/>
        <pt x="793" y="949" on="0"/>
        <pt x="710" y="972" on="0"/>
        <pt x="662" y="972" on="1"/>
        <pt x="574" y="972" on="1"/>
        <pt x="574" y="628" on="1"/>
        <pt x="590" y="626" on="0"/>
        <pt x="633" y="624" on="0"/>
      </contour>
    </TTGlyph>
    <TTGlyph name="U" xMin="121" yMin="-32" xMax="1513" yMax="1408">
      <contour>
        <pt x="817" y="338" on="1"/>
        <pt x="932" y="338" on="0"/>
        <pt x="1051" y="463" on="0"/>
        <pt x="1051" y="584" on="1"/>
        <pt x="1051" y="1408" on="1"/>
        <pt x="1513" y="1408" on="1"/>
        <pt x="1513" y="584" on="1"/>
        <pt x="1513" y="476" on="0"/>
        <pt x="1456" y="301" on="0"/>
        <pt x="1357" y="164" on="0"/>
        <pt x="1223" y="64" on="0"/>
        <pt x="1068" y="-1" on="0"/>
        <pt x="900" y="-32" on="0"/>
        <pt x="817" y="-32" on="1"/>
        <pt x="532" y="-32" on="0"/>
        <pt x="334" y="124" on="1"/>
        <pt x="121" y="290" on="0"/>
        <pt x="121" y="584" on="1"/>
        <pt x="121" y="1408" on="1"/>
        <pt x="583" y="1408" on="1"/>
        <pt x="583" y="584" on="1"/>
        <pt x="583" y="338" on="0"/>
      </contour>
    </TTGlyph>
    <TTGlyph name="Uacute" xMin="121" yMin="-32" xMax="1513" yMax="2201">
      <component glyphName="acute" x="687" y="411" flags="0x4"/>
      <component glyphName="U" x="0" y="0" flags="0x4"/>
    </TTGlyph>
    <TTGlyph name="Ubreve" xMin="121" yMin="-32" xMax="1513" yMax="1911">
      <component glyphName="breve" x="396" y="411" flags="0x4"/>
      <component glyphName="U" x="0" y="0" flags="0x4"/>
    </TTGlyph>
    <TTGlyph name="Ucircumflex" xMin="121" yMin="-32" xMax="1513" yMax="2071">
      <component glyphName="circumflex" x="328" y="431" flags="0x4"/>
      <component glyphName="U" x="0" y="0" flags="0x4"/>
    </TTGlyph>
    <TTGlyph name="Udieresis" xMin="121" yMin="-32" xMax="1513" yMax="1975">
      <component glyphName="dieresis" x="194" y="439" flags="0x4"/>
      <component glyphName="U" x="0" y="0" flags="0x4"/>
    </TTGlyph>
    <TTGlyph name="Ugrave" xMin="121" yMin="-32" xMax="1513" yMax="2201">
      <component glyphName="grave" x="105" y="411" flags="0x4"/>
      <component glyphName="U" x="0" y="0" flags="0x4"/>
    </TTGlyph>
    <TTGlyph name="Uhungarumlaut" xMin="121" yMin="-32" xMax="1513" yMax="2355">
      <component glyphName="hungarumlaut" x="229" y="345" flags="0x4"/>
      <component glyphName="U" x="0" y="0" flags="0x4"/>
    </TTGlyph>
    <TTGlyph name="Umacron" xMin="121" yMin="-32" xMax="1513" yMax="1803">
      <component glyphName="hyphen" x="447" y="1153" flags="0x4"/>
      <component glyphName="U" x="0" y="0" flags="0x4"/>
    </TTGlyph>
    <TTGlyph name="Uogonek" xMin="121" yMin="-521" xMax="1513" yMax="1408">
      <component glyphName="ogonek" x="399" y="-13" flags="0x4"/>
      <component glyphName="U" x="0" y="0" flags="0x4"/>
    </TTGlyph>
    <TTGlyph name="Uring" xMin="121" yMin="-32" xMax="1513" yMax="2265">
      <component glyphName="ring" x="396" y="411" flags="0x4"/>
      <component glyphName="U" x="0" y="0" flags="0x4"/>
    </TTGlyph>
    <TTGlyph name="Utilde" xMin="121" yMin="-32" xMax="1513" yMax="2021">
      <component glyphName="tilde" x="259" y="409" flags="0x4"/>
      <component glyphName="U" x="0" y="0" flags="0x4"/>
    </TTGlyph>
    <TTGlyph name="V" xMin="4" yMin="0" xMax="1384" yMax="1408">
      <contour>
        <pt x="4" y="1408" on="1"/>
        <pt x="466" y="1408" on="1"/>
        <pt x="684" y="530" on="1"/>
        <pt x="902" y="1408" on="1"/>
        <pt x="1384" y="1408" on="1"/>
        <pt x="944" y="0" on="1"/>
        <pt x="422" y="0" on="1"/>
      </contour>
    </TTGlyph>
    <TTGlyph name="W" xMin="43" yMin="0" xMax="1985" yMax="1408">
      <contour>
        <pt x="43" y="1408" on="1"/>
        <pt x="503" y="1408" on="1"/>
        <pt x="637" y="510" on="1"/>
        <pt x="775" y="1170" on="1"/>
        <pt x="1251" y="1170" on="1"/>
        <pt x="1391" y="510" on="1"/>
        <pt x="1523" y="1408" on="1"/>
        <pt x="1985" y="1408" on="1"/>
        <pt x="1665" y="0" on="1"/>
        <pt x="1187" y="0" on="1"/>
        <pt x="1013" y="758" on="1"/>
        <pt x="839" y="0" on="1"/>
        <pt x="363" y="0" on="1"/>
      </contour>
    </TTGlyph>
    <TTGlyph name="Wcircumflex" xMin="43" yMin="0" xMax="1985" yMax="2071">
      <component glyphName="circumflex" x="525" y="431" flags="0x4"/>
      <component glyphName="W" x="0" y="0" flags="0x4"/>
    </TTGlyph>
    <TTGlyph name="X" xMin="1" yMin="0" xMax="1295" yMax="1408">
      <contour>
        <pt x="391" y="700" on="1"/>
        <pt x="13" y="1408" on="1"/>
        <pt x="477" y="1408" on="1"/>
        <pt x="643" y="1052" on="1"/>
        <pt x="809" y="1408" on="1"/>
        <pt x="1283" y="1408" on="1"/>
        <pt x="901" y="700" on="1"/>
        <pt x="1295" y="0" on="1"/>
        <pt x="821" y="0" on="1"/>
        <pt x="643" y="350" on="1"/>
        <pt x="465" y="0" on="1"/>
        <pt x="1" y="0" on="1"/>
      </contour>
    </TTGlyph>
    <TTGlyph name="Y" xMin="-6" yMin="0" xMax="1266" yMax="1408">
      <contour>
        <pt x="400" y="392" on="1"/>
        <pt x="-6" y="1408" on="1"/>
        <pt x="422" y="1408" on="1"/>
        <pt x="620" y="776" on="1"/>
        <pt x="816" y="1408" on="1"/>
        <pt x="1266" y="1408" on="1"/>
        <pt x="840" y="392" on="1"/>
        <pt x="840" y="0" on="1"/>
        <pt x="400" y="0" on="1"/>
      </contour>
    </TTGlyph>
    <TTGlyph name="Yacute" xMin="-6" yMin="0" xMax="1312" yMax="2201">
      <component glyphName="acute" x="500" y="411" flags="0x4"/>
      <component glyphName="Y" x="0" y="0" flags="0x4"/>
    </TTGlyph>
    <TTGlyph name="Ycircumflex" xMin="-6" yMin="0" xMax="1266" yMax="2071">
      <component glyphName="circumflex" x="141" y="431" flags="0x4"/>
      <component glyphName="Y" x="0" y="0" flags="0x4"/>
    </TTGlyph>
    <TTGlyph name="Ydieresis" xMin="-6" yMin="0" xMax="1266" yMax="1975">
      <component glyphName="dieresis" x="7" y="439" flags="0x4"/>
      <component glyphName="Y" x="0" y="0" flags="0x4"/>
    </TTGlyph>
    <TTGlyph name="Z" xMin="73" yMin="0" xMax="1034" yMax="1408">
      <contour>
        <pt x="73" y="296" on="1"/>
        <pt x="555" y="1110" on="1"/>
        <pt x="93" y="1110" on="1"/>
        <pt x="93" y="1408" on="1"/>
        <pt x="1013" y="1408" on="1"/>
        <pt x="1013" y="1110" on="1"/>
        <pt x="543" y="296" on="1"/>
        <pt x="1034" y="296" on="1"/>
        <pt x="1034" y="0" on="1"/>
        <pt x="73" y="0" on="1"/>
      </contour>
    </TTGlyph>
    <TTGlyph name="Zacute" xMin="73" yMin="0" xMax="1034" yMax="2201">
      <component glyphName="acute" x="219" y="411" flags="0x4"/>
      <component glyphName="Z" x="0" y="0" flags="0x4"/>
    </TTGlyph>
    <TTGlyph name="Zcaron" xMin="73" yMin="0" xMax="1034" yMax="2071">
      <component glyphName="caron" x="64" y="431" flags="0x4"/>
      <component glyphName="Z" x="0" y="0" flags="0x4"/>
    </TTGlyph>
    <TTGlyph name="Zdotaccent" xMin="73" yMin="0" xMax="1034" yMax="1975">
      <component glyphName="dotaccent" x="237" y="397" flags="0x4"/>
      <component glyphName="Z" x="0" y="0" flags="0x4"/>
    </TTGlyph>
    <TTGlyph name="a" xMin="52" yMin="-16" xMax="1320" yMax="1041">
      <contour>
        <pt x="890" y="190" on="1"/>
        <pt x="842" y="90" on="0"/>
        <pt x="678" y="-16" on="0"/>
        <pt x="554" y="-16" on="1"/>
        <pt x="454" y="-16" on="0"/>
        <pt x="272" y="65" on="0"/>
        <pt x="134" y="208" on="0"/>
        <pt x="52" y="404" on="0"/>
        <pt x="52" y="519" on="1"/>
        <pt x="52" y="633" on="0"/>
        <pt x="135" y="825" on="0"/>
        <pt x="274" y="964" on="0"/>
        <pt x="455" y="1041" on="0"/>
        <pt x="554" y="1041" on="1"/>
        <pt x="605" y="1041" on="0"/>
        <pt x="704" y="1014" on="0"/>
        <pt x="793" y="955" on="0"/>
        <pt x="866" y="865" on="0"/>
        <pt x="890" y="802" on="1"/>
        <pt x="890" y="1041" on="1"/>
        <pt x="1320" y="1041" on="1"/>
        <pt x="1320" y="0" on="1"/>
        <pt x="890" y="0" on="1"/>
      </contour>
      <contour>
        <pt x="890" y="520" on="1"/>
        <pt x="888" y="560" on="0"/>
        <pt x="854" y="632" on="0"/>
        <pt x="799" y="685" on="0"/>
        <pt x="727" y="716" on="0"/>
        <pt x="688" y="716" on="1"/>
        <pt x="644" y="716" on="0"/>
        <pt x="569" y="683" on="0"/>
        <pt x="514" y="628" on="0"/>
        <pt x="482" y="554" on="0"/>
        <pt x="482" y="512" on="1"/>
        <pt x="482" y="468" on="0"/>
        <pt x="516" y="393" on="0"/>
        <pt x="573" y="339" on="0"/>
        <pt x="647" y="308" on="0"/>
        <pt x="688" y="308" on="1"/>
        <pt x="730" y="308" on="0"/>
        <pt x="802" y="340" on="0"/>
        <pt x="856" y="394" on="0"/>
        <pt x="888" y="465" on="0"/>
        <pt x="890" y="504" on="1"/>
      </contour>
    </TTGlyph>
    <TTGlyph name="aacute" xMin="52" yMin="-16" xMax="1404" yMax="1818">
      <component glyphName="acute" x="592" y="28" flags="0x4"/>
      <component glyphName="a" x="0" y="0" flags="0x4"/>
    </TTGlyph>
    <TTGlyph name="abreve" xMin="52" yMin="-16" xMax="1320" yMax="1528">
      <component glyphName="breve" x="301" y="28" flags="0x4"/>
      <component glyphName="a" x="0" y="0" flags="0x4"/>
    </TTGlyph>
    <TTGlyph name="acircumflex" xMin="52" yMin="-16" xMax="1320" yMax="1688">
      <component glyphName="circumflex" x="233" y="48" flags="0x4"/>
      <component glyphName="a" x="0" y="0" flags="0x4"/>
    </TTGlyph>
    <TTGlyph name="acute" xMin="4" yMin="1150" xMax="812" yMax="1790">
      <contour>
        <pt x="4" y="1370" on="1"/>
        <pt x="604" y="1790" on="1"/>
        <pt x="812" y="1424" on="1"/>
        <pt x="130" y="1150" on="1"/>
      </contour>
    </TTGlyph>
    <TTGlyph name="adieresis" xMin="52" yMin="-16" xMax="1320" yMax="1592">
      <component glyphName="dieresis" x="99" y="56" flags="0x4"/>
      <component glyphName="a" x="0" y="0" flags="0x4"/>
    </TTGlyph>
    <TTGlyph name="ae" xMin="52" yMin="-32" xMax="2117" yMax="1056">
      <contour>
        <pt x="2075" y="52" on="1"/>
        <pt x="1860" y="-32" on="0"/>
        <pt x="1597" y="-32" on="1"/>
        <pt x="1559" y="-32" on="0"/>
        <pt x="1480" y="-16" on="0"/>
        <pt x="1400" y="14" on="0"/>
        <pt x="1324" y="60" on="0"/>
        <pt x="1290" y="90" on="1"/>
        <pt x="1290" y="0" on="1"/>
        <pt x="890" y="-32" on="1"/>
        <pt x="890" y="190" on="1"/>
        <pt x="866" y="140" on="0"/>
        <pt x="801" y="58" on="0"/>
        <pt x="717" y="0" on="0"/>
        <pt x="614" y="-32" on="0"/>
        <pt x="552" y="-32" on="1"/>
        <pt x="452" y="-32" on="0"/>
        <pt x="271" y="54" on="0"/>
        <pt x="133" y="203" on="0"/>
        <pt x="52" y="404" on="0"/>
        <pt x="52" y="519" on="1"/>
        <pt x="52" y="633" on="0"/>
        <pt x="135" y="830" on="0"/>
        <pt x="274" y="974" on="0"/>
        <pt x="455" y="1056" on="0"/>
        <pt x="554" y="1056" on="1"/>
        <pt x="605" y="1056" on="0"/>
        <pt x="704" y="1024" on="0"/>
        <pt x="793" y="960" on="0"/>
        <pt x="866" y="865" on="0"/>
        <pt x="890" y="802" on="1"/>
        <pt x="890" y="1056" on="1"/>
        <pt x="1290" y="1026" on="1"/>
        <pt x="1290" y="936" on="1"/>
        <pt x="1420" y="1056" on="0"/>
        <pt x="1613" y="1056" on="1"/>
        <pt x="1728" y="1056" on="0"/>
        <pt x="1914" y="980" on="0"/>
        <pt x="2046" y="843" on="0"/>
        <pt x="2117" y="653" on="0"/>
        <pt x="2117" y="538" on="1"/>
        <pt x="2117" y="524" on="0"/>
        <pt x="2115" y="498" on="0"/>
        <pt x="2113" y="486" on="1"/>
        <pt x="1439" y="406" on="1"/>
        <pt x="1494" y="262" on="0"/>
        <pt x="1693" y="262" on="1"/>
        <pt x="1851" y="262" on="0"/>
        <pt x="2025" y="334" on="1"/>
      </contour>
      <contour>
        <pt x="890" y="520" on="1"/>
        <pt x="888" y="560" on="0"/>
        <pt x="854" y="632" on="0"/>
        <pt x="799" y="685" on="0"/>
        <pt x="727" y="716" on="0"/>
        <pt x="688" y="716" on="1"/>
        <pt x="644" y="716" on="0"/>
        <pt x="569" y="683" on="0"/>
        <pt x="514" y="628" on="0"/>
        <pt x="482" y="554" on="0"/>
        <pt x="482" y="512" on="1"/>
        <pt x="482" y="468" on="0"/>
        <pt x="516" y="393" on="0"/>
        <pt x="573" y="339" on="0"/>
        <pt x="647" y="308" on="0"/>
        <pt x="688" y="308" on="1"/>
        <pt x="730" y="308" on="0"/>
        <pt x="802" y="340" on="0"/>
        <pt x="856" y="394" on="0"/>
        <pt x="888" y="465" on="0"/>
        <pt x="890" y="504" on="1"/>
      </contour>
      <contour>
        <pt x="1799" y="664" on="1"/>
        <pt x="1779" y="725" on="0"/>
        <pt x="1683" y="792" on="0"/>
        <pt x="1613" y="792" on="1"/>
        <pt x="1525" y="792" on="0"/>
        <pt x="1424" y="684" on="0"/>
        <pt x="1421" y="594" on="1"/>
      </contour>
    </TTGlyph>
    <TTGlyph name="agrave" xMin="52" yMin="-16" xMax="1320" yMax="1818">
      <component glyphName="grave" x="262" y="28" flags="0x4"/>
      <component glyphName="a" x="0" y="0" flags="0x4"/>
    </TTGlyph>
    <TTGlyph name="amacron" xMin="52" yMin="-16" xMax="1320" yMax="1420">
      <component glyphName="hyphen" x="352" y="770" flags="0x4"/>
      <component glyphName="a" x="0" y="0" flags="0x4"/>
    </TTGlyph>
    <TTGlyph name="ampersand" xMin="57" yMin="-32" xMax="1375" yMax="1414">
      <contour>
        <pt x="1305" y="504" on="1"/>
        <pt x="1232" y="363" on="0"/>
        <pt x="1133" y="278" on="1"/>
        <pt x="1375" y="0" on="1"/>
        <pt x="963" y="0" on="1"/>
        <pt x="874" y="103" on="1"/>
        <pt x="799" y="43" on="0"/>
        <pt x="621" y="-32" on="0"/>
        <pt x="525" y="-32" on="1"/>
        <pt x="419" y="-32" on="0"/>
        <pt x="247" y="26" on="0"/>
        <pt x="124" y="134" on="0"/>
        <pt x="57" y="288" on="0"/>
        <pt x="57" y="384" on="1"/>
        <pt x="57" y="462" on="0"/>
        <pt x="100" y="578" on="0"/>
        <pt x="177" y="666" on="0"/>
        <pt x="281" y="732" on="0"/>
        <pt x="341" y="760" on="1"/>
        <pt x="199" y="917" on="0"/>
        <pt x="199" y="1056" on="1"/>
        <pt x="199" y="1123" on="0"/>
        <pt x="264" y="1251" on="0"/>
        <pt x="385" y="1352" on="0"/>
        <pt x="558" y="1414" on="0"/>
        <pt x="667" y="1414" on="1"/>
        <pt x="759" y="1414" on="0"/>
        <pt x="913" y="1364" on="0"/>
        <pt x="1025" y="1271" on="0"/>
        <pt x="1087" y="1141" on="0"/>
        <pt x="1087" y="1060" on="1"/>
        <pt x="1087" y="1006" on="0"/>
        <pt x="1053" y="899" on="0"/>
        <pt x="986" y="803" on="0"/>
        <pt x="886" y="721" on="0"/>
        <pt x="819" y="692" on="1"/>
        <pt x="829" y="680" on="0"/>
        <pt x="866" y="634" on="0"/>
        <pt x="908" y="583" on="0"/>
        <pt x="946" y="536" on="0"/>
        <pt x="957" y="524" on="1"/>
        <pt x="1121" y="700" on="1"/>
      </contour>
      <contour>
        <pt x="421" y="398" on="1"/>
        <pt x="421" y="341" on="0"/>
        <pt x="486" y="270" on="0"/>
        <pt x="543" y="270" on="1"/>
        <pt x="623" y="270" on="0"/>
        <pt x="667" y="314" on="1"/>
        <pt x="499" y="528" on="1"/>
        <pt x="421" y="484" on="0"/>
      </contour>
      <contour>
        <pt x="669" y="1146" on="1"/>
        <pt x="563" y="1146" on="0"/>
        <pt x="563" y="1052" on="1"/>
        <pt x="563" y="1013" on="0"/>
        <pt x="615" y="944" on="0"/>
        <pt x="663" y="906" on="1"/>
        <pt x="690" y="918" on="0"/>
        <pt x="729" y="944" on="0"/>
        <pt x="753" y="978" on="0"/>
        <pt x="765" y="1022" on="0"/>
        <pt x="765" y="1052" on="1"/>
        <pt x="765" y="1095" on="0"/>
        <pt x="714" y="1146" on="0"/>
      </contour>
    </TTGlyph>
    <TTGlyph name="aogonek" xMin="52" yMin="-521" xMax="1320" yMax="1041">
      <component glyphName="ogonek" x="639" y="-13" flags="0x4"/>
      <component glyphName="a" x="0" y="0" flags="0x4"/>
    </TTGlyph>
    <TTGlyph name="approxequal" xMin="61" yMin="598" xMax="1175" yMax="1056">
      <component glyphName="asciitilde" x="19" y="0" flags="0x4"/>
      <component glyphName="asciitilde" x="19" y="0" flags="0x4"/>
    </TTGlyph>
    <TTGlyph name="aring" xMin="52" yMin="-16" xMax="1320" yMax="1882">
      <component glyphName="ring" x="301" y="28" flags="0x4"/>
      <component glyphName="a" x="0" y="0" flags="0x4"/>
    </TTGlyph>
    <TTGlyph name="asciicircum" xMin="72" yMin="350" xMax="1134" yMax="1376">
      <contour>
        <pt x="418" y="1376" on="1"/>
        <pt x="784" y="1376" on="1"/>
        <pt x="1134" y="350" on="1"/>
        <pt x="830" y="350" on="1"/>
        <pt x="604" y="1184" on="1"/>
        <pt x="382" y="350" on="1"/>
        <pt x="72" y="350" on="1"/>
      </contour>
    </TTGlyph>
    <TTGlyph name="asciitilde" xMin="42" yMin="598" xMax="1156" yMax="1056">
      <contour>
        <pt x="390" y="710" on="1"/>
        <pt x="368" y="710" on="0"/>
        <pt x="336" y="692" on="0"/>
        <pt x="312" y="663" on="0"/>
        <pt x="293" y="625" on="0"/>
        <pt x="284" y="604" on="1"/>
        <pt x="42" y="702" on="1"/>
        <pt x="71" y="786" on="0"/>
        <pt x="148" y="918" on="0"/>
        <pt x="239" y="1008" on="0"/>
        <pt x="339" y="1056" on="0"/>
        <pt x="392" y="1056" on="1"/>
        <pt x="439" y="1056" on="0"/>
        <pt x="534" y="1034" on="0"/>
        <pt x="564" y="1023" on="1"/>
        <pt x="620" y="1001" on="0"/>
        <pt x="690" y="971" on="0"/>
        <pt x="741" y="952" on="0"/>
        <pt x="785" y="944" on="0"/>
        <pt x="814" y="944" on="1"/>
        <pt x="856" y="944" on="0"/>
        <pt x="902" y="994" on="0"/>
        <pt x="918" y="1036" on="1"/>
        <pt x="1156" y="938" on="1"/>
        <pt x="1099" y="767" on="0"/>
        <pt x="934" y="598" on="0"/>
        <pt x="822" y="598" on="1"/>
        <pt x="786" y="598" on="0"/>
        <pt x="724" y="606" on="0"/>
        <pt x="668" y="619" on="0"/>
        <pt x="614" y="638" on="0"/>
        <pt x="586" y="649" on="1"/>
        <pt x="486" y="692" on="1"/>
        <pt x="442" y="710" on="0"/>
      </contour>
    </TTGlyph>
    <TTGlyph name="asterisk" xMin="65" yMin="474" xMax="1035" yMax="1408">
      <contour>
        <pt x="381" y="884" on="1"/>
        <pt x="65" y="1022" on="1"/>
        <pt x="175" y="1240" on="1"/>
        <pt x="451" y="1074" on="1"/>
        <pt x="429" y="1408" on="1"/>
        <pt x="677" y="1408" on="1"/>
        <pt x="651" y="1076" on="1"/>
        <pt x="919" y="1244" on="1"/>
        <pt x="1035" y="1022" on="1"/>
        <pt x="715" y="884" on="1"/>
        <pt x="949" y="638" on="1"/>
        <pt x="741" y="474" on="1"/>
        <pt x="545" y="770" on="1"/>
        <pt x="353" y="474" on="1"/>
        <pt x="147" y="640" on="1"/>
      </contour>
    </TTGlyph>
    <TTGlyph name="at" xMin="63" yMin="-32" xMax="1716" yMax="1516">
      <contour>
        <pt x="1362" y="377" on="1"/>
        <pt x="1145" y="377" on="0"/>
        <pt x="1052" y="528" on="1"/>
        <pt x="1016" y="459" on="0"/>
        <pt x="892" y="379" on="0"/>
        <pt x="804" y="379" on="1"/>
        <pt x="721" y="379" on="0"/>
        <pt x="596" y="447" on="0"/>
        <pt x="510" y="555" on="0"/>
        <pt x="467" y="687" on="0"/>
        <pt x="467" y="750" on="1"/>
        <pt x="467" y="827" on="0"/>
        <pt x="524" y="959" on="0"/>
        <pt x="618" y="1056" on="0"/>
        <pt x="740" y="1111" on="0"/>
        <pt x="806" y="1111" on="1"/>
        <pt x="915" y="1111" on="0"/>
        <pt x="1141" y="1101" on="0"/>
        <pt x="1261" y="1091" on="1"/>
        <pt x="1261" y="622" on="1"/>
        <pt x="1300" y="581" on="0"/>
        <pt x="1336" y="581" on="1"/>
        <pt x="1372" y="581" on="0"/>
        <pt x="1419" y="630" on="0"/>
        <pt x="1446" y="705" on="0"/>
        <pt x="1456" y="794" on="0"/>
        <pt x="1456" y="835" on="1"/>
        <pt x="1456" y="1277" on="0"/>
        <pt x="910" y="1277" on="1"/>
        <pt x="781" y="1277" on="0"/>
        <pt x="564" y="1196" on="0"/>
        <pt x="408" y="1052" on="0"/>
        <pt x="321" y="854" on="0"/>
        <pt x="321" y="737" on="1"/>
        <pt x="321" y="605" on="0"/>
        <pt x="418" y="409" on="0"/>
        <pt x="580" y="278" on="0"/>
        <pt x="789" y="213" on="0"/>
        <pt x="900" y="213" on="1"/>
        <pt x="1126" y="213" on="0"/>
        <pt x="1310" y="307" on="1"/>
        <pt x="1430" y="103" on="1"/>
        <pt x="1370" y="68" on="0"/>
        <pt x="1251" y="17" on="0"/>
        <pt x="1124" y="-16" on="0"/>
        <pt x="982" y="-32" on="0"/>
        <pt x="900" y="-32" on="1"/>
        <pt x="711" y="-32" on="0"/>
        <pt x="403" y="83" on="0"/>
        <pt x="183" y="287" on="0"/>
        <pt x="63" y="569" on="0"/>
        <pt x="63" y="736" on="1"/>
        <pt x="63" y="893" on="0"/>
        <pt x="177" y="1176" on="0"/>
        <pt x="394" y="1390" on="0"/>
        <pt x="708" y="1516" on="0"/>
        <pt x="908" y="1516" on="1"/>
        <pt x="1091" y="1516" on="0"/>
        <pt x="1389" y="1426" on="0"/>
        <pt x="1600" y="1254" on="0"/>
        <pt x="1716" y="1002" on="0"/>
        <pt x="1716" y="839" on="1"/>
        <pt x="1716" y="735" on="0"/>
        <pt x="1671" y="565" on="0"/>
        <pt x="1582" y="443" on="0"/>
        <pt x="1449" y="377" on="0"/>
      </contour>
      <contour>
        <pt x="1012" y="902" on="1"/>
        <pt x="876" y="902" on="1"/>
        <pt x="845" y="902" on="0"/>
        <pt x="794" y="877" on="0"/>
        <pt x="757" y="833" on="0"/>
        <pt x="737" y="776" on="0"/>
        <pt x="737" y="745" on="1"/>
        <pt x="737" y="716" on="0"/>
        <pt x="758" y="665" on="0"/>
        <pt x="796" y="628" on="0"/>
        <pt x="846" y="607" on="0"/>
        <pt x="876" y="607" on="1"/>
        <pt x="904" y="607" on="0"/>
        <pt x="954" y="629" on="0"/>
        <pt x="991" y="665" on="0"/>
        <pt x="1012" y="713" on="0"/>
        <pt x="1012" y="739" on="1"/>
      </contour>
    </TTGlyph>
    <TTGlyph name="atilde" xMin="52" yMin="-16" xMax="1320" yMax="1638">
      <component glyphName="tilde" x="164" y="26" flags="0x4"/>
      <component glyphName="a" x="0" y="0" flags="0x4"/>
    </TTGlyph>
    <TTGlyph name="b" xMin="107" yMin="-16" xMax="1375" yMax="1414">
      <contour>
        <pt x="875" y="-16" on="1"/>
        <pt x="639" y="-16" on="0"/>
        <pt x="541" y="190" on="1"/>
        <pt x="541" y="0" on="1"/>
        <pt x="107" y="0" on="1"/>
        <pt x="107" y="1350" on="1"/>
        <pt x="541" y="1414" on="1"/>
        <pt x="541" y="834" on="1"/>
        <pt x="593" y="945" on="0"/>
        <pt x="758" y="1041" on="0"/>
        <pt x="873" y="1041" on="1"/>
        <pt x="977" y="1041" on="0"/>
        <pt x="1160" y="961" on="0"/>
        <pt x="1296" y="819" on="0"/>
        <pt x="1375" y="626" on="0"/>
        <pt x="1375" y="512" on="1"/>
        <pt x="1375" y="398" on="0"/>
        <pt x="1293" y="205" on="0"/>
        <pt x="1155" y="64" on="0"/>
        <pt x="974" y="-16" on="0"/>
      </contour>
      <contour>
        <pt x="541" y="512" on="1"/>
        <pt x="541" y="468" on="0"/>
        <pt x="573" y="394" on="0"/>
        <pt x="629" y="339" on="0"/>
        <pt x="702" y="308" on="0"/>
        <pt x="743" y="308" on="1"/>
        <pt x="786" y="308" on="0"/>
        <pt x="861" y="342" on="0"/>
        <pt x="916" y="398" on="0"/>
        <pt x="947" y="472" on="0"/>
        <pt x="947" y="512" on="1"/>
        <pt x="947" y="556" on="0"/>
        <pt x="914" y="631" on="0"/>
        <pt x="858" y="685" on="0"/>
        <pt x="784" y="716" on="0"/>
        <pt x="743" y="716" on="1"/>
        <pt x="701" y="716" on="0"/>
        <pt x="628" y="685" on="0"/>
        <pt x="574" y="631" on="0"/>
        <pt x="542" y="560" on="0"/>
        <pt x="541" y="520" on="1"/>
      </contour>
    </TTGlyph>
    <TTGlyph name="backslash" xMin="57" yMin="0" xMax="597" yMax="1408">
      <contour>
        <pt x="597" y="0" on="1"/>
        <pt x="397" y="0" on="1"/>
        <pt x="57" y="1408" on="1"/>
        <pt x="261" y="1408" on="1"/>
      </contour>
    </TTGlyph>
    <TTGlyph name="bar" xMin="119" yMin="0" xMax="315" yMax="1408">
      <contour>
        <pt x="119" y="1408" on="1"/>
        <pt x="315" y="1408" on="1"/>
        <pt x="315" y="0" on="1"/>
        <pt x="119" y="0" on="1"/>
      </contour>
    </TTGlyph>
    <TTGlyph name="braceleft" xMin="12" yMin="-74" xMax="660" yMax="1458">
      <contour>
        <pt x="138" y="488" on="1"/>
        <pt x="138" y="545" on="0"/>
        <pt x="69" y="606" on="0"/>
        <pt x="12" y="612" on="1"/>
        <pt x="12" y="772" on="1"/>
        <pt x="69" y="778" on="0"/>
        <pt x="138" y="837" on="0"/>
        <pt x="138" y="894" on="1"/>
        <pt x="138" y="1019" on="0"/>
        <pt x="212" y="1219" on="0"/>
        <pt x="348" y="1363" on="0"/>
        <pt x="541" y="1448" on="0"/>
        <pt x="660" y="1458" on="1"/>
        <pt x="660" y="1280" on="1"/>
        <pt x="592" y="1255" on="0"/>
        <pt x="534" y="1054" on="0"/>
        <pt x="534" y="894" on="1"/>
        <pt x="534" y="824" on="0"/>
        <pt x="450" y="729" on="0"/>
        <pt x="378" y="692" on="1"/>
        <pt x="451" y="654" on="0"/>
        <pt x="534" y="560" on="0"/>
        <pt x="534" y="488" on="1"/>
        <pt x="534" y="322" on="0"/>
        <pt x="597" y="128" on="0"/>
        <pt x="660" y="104" on="1"/>
        <pt x="660" y="-74" on="1"/>
        <pt x="538" y="-65" on="0"/>
        <pt x="345" y="22" on="0"/>
        <pt x="210" y="168" on="0"/>
        <pt x="138" y="367" on="0"/>
      </contour>
    </TTGlyph>
    <TTGlyph name="braceright" xMin="68" yMin="-74" xMax="716" yMax="1458">
      <contour>
        <pt x="716" y="612" on="1"/>
        <pt x="659" y="606" on="0"/>
        <pt x="590" y="545" on="0"/>
        <pt x="590" y="488" on="1"/>
        <pt x="590" y="363" on="0"/>
        <pt x="517" y="164" on="0"/>
        <pt x="381" y="21" on="0"/>
        <pt x="188" y="-64" on="0"/>
        <pt x="68" y="-74" on="1"/>
        <pt x="68" y="104" on="1"/>
        <pt x="135" y="129" on="0"/>
        <pt x="194" y="328" on="0"/>
        <pt x="194" y="488" on="1"/>
        <pt x="194" y="560" on="0"/>
        <pt x="277" y="654" on="0"/>
        <pt x="350" y="692" on="1"/>
        <pt x="278" y="729" on="0"/>
        <pt x="194" y="824" on="0"/>
        <pt x="194" y="894" on="1"/>
        <pt x="194" y="1231" on="0"/>
        <pt x="68" y="1280" on="1"/>
        <pt x="68" y="1458" on="1"/>
        <pt x="191" y="1448" on="0"/>
        <pt x="384" y="1360" on="0"/>
        <pt x="519" y="1215" on="0"/>
        <pt x="590" y="1016" on="0"/>
        <pt x="590" y="894" on="1"/>
        <pt x="590" y="837" on="0"/>
        <pt x="659" y="778" on="0"/>
        <pt x="716" y="772" on="1"/>
      </contour>
    </TTGlyph>
    <TTGlyph name="bracketleft" xMin="119" yMin="0" xMax="845" yMax="1408">
      <contour>
        <pt x="119" y="1408" on="1"/>
        <pt x="845" y="1408" on="1"/>
        <pt x="845" y="1104" on="1"/>
        <pt x="559" y="1104" on="1"/>
        <pt x="559" y="302" on="1"/>
        <pt x="845" y="302" on="1"/>
        <pt x="845" y="0" on="1"/>
        <pt x="119" y="0" on="1"/>
      </contour>
    </TTGlyph>
    <TTGlyph name="bracketright" xMin="70" yMin="0" xMax="796" yMax="1408">
      <contour>
        <pt x="70" y="302" on="1"/>
        <pt x="356" y="302" on="1"/>
        <pt x="356" y="1104" on="1"/>
        <pt x="70" y="1104" on="1"/>
        <pt x="70" y="1408" on="1"/>
        <pt x="796" y="1408" on="1"/>
        <pt x="796" y="0" on="1"/>
        <pt x="70" y="0" on="1"/>
      </contour>
    </TTGlyph>
    <TTGlyph name="breve" xMin="70" yMin="1150" xMax="772" yMax="1500">
      <contour>
        <pt x="772" y="1500" on="1"/>
        <pt x="772" y="1420" on="0"/>
        <pt x="720" y="1291" on="0"/>
        <pt x="627" y="1200" on="0"/>
        <pt x="498" y="1150" on="0"/>
        <pt x="422" y="1150" on="1"/>
        <pt x="344" y="1150" on="0"/>
        <pt x="214" y="1201" on="0"/>
        <pt x="121" y="1294" on="0"/>
        <pt x="70" y="1423" on="0"/>
        <pt x="70" y="1500" on="1"/>
        <pt x="296" y="1500" on="1"/>
        <pt x="296" y="1445" on="0"/>
        <pt x="367" y="1376" on="0"/>
        <pt x="422" y="1376" on="1"/>
        <pt x="477" y="1376" on="0"/>
        <pt x="540" y="1443" on="0"/>
        <pt x="540" y="1500" on="1"/>
      </contour>
    </TTGlyph>
    <TTGlyph name="brokenbar" xMin="121" yMin="0" xMax="317" yMax="1408">
      <contour>
        <pt x="121" y="552" on="1"/>
        <pt x="317" y="552" on="1"/>
        <pt x="317" y="0" on="1"/>
        <pt x="121" y="0" on="1"/>
      </contour>
      <contour>
        <pt x="121" y="1408" on="1"/>
        <pt x="317" y="1408" on="1"/>
        <pt x="317" y="856" on="1"/>
        <pt x="121" y="856" on="1"/>
      </contour>
    </TTGlyph>
    <TTGlyph name="bullet" xMin="67" yMin="114" xMax="969" yMax="946">
      <contour>
        <pt x="67" y="530" on="1"/>
        <pt x="67" y="618" on="0"/>
        <pt x="133" y="770" on="0"/>
        <pt x="252" y="882" on="0"/>
        <pt x="418" y="946" on="0"/>
        <pt x="519" y="946" on="1"/>
        <pt x="617" y="946" on="0"/>
        <pt x="782" y="885" on="0"/>
        <pt x="902" y="775" on="0"/>
        <pt x="969" y="622" on="0"/>
        <pt x="969" y="530" on="1"/>
        <pt x="969" y="431" on="0"/>
        <pt x="896" y="276" on="0"/>
        <pt x="772" y="170" on="0"/>
        <pt x="608" y="114" on="0"/>
        <pt x="517" y="114" on="1"/>
        <pt x="420" y="114" on="0"/>
        <pt x="255" y="175" on="0"/>
        <pt x="135" y="285" on="0"/>
        <pt x="67" y="438" on="0"/>
      </contour>
    </TTGlyph>
    <TTGlyph name="c" xMin="52" yMin="-16" xMax="922" yMax="1041">
      <contour>
        <pt x="882" y="686" on="1"/>
        <pt x="774" y="720" on="0"/>
        <pt x="682" y="720" on="1"/>
        <pt x="635" y="720" on="0"/>
        <pt x="560" y="690" on="0"/>
        <pt x="507" y="636" on="0"/>
        <pt x="478" y="559" on="0"/>
        <pt x="478" y="512" on="1"/>
        <pt x="478" y="465" on="0"/>
        <pt x="507" y="388" on="0"/>
        <pt x="561" y="332" on="0"/>
        <pt x="638" y="302" on="0"/>
        <pt x="686" y="302" on="1"/>
        <pt x="777" y="302" on="0"/>
        <pt x="878" y="336" on="1"/>
        <pt x="918" y="50" on="1"/>
        <pt x="841" y="10" on="0"/>
        <pt x="694" y="-16" on="0"/>
        <pt x="608" y="-16" on="1"/>
        <pt x="487" y="-16" on="0"/>
        <pt x="283" y="60" on="0"/>
        <pt x="135" y="198" on="0"/>
        <pt x="52" y="393" on="0"/>
        <pt x="52" y="512" on="1"/>
        <pt x="52" y="631" on="0"/>
        <pt x="142" y="826" on="0"/>
        <pt x="295" y="965" on="0"/>
        <pt x="497" y="1041" on="0"/>
        <pt x="608" y="1041" on="1"/>
        <pt x="657" y="1041" on="0"/>
        <pt x="736" y="1034" on="0"/>
        <pt x="808" y="1015" on="0"/>
        <pt x="880" y="983" on="0"/>
        <pt x="922" y="958" on="1"/>
      </contour>
    </TTGlyph>
    <TTGlyph name="cacute" xMin="52" yMin="-16" xMax="922" yMax="1818">
      <component glyphName="acute" x="103" y="28" flags="0x4"/>
      <component glyphName="c" x="0" y="0" flags="0x4"/>
    </TTGlyph>
    <TTGlyph name="caron" xMin="48" yMin="1130" xMax="930" yMax="1640">
      <contour>
        <pt x="48" y="1640" on="1"/>
        <pt x="388" y="1640" on="1"/>
        <pt x="466" y="1422" on="1"/>
        <pt x="488" y="1342" on="1"/>
        <pt x="496" y="1369" on="0"/>
        <pt x="523" y="1448" on="0"/>
        <pt x="553" y="1532" on="0"/>
        <pt x="581" y="1612" on="0"/>
        <pt x="590" y="1640" on="1"/>
        <pt x="930" y="1640" on="1"/>
        <pt x="678" y="1130" on="1"/>
        <pt x="300" y="1130" on="1"/>
      </contour>
    </TTGlyph>
    <TTGlyph name="ccaron" xMin="52" yMin="-16" xMax="1049" yMax="1688">
      <component glyphName="caron" x="119" y="48" flags="0x4"/>
      <component glyphName="c" x="0" y="0" flags="0x4"/>
    </TTGlyph>
    <TTGlyph name="ccedilla" xMin="52" yMin="-521" xMax="922" yMax="1041">
      <component glyphName="cedilla" x="323" y="-13" flags="0x4"/>
      <component glyphName="c" x="0" y="0" flags="0x4"/>
    </TTGlyph>
    <TTGlyph name="ccircumflex" xMin="52" yMin="-16" xMax="1049" yMax="1688">
      <component glyphName="circumflex" x="119" y="48" flags="0x4"/>
      <component glyphName="c" x="0" y="0" flags="0x4"/>
    </TTGlyph>
    <TTGlyph name="cdotaccent" xMin="52" yMin="-16" xMax="922" yMax="1592">
      <component glyphName="dotaccent" x="292" y="14" flags="0x4"/>
      <component glyphName="c" x="0" y="0" flags="0x4"/>
    </TTGlyph>
    <TTGlyph name="cedilla" xMin="38" yMin="-508" xMax="514" yMax="0">
      <contour>
        <pt x="290" y="-274" on="1"/>
        <pt x="290" y="-226" on="0"/>
        <pt x="226" y="-180" on="0"/>
        <pt x="172" y="-180" on="1"/>
        <pt x="168" y="-180" on="1"/>
        <pt x="228" y="0" on="1"/>
        <pt x="342" y="0" on="1"/>
        <pt x="302" y="-116" on="1"/>
        <pt x="402" y="-127" on="0"/>
        <pt x="514" y="-207" on="0"/>
        <pt x="514" y="-276" on="1"/>
        <pt x="514" y="-338" on="0"/>
        <pt x="452" y="-426" on="0"/>
        <pt x="362" y="-482" on="0"/>
        <pt x="259" y="-508" on="0"/>
        <pt x="218" y="-508" on="1"/>
        <pt x="129" y="-508" on="0"/>
        <pt x="38" y="-464" on="1"/>
        <pt x="66" y="-388" on="1"/>
        <pt x="119" y="-402" on="0"/>
        <pt x="158" y="-402" on="1"/>
        <pt x="290" y="-402" on="0"/>
      </contour>
    </TTGlyph>
    <TTGlyph name="cent" xMin="52" yMin="-186" xMax="922" yMax="1190">
      <contour>
        <pt x="918" y="50" on="1"/>
        <pt x="887" y="36" on="0"/>
        <pt x="809" y="5" on="0"/>
        <pt x="758" y="-12" on="1"/>
        <pt x="758" y="-186" on="1"/>
        <pt x="624" y="-186" on="1"/>
        <pt x="624" y="-32" on="1"/>
        <pt x="606" y="-32" on="1"/>
        <pt x="486" y="-32" on="0"/>
        <pt x="283" y="49" on="0"/>
        <pt x="135" y="193" on="0"/>
        <pt x="52" y="393" on="0"/>
        <pt x="52" y="512" on="1"/>
        <pt x="52" y="630" on="0"/>
        <pt x="137" y="830" on="0"/>
        <pt x="286" y="975" on="0"/>
        <pt x="488" y="1056" on="0"/>
        <pt x="606" y="1056" on="1"/>
        <pt x="624" y="1056" on="1"/>
        <pt x="624" y="1190" on="1"/>
        <pt x="758" y="1190" on="1"/>
        <pt x="758" y="1034" on="1"/>
        <pt x="849" y="1003" on="0"/>
        <pt x="922" y="958" on="1"/>
        <pt x="880" y="686" on="1"/>
        <pt x="845" y="697" on="0"/>
        <pt x="784" y="710" on="0"/>
        <pt x="758" y="714" on="1"/>
        <pt x="758" y="308" on="1"/>
        <pt x="818" y="314" on="0"/>
        <pt x="876" y="336" on="1"/>
      </contour>
      <contour>
        <pt x="624" y="714" on="1"/>
        <pt x="558" y="698" on="0"/>
        <pt x="478" y="590" on="0"/>
        <pt x="478" y="512" on="1"/>
        <pt x="478" y="473" on="0"/>
        <pt x="500" y="405" on="0"/>
        <pt x="539" y="352" on="0"/>
        <pt x="592" y="317" on="0"/>
        <pt x="624" y="310" on="1"/>
      </contour>
    </TTGlyph>
    <TTGlyph name="circumflex" xMin="48" yMin="1130" xMax="930" yMax="1640">
      <contour>
        <pt x="300" y="1640" on="1"/>
        <pt x="678" y="1640" on="1"/>
        <pt x="930" y="1130" on="1"/>
        <pt x="590" y="1130" on="1"/>
        <pt x="512" y="1348" on="1"/>
        <pt x="488" y="1426" on="1"/>
        <pt x="466" y="1348" on="1"/>
        <pt x="388" y="1130" on="1"/>
        <pt x="48" y="1130" on="1"/>
      </contour>
    </TTGlyph>
    <TTGlyph name="colon" xMin="87" yMin="0" xMax="547" yMax="1028">
      <contour>
        <pt x="87" y="206" on="1"/>
        <pt x="87" y="251" on="0"/>
        <pt x="126" y="328" on="0"/>
        <pt x="191" y="383" on="0"/>
        <pt x="274" y="414" on="0"/>
        <pt x="319" y="414" on="1"/>
        <pt x="367" y="414" on="0"/>
        <pt x="450" y="379" on="0"/>
        <pt x="511" y="322" on="0"/>
        <pt x="547" y="246" on="0"/>
        <pt x="547" y="206" on="1"/>
        <pt x="547" y="161" on="0"/>
        <pt x="509" y="85" on="0"/>
        <pt x="446" y="31" on="0"/>
        <pt x="363" y="0" on="0"/>
        <pt x="319" y="0" on="1"/>
        <pt x="271" y="0" on="0"/>
        <pt x="186" y="32" on="0"/>
        <pt x="123" y="88" on="0"/>
        <pt x="87" y="163" on="0"/>
      </contour>
      <contour>
        <pt x="87" y="820" on="1"/>
        <pt x="87" y="865" on="0"/>
        <pt x="126" y="942" on="0"/>
        <pt x="191" y="997" on="0"/>
        <pt x="274" y="1028" on="0"/>
        <pt x="319" y="1028" on="1"/>
        <pt x="367" y="1028" on="0"/>
        <pt x="450" y="993" on="0"/>
        <pt x="511" y="936" on="0"/>
        <pt x="547" y="860" on="0"/>
        <pt x="547" y="820" on="1"/>
        <pt x="547" y="775" on="0"/>
        <pt x="509" y="699" on="0"/>
        <pt x="446" y="645" on="0"/>
        <pt x="363" y="614" on="0"/>
        <pt x="319" y="614" on="1"/>
        <pt x="271" y="614" on="0"/>
        <pt x="186" y="646" on="0"/>
        <pt x="123" y="702" on="0"/>
        <pt x="87" y="777" on="0"/>
      </contour>
    </TTGlyph>
    <TTGlyph name="comma" xMin="94" yMin="-346" xMax="514" yMax="382">
      <contour>
        <pt x="94" y="-106" on="1"/>
        <pt x="163" y="-106" on="0"/>
        <pt x="239" y="-104" on="0"/>
        <pt x="276" y="-84" on="0"/>
        <pt x="284" y="-41" on="0"/>
        <pt x="284" y="0" on="1"/>
        <pt x="94" y="0" on="1"/>
        <pt x="94" y="382" on="1"/>
        <pt x="514" y="382" on="1"/>
        <pt x="510" y="174" on="1"/>
        <pt x="508" y="64" on="0"/>
        <pt x="496" y="-99" on="0"/>
        <pt x="466" y="-215" on="0"/>
        <pt x="412" y="-288" on="0"/>
        <pt x="321" y="-330" on="0"/>
        <pt x="187" y="-346" on="0"/>
        <pt x="94" y="-346" on="1"/>
      </contour>
    </TTGlyph>
    <TTGlyph name="copyright" xMin="71" yMin="-32" xMax="1355" yMax="1252">
      <contour>
        <pt x="711" y="90" on="1"/>
        <pt x="814" y="90" on="0"/>
        <pt x="997" y="173" on="0"/>
        <pt x="1134" y="315" on="0"/>
        <pt x="1213" y="505" on="0"/>
        <pt x="1213" y="612" on="1"/>
        <pt x="1213" y="728" on="0"/>
        <pt x="1128" y="920" on="0"/>
        <pt x="987" y="1058" on="0"/>
        <pt x="807" y="1134" on="0"/>
        <pt x="711" y="1134" on="1"/>
        <pt x="606" y="1134" on="0"/>
        <pt x="423" y="1052" on="0"/>
        <pt x="287" y="911" on="0"/>
        <pt x="209" y="720" on="0"/>
        <pt x="209" y="612" on="1"/>
        <pt x="209" y="502" on="0"/>
        <pt x="287" y="312" on="0"/>
        <pt x="423" y="171" on="0"/>
        <pt x="606" y="90" on="0"/>
      </contour>
      <contour>
        <pt x="711" y="-32" on="1"/>
        <pt x="444" y="-32" on="0"/>
        <pt x="257" y="160" on="1"/>
        <pt x="71" y="350" on="0"/>
        <pt x="71" y="619" on="1"/>
        <pt x="71" y="759" on="0"/>
        <pt x="174" y="983" on="0"/>
        <pt x="262" y="1068" on="1"/>
        <pt x="301" y="1106" on="0"/>
        <pt x="398" y="1173" on="0"/>
        <pt x="513" y="1223" on="0"/>
        <pt x="644" y="1252" on="0"/>
        <pt x="718" y="1252" on="1"/>
        <pt x="978" y="1252" on="0"/>
        <pt x="1168" y="1062" on="1"/>
        <pt x="1355" y="875" on="0"/>
        <pt x="1355" y="612" on="1"/>
        <pt x="1355" y="347" on="0"/>
        <pt x="1166" y="157" on="1"/>
        <pt x="978" y="-32" on="0"/>
      </contour>
      <contour>
        <pt x="505" y="610" on="1"/>
        <pt x="505" y="492" on="0"/>
        <pt x="631" y="360" on="0"/>
        <pt x="749" y="360" on="1"/>
        <pt x="831" y="360" on="0"/>
        <pt x="939" y="402" on="1"/>
        <pt x="959" y="282" on="1"/>
        <pt x="856" y="230" on="0"/>
        <pt x="735" y="230" on="1"/>
        <pt x="647" y="231" on="0"/>
        <pt x="503" y="285" on="0"/>
        <pt x="401" y="384" on="0"/>
        <pt x="344" y="523" on="0"/>
        <pt x="343" y="610" on="1"/>
        <pt x="343" y="698" on="0"/>
        <pt x="407" y="839" on="0"/>
        <pt x="513" y="937" on="0"/>
        <pt x="653" y="990" on="0"/>
        <pt x="729" y="990" on="1"/>
        <pt x="860" y="990" on="0"/>
        <pt x="961" y="928" on="1"/>
        <pt x="943" y="814" on="1"/>
        <pt x="848" y="862" on="0"/>
        <pt x="751" y="862" on="1"/>
        <pt x="633" y="862" on="0"/>
        <pt x="505" y="728" on="0"/>
      </contour>
    </TTGlyph>
    <TTGlyph name="currency" xMin="74" yMin="141" xMax="1071" yMax="1138">
      <contour>
        <pt x="219" y="378" on="1"/>
        <pt x="121" y="491" on="0"/>
        <pt x="121" y="644" on="1"/>
        <pt x="121" y="720" on="0"/>
        <pt x="169" y="852" on="0"/>
        <pt x="215" y="906" on="1"/>
        <pt x="74" y="1047" on="1"/>
        <pt x="166" y="1138" on="1"/>
        <pt x="315" y="989" on="1"/>
        <pt x="427" y="1056" on="0"/>
        <pt x="568" y="1056" on="1"/>
        <pt x="707" y="1056" on="0"/>
        <pt x="826" y="985" on="1"/>
        <pt x="979" y="1138" on="1"/>
        <pt x="1071" y="1047" on="1"/>
        <pt x="926" y="902" on="1"/>
        <pt x="1020" y="796" on="0"/>
        <pt x="1020" y="644" on="1"/>
        <pt x="1020" y="492" on="0"/>
        <pt x="922" y="382" on="1"/>
        <pt x="1071" y="233" on="1"/>
        <pt x="980" y="141" on="1"/>
        <pt x="819" y="301" on="1"/>
        <pt x="707" y="237" on="0"/>
        <pt x="566" y="237" on="1"/>
        <pt x="428" y="237" on="0"/>
        <pt x="322" y="298" on="1"/>
        <pt x="165" y="141" on="1"/>
        <pt x="74" y="233" on="1"/>
      </contour>
      <contour>
        <pt x="446" y="518" on="1"/>
        <pt x="493" y="471" on="0"/>
        <pt x="569" y="471" on="1"/>
        <pt x="607" y="471" on="0"/>
        <pt x="669" y="497" on="0"/>
        <pt x="714" y="543" on="0"/>
        <pt x="738" y="606" on="0"/>
        <pt x="738" y="644" on="1"/>
        <pt x="738" y="681" on="0"/>
        <pt x="714" y="745" on="0"/>
        <pt x="670" y="791" on="0"/>
        <pt x="608" y="817" on="0"/>
        <pt x="570" y="817" on="1"/>
        <pt x="532" y="817" on="0"/>
        <pt x="470" y="792" on="0"/>
        <pt x="425" y="747" on="0"/>
        <pt x="400" y="683" on="0"/>
        <pt x="400" y="644" on="1"/>
        <pt x="400" y="564" on="0"/>
      </contour>
    </TTGlyph>
    <TTGlyph name="d" xMin="53" yMin="-16" xMax="1321" yMax="1414">
      <contour>
        <pt x="553" y="1041" on="1"/>
        <pt x="669" y="1041" on="0"/>
        <pt x="837" y="945" on="0"/>
        <pt x="889" y="834" on="1"/>
        <pt x="889" y="1350" on="1"/>
        <pt x="1321" y="1414" on="1"/>
        <pt x="1321" y="0" on="1"/>
        <pt x="889" y="0" on="1"/>
        <pt x="889" y="190" on="1"/>
        <pt x="841" y="87" on="0"/>
        <pt x="675" y="-16" on="0"/>
        <pt x="551" y="-16" on="1"/>
        <pt x="444" y="-16" on="0"/>
        <pt x="262" y="71" on="0"/>
        <pt x="129" y="217" on="0"/>
        <pt x="53" y="408" on="0"/>
        <pt x="53" y="512" on="1"/>
        <pt x="53" y="624" on="0"/>
        <pt x="134" y="818" on="0"/>
        <pt x="272" y="960" on="0"/>
        <pt x="453" y="1041" on="0"/>
      </contour>
      <contour>
        <pt x="889" y="520" on="1"/>
        <pt x="887" y="560" on="0"/>
        <pt x="853" y="632" on="0"/>
        <pt x="798" y="685" on="0"/>
        <pt x="726" y="716" on="0"/>
        <pt x="687" y="716" on="1"/>
        <pt x="643" y="716" on="0"/>
        <pt x="568" y="683" on="0"/>
        <pt x="514" y="627" on="0"/>
        <pt x="483" y="553" on="0"/>
        <pt x="483" y="512" on="1"/>
        <pt x="483" y="468" on="0"/>
        <pt x="516" y="394" on="0"/>
        <pt x="572" y="339" on="0"/>
        <pt x="646" y="308" on="0"/>
        <pt x="687" y="308" on="1"/>
        <pt x="730" y="308" on="0"/>
        <pt x="804" y="342" on="0"/>
        <pt x="858" y="398" on="0"/>
        <pt x="889" y="472" on="0"/>
        <pt x="889" y="512" on="1"/>
      </contour>
    </TTGlyph>
    <TTGlyph name="dagger" xMin="48" yMin="0" xMax="672" yMax="1376">
      <contour>
        <pt x="48" y="1027" on="1"/>
        <pt x="294" y="1027" on="1"/>
        <pt x="294" y="1376" on="1"/>
        <pt x="426" y="1376" on="1"/>
        <pt x="426" y="1027" on="1"/>
        <pt x="672" y="1027" on="1"/>
        <pt x="672" y="901" on="1"/>
        <pt x="426" y="901" on="1"/>
        <pt x="426" y="0" on="1"/>
        <pt x="294" y="0" on="1"/>
        <pt x="294" y="901" on="1"/>
        <pt x="48" y="901" on="1"/>
      </contour>
    </TTGlyph>
    <TTGlyph name="daggerdbl" xMin="64" yMin="0" xMax="688" yMax="1376">
      <contour>
        <pt x="64" y="530" on="1"/>
        <pt x="310" y="530" on="1"/>
        <pt x="310" y="901" on="1"/>
        <pt x="64" y="901" on="1"/>
        <pt x="64" y="1027" on="1"/>
        <pt x="310" y="1027" on="1"/>
        <pt x="310" y="1376" on="1"/>
        <pt x="442" y="1376" on="1"/>
        <pt x="442" y="1027" on="1"/>
        <pt x="688" y="1027" on="1"/>
        <pt x="688" y="901" on="1"/>
        <pt x="442" y="901" on="1"/>
        <pt x="442" y="530" on="1"/>
        <pt x="688" y="530" on="1"/>
        <pt x="688" y="406" on="1"/>
        <pt x="442" y="406" on="1"/>
        <pt x="442" y="0" on="1"/>
        <pt x="310" y="0" on="1"/>
        <pt x="310" y="406" on="1"/>
        <pt x="64" y="406" on="1"/>
      </contour>
    </TTGlyph>
    <TTGlyph name="dcaron" xMin="53" yMin="-16" xMax="1924" yMax="1414">
      <component glyphName="comma" x="1410" y="1032" flags="0x4"/>
      <component glyphName="d" x="0" y="0" flags="0x4"/>
    </TTGlyph>
    <TTGlyph name="dcroat" xMin="53" yMin="-32" xMax="1387" yMax="1414">
      <contour>
        <pt x="553" y="1056" on="1"/>
        <pt x="785" y="1056" on="0"/>
        <pt x="889" y="834" on="1"/>
        <pt x="889" y="1106" on="1"/>
        <pt x="747" y="1106" on="1"/>
        <pt x="747" y="1280" on="1"/>
        <pt x="889" y="1280" on="1"/>
        <pt x="889" y="1350" on="1"/>
        <pt x="1321" y="1414" on="1"/>
        <pt x="1321" y="1280" on="1"/>
        <pt x="1387" y="1280" on="1"/>
        <pt x="1387" y="1106" on="1"/>
        <pt x="1321" y="1106" on="1"/>
        <pt x="1321" y="0" on="1"/>
        <pt x="889" y="0" on="1"/>
        <pt x="889" y="190" on="1"/>
        <pt x="841" y="88" on="0"/>
        <pt x="673" y="-32" on="0"/>
        <pt x="551" y="-32" on="1"/>
        <pt x="361" y="-32" on="0"/>
        <pt x="212" y="117" on="1"/>
        <pt x="53" y="276" on="0"/>
        <pt x="53" y="512" on="1"/>
        <pt x="53" y="625" on="0"/>
        <pt x="134" y="823" on="0"/>
        <pt x="272" y="971" on="0"/>
        <pt x="453" y="1056" on="0"/>
      </contour>
      <contour>
        <pt x="889" y="520" on="1"/>
        <pt x="887" y="560" on="0"/>
        <pt x="853" y="632" on="0"/>
        <pt x="798" y="685" on="0"/>
        <pt x="726" y="716" on="0"/>
        <pt x="687" y="716" on="1"/>
        <pt x="643" y="716" on="0"/>
        <pt x="568" y="683" on="0"/>
        <pt x="514" y="627" on="0"/>
        <pt x="483" y="553" on="0"/>
        <pt x="483" y="512" on="1"/>
        <pt x="483" y="468" on="0"/>
        <pt x="516" y="394" on="0"/>
        <pt x="572" y="339" on="0"/>
        <pt x="646" y="308" on="0"/>
        <pt x="687" y="308" on="1"/>
        <pt x="730" y="308" on="0"/>
        <pt x="804" y="342" on="0"/>
        <pt x="858" y="398" on="0"/>
        <pt x="889" y="472" on="0"/>
        <pt x="889" y="512" on="1"/>
      </contour>
    </TTGlyph>
    <TTGlyph name="degree" xMin="69" yMin="331" xMax="1208" yMax="1421">
      <contour>
        <pt x="909" y="878" on="1"/>
        <pt x="909" y="945" on="0"/>
        <pt x="867" y="1052" on="0"/>
        <pt x="794" y="1127" on="0"/>
        <pt x="696" y="1166" on="0"/>
        <pt x="641" y="1166" on="1"/>
        <pt x="579" y="1166" on="0"/>
        <pt x="480" y="1122" on="0"/>
        <pt x="410" y="1045" on="0"/>
        <pt x="372" y="939" on="0"/>
        <pt x="372" y="878" on="1"/>
        <pt x="372" y="813" on="0"/>
        <pt x="412" y="707" on="0"/>
        <pt x="483" y="631" on="0"/>
        <pt x="582" y="589" on="0"/>
        <pt x="641" y="589" on="1"/>
        <pt x="701" y="589" on="0"/>
        <pt x="800" y="632" on="0"/>
        <pt x="871" y="708" on="0"/>
        <pt x="909" y="815" on="0"/>
      </contour>
      <contour>
        <pt x="662" y="1421" on="1"/>
        <pt x="786" y="1421" on="0"/>
        <pt x="988" y="1340" on="0"/>
        <pt x="1130" y="1197" on="0"/>
        <pt x="1208" y="1000" on="0"/>
        <pt x="1208" y="884" on="1"/>
        <pt x="1208" y="764" on="0"/>
        <pt x="1126" y="561" on="0"/>
        <pt x="977" y="414" on="0"/>
        <pt x="767" y="331" on="0"/>
        <pt x="639" y="331" on="1"/>
        <pt x="519" y="331" on="0"/>
        <pt x="311" y="408" on="0"/>
        <pt x="157" y="550" on="0"/>
        <pt x="69" y="751" on="0"/>
        <pt x="69" y="876" on="1"/>
        <pt x="69" y="996" on="0"/>
        <pt x="152" y="1197" on="0"/>
        <pt x="303" y="1341" on="0"/>
        <pt x="513" y="1421" on="0"/>
        <pt x="641" y="1421" on="1"/>
      </contour>
    </TTGlyph>
    <TTGlyph name="dieresis" xMin="84" yMin="1122" xMax="1162" yMax="1536">
      <contour>
        <pt x="702" y="1328" on="1"/>
        <pt x="702" y="1374" on="0"/>
        <pt x="742" y="1450" on="0"/>
        <pt x="807" y="1505" on="0"/>
        <pt x="890" y="1536" on="0"/>
        <pt x="934" y="1536" on="1"/>
        <pt x="986" y="1536" on="0"/>
        <pt x="1070" y="1499" on="0"/>
        <pt x="1130" y="1439" on="0"/>
        <pt x="1162" y="1365" on="0"/>
        <pt x="1162" y="1328" on="1"/>
        <pt x="1162" y="1283" on="0"/>
        <pt x="1124" y="1207" on="0"/>
        <pt x="1061" y="1153" on="0"/>
        <pt x="978" y="1122" on="0"/>
        <pt x="934" y="1122" on="1"/>
        <pt x="882" y="1122" on="0"/>
        <pt x="797" y="1156" on="0"/>
        <pt x="736" y="1213" on="0"/>
        <pt x="702" y="1287" on="0"/>
      </contour>
      <contour>
        <pt x="84" y="1328" on="1"/>
        <pt x="84" y="1372" on="0"/>
        <pt x="122" y="1448" on="0"/>
        <pt x="186" y="1504" on="0"/>
        <pt x="269" y="1536" on="0"/>
        <pt x="314" y="1536" on="1"/>
        <pt x="362" y="1536" on="0"/>
        <pt x="445" y="1502" on="0"/>
        <pt x="508" y="1444" on="0"/>
        <pt x="544" y="1369" on="0"/>
        <pt x="544" y="1328" on="1"/>
        <pt x="544" y="1282" on="0"/>
        <pt x="505" y="1206" on="0"/>
        <pt x="441" y="1152" on="0"/>
        <pt x="358" y="1122" on="0"/>
        <pt x="314" y="1122" on="1"/>
        <pt x="266" y="1122" on="0"/>
        <pt x="183" y="1154" on="0"/>
        <pt x="120" y="1209" on="0"/>
        <pt x="84" y="1284" on="0"/>
      </contour>
    </TTGlyph>
    <TTGlyph name="divide" xMin="50" yMin="20" xMax="876" yMax="1028">
      <contour>
        <pt x="50" y="580" on="1"/>
        <pt x="876" y="580" on="1"/>
        <pt x="876" y="466" on="1"/>
        <pt x="50" y="466" on="1"/>
      </contour>
      <contour>
        <pt x="259" y="200" on="1"/>
        <pt x="259" y="240" on="0"/>
        <pt x="293" y="307" on="0"/>
        <pt x="349" y="355" on="0"/>
        <pt x="423" y="382" on="0"/>
        <pt x="462" y="382" on="1"/>
        <pt x="503" y="382" on="0"/>
        <pt x="576" y="353" on="0"/>
        <pt x="630" y="303" on="0"/>
        <pt x="662" y="237" on="0"/>
        <pt x="662" y="200" on="1"/>
        <pt x="662" y="161" on="0"/>
        <pt x="630" y="95" on="0"/>
        <pt x="575" y="47" on="0"/>
        <pt x="502" y="20" on="0"/>
        <pt x="462" y="20" on="1"/>
        <pt x="420" y="20" on="0"/>
        <pt x="346" y="48" on="0"/>
        <pt x="291" y="97" on="0"/>
        <pt x="259" y="162" on="0"/>
      </contour>
      <contour>
        <pt x="259" y="846" on="1"/>
        <pt x="259" y="885" on="0"/>
        <pt x="293" y="952" on="0"/>
        <pt x="350" y="1000" on="0"/>
        <pt x="423" y="1028" on="0"/>
        <pt x="462" y="1028" on="1"/>
        <pt x="503" y="1028" on="0"/>
        <pt x="576" y="998" on="0"/>
        <pt x="630" y="948" on="0"/>
        <pt x="662" y="882" on="0"/>
        <pt x="662" y="846" on="1"/>
        <pt x="662" y="807" on="0"/>
        <pt x="630" y="741" on="0"/>
        <pt x="575" y="693" on="0"/>
        <pt x="502" y="666" on="0"/>
        <pt x="462" y="666" on="1"/>
        <pt x="418" y="666" on="0"/>
        <pt x="344" y="694" on="0"/>
        <pt x="290" y="743" on="0"/>
        <pt x="259" y="808" on="0"/>
      </contour>
    </TTGlyph>
    <TTGlyph name="dollar" xMin="64" yMin="-186" xMax="1108" yMax="1576">
      <contour>
        <pt x="64" y="976" on="1"/>
        <pt x="64" y="1074" on="0"/>
        <pt x="121" y="1223" on="0"/>
        <pt x="226" y="1329" on="0"/>
        <pt x="376" y="1392" on="0"/>
        <pt x="470" y="1404" on="1"/>
        <pt x="470" y="1576" on="1"/>
        <pt x="676" y="1576" on="1"/>
        <pt x="676" y="1410" on="1"/>
        <pt x="860" y="1394" on="0"/>
        <pt x="1028" y="1290" on="1"/>
        <pt x="924" y="1056" on="1"/>
        <pt x="812" y="1092" on="1"/>
        <pt x="777" y="1103" on="0"/>
        <pt x="709" y="1119" on="0"/>
        <pt x="676" y="1124" on="1"/>
        <pt x="676" y="836" on="1"/>
        <pt x="778" y="801" on="0"/>
        <pt x="939" y="715" on="0"/>
        <pt x="1050" y="605" on="0"/>
        <pt x="1108" y="464" on="0"/>
        <pt x="1108" y="374" on="1"/>
        <pt x="1108" y="303" on="0"/>
        <pt x="1046" y="167" on="0"/>
        <pt x="933" y="57" on="0"/>
        <pt x="773" y="-14" on="0"/>
        <pt x="676" y="-20" on="1"/>
        <pt x="676" y="-186" on="1"/>
        <pt x="470" y="-186" on="1"/>
        <pt x="470" y="-30" on="1"/>
        <pt x="232" y="-8" on="0"/>
        <pt x="84" y="88" on="1"/>
        <pt x="186" y="334" on="1"/>
        <pt x="274" y="305" on="0"/>
        <pt x="416" y="272" on="0"/>
        <pt x="470" y="270" on="1"/>
        <pt x="470" y="540" on="1"/>
        <pt x="384" y="561" on="0"/>
        <pt x="237" y="625" on="0"/>
        <pt x="129" y="727" on="0"/>
        <pt x="66" y="873" on="0"/>
      </contour>
      <contour>
        <pt x="470" y="1102" on="1"/>
        <pt x="432" y="1083" on="0"/>
        <pt x="390" y="1037" on="0"/>
        <pt x="390" y="998" on="1"/>
        <pt x="390" y="956" on="0"/>
        <pt x="428" y="911" on="0"/>
        <pt x="470" y="894" on="1"/>
      </contour>
      <contour>
        <pt x="676" y="290" on="1"/>
        <pt x="697" y="298" on="0"/>
        <pt x="731" y="314" on="0"/>
        <pt x="755" y="336" on="0"/>
        <pt x="768" y="365" on="0"/>
        <pt x="768" y="386" on="1"/>
        <pt x="768" y="417" on="0"/>
        <pt x="713" y="464" on="0"/>
        <pt x="676" y="474" on="1"/>
      </contour>
    </TTGlyph>
    <TTGlyph name="dotaccent" xMin="86" yMin="1164" xMax="546" yMax="1578">
      <contour>
        <pt x="86" y="1372" on="1"/>
        <pt x="86" y="1417" on="0"/>
        <pt x="125" y="1493" on="0"/>
        <pt x="189" y="1547" on="0"/>
        <pt x="272" y="1578" on="0"/>
        <pt x="316" y="1578" on="1"/>
        <pt x="362" y="1578" on="0"/>
        <pt x="446" y="1545" on="0"/>
        <pt x="509" y="1488" on="0"/>
        <pt x="546" y="1414" on="0"/>
        <pt x="546" y="1372" on="1"/>
        <pt x="546" y="1325" on="0"/>
        <pt x="507" y="1249" on="0"/>
        <pt x="443" y="1194" on="0"/>
        <pt x="360" y="1164" on="0"/>
        <pt x="316" y="1164" on="1"/>
        <pt x="268" y="1164" on="0"/>
        <pt x="184" y="1196" on="0"/>
        <pt x="122" y="1252" on="0"/>
        <pt x="86" y="1328" on="0"/>
      </contour>
    </TTGlyph>
    <TTGlyph name="dotlessi" xMin="99" yMin="-32" xMax="731" yMax="1026">
      <contour>
        <pt x="731" y="38" on="1"/>
        <pt x="610" y="-32" on="0"/>
        <pt x="463" y="-32" on="1"/>
        <pt x="376" y="-32" on="0"/>
        <pt x="240" y="26" on="0"/>
        <pt x="147" y="133" on="0"/>
        <pt x="99" y="285" on="0"/>
        <pt x="99" y="378" on="1"/>
        <pt x="99" y="1026" on="1"/>
        <pt x="533" y="1026" on="1"/>
        <pt x="533" y="398" on="1"/>
        <pt x="533" y="349" on="0"/>
        <pt x="585" y="300" on="0"/>
        <pt x="625" y="300" on="1"/>
        <pt x="665" y="300" on="0"/>
        <pt x="709" y="324" on="1"/>
      </contour>
    </TTGlyph>
    <TTGlyph name="dotlessj" xMin="-265" yMin="-442" xMax="539" yMax="1026">
      <contour>
        <pt x="-29" y="-110" on="1"/>
        <pt x="107" y="-110" on="0"/>
        <pt x="107" y="60" on="1"/>
        <pt x="107" y="1026" on="1"/>
        <pt x="539" y="1026" on="1"/>
        <pt x="539" y="60" on="1"/>
        <pt x="539" y="-57" on="0"/>
        <pt x="476" y="-243" on="0"/>
        <pt x="359" y="-373" on="0"/>
        <pt x="191" y="-442" on="0"/>
        <pt x="85" y="-442" on="1"/>
        <pt x="-103" y="-442" on="0"/>
        <pt x="-265" y="-334" on="1"/>
        <pt x="-171" y="-80" on="1"/>
        <pt x="-77" y="-110" on="0"/>
      </contour>
    </TTGlyph>
    <TTGlyph name="e" xMin="52" yMin="-16" xMax="1092" yMax="1041">
      <contour>
        <pt x="698" y="271" on="1"/>
        <pt x="838" y="271" on="0"/>
        <pt x="1000" y="343" on="1"/>
        <pt x="1050" y="68" on="1"/>
        <pt x="864" y="-16" on="0"/>
        <pt x="632" y="-16" on="1"/>
        <pt x="503" y="-16" on="0"/>
        <pt x="290" y="63" on="0"/>
        <pt x="137" y="204" on="0"/>
        <pt x="52" y="398" on="0"/>
        <pt x="52" y="512" on="1"/>
        <pt x="52" y="632" on="0"/>
        <pt x="141" y="827" on="0"/>
        <pt x="295" y="966" on="0"/>
        <pt x="501" y="1041" on="0"/>
        <pt x="618" y="1041" on="1"/>
        <pt x="736" y="1041" on="0"/>
        <pt x="914" y="962" on="0"/>
        <pt x="1033" y="825" on="0"/>
        <pt x="1092" y="642" on="0"/>
        <pt x="1092" y="538" on="1"/>
        <pt x="1092" y="524" on="0"/>
        <pt x="1090" y="498" on="0"/>
        <pt x="1088" y="486" on="1"/>
        <pt x="474" y="406" on="1"/>
        <pt x="498" y="334" on="0"/>
        <pt x="610" y="271" on="0"/>
      </contour>
      <contour>
        <pt x="774" y="664" on="1"/>
        <pt x="739" y="792" on="0"/>
        <pt x="618" y="792" on="1"/>
        <pt x="580" y="792" on="0"/>
        <pt x="520" y="762" on="0"/>
        <pt x="479" y="709" on="0"/>
        <pt x="457" y="636" on="0"/>
        <pt x="456" y="594" on="1"/>
      </contour>
    </TTGlyph>
    <TTGlyph name="eacute" xMin="52" yMin="-16" xMax="1092" yMax="1818">
      <component glyphName="acute" x="242" y="28" flags="0x4"/>
      <component glyphName="e" x="0" y="0" flags="0x4"/>
    </TTGlyph>
    <TTGlyph name="ebreve" xMin="52" yMin="-16" xMax="1092" yMax="1528">
      <component glyphName="breve" x="197" y="28" flags="0x4"/>
      <component glyphName="e" x="0" y="0" flags="0x4"/>
    </TTGlyph>
    <TTGlyph name="ecaron" xMin="52" yMin="-16" xMax="1092" yMax="1688">
      <component glyphName="caron" x="129" y="48" flags="0x4"/>
      <component glyphName="e" x="0" y="0" flags="0x4"/>
    </TTGlyph>
    <TTGlyph name="ecircumflex" xMin="52" yMin="-16" xMax="1092" yMax="1688">
      <component glyphName="circumflex" x="129" y="48" flags="0x4"/>
      <component glyphName="e" x="0" y="0" flags="0x4"/>
    </TTGlyph>
    <TTGlyph name="edieresis" xMin="52" yMin="-16" xMax="1159" yMax="1592">
      <component glyphName="dieresis" x="-3" y="56" flags="0x4"/>
      <component glyphName="e" x="0" y="0" flags="0x4"/>
    </TTGlyph>
    <TTGlyph name="edotaccent" xMin="52" yMin="-16" xMax="1092" yMax="1592">
      <component glyphName="dotaccent" x="302" y="14" flags="0x4"/>
      <component glyphName="e" x="0" y="0" flags="0x4"/>
    </TTGlyph>
    <TTGlyph name="egrave" xMin="52" yMin="-16" xMax="1092" yMax="1818">
      <component glyphName="grave" x="125" y="28" flags="0x4"/>
      <component glyphName="e" x="0" y="0" flags="0x4"/>
    </TTGlyph>
    <TTGlyph name="eight" xMin="61" yMin="-27" xMax="1221" yMax="1389">
      <contour>
        <pt x="105" y="206" on="1"/>
        <pt x="61" y="283" on="0"/>
        <pt x="61" y="384" on="1"/>
        <pt x="61" y="453" on="0"/>
        <pt x="102" y="553" on="0"/>
        <pt x="172" y="626" on="0"/>
        <pt x="262" y="677" on="0"/>
        <pt x="312" y="697" on="1"/>
        <pt x="319" y="701" on="1"/>
        <pt x="313" y="706" on="1"/>
        <pt x="163" y="829" on="0"/>
        <pt x="163" y="1032" on="1"/>
        <pt x="163" y="1110" on="0"/>
        <pt x="232" y="1241" on="0"/>
        <pt x="358" y="1336" on="0"/>
        <pt x="534" y="1389" on="0"/>
        <pt x="641" y="1389" on="1"/>
        <pt x="739" y="1389" on="0"/>
        <pt x="912" y="1347" on="0"/>
        <pt x="1042" y="1266" on="0"/>
        <pt x="1117" y="1148" on="0"/>
        <pt x="1117" y="1072" on="1"/>
        <pt x="1117" y="1018" on="0"/>
        <pt x="1092" y="934" on="0"/>
        <pt x="1049" y="870" on="0"/>
        <pt x="989" y="821" on="0"/>
        <pt x="954" y="802" on="1"/>
        <pt x="946" y="798" on="1"/>
        <pt x="954" y="794" on="1"/>
        <pt x="1007" y="765" on="0"/>
        <pt x="1104" y="695" on="0"/>
        <pt x="1177" y="604" on="0"/>
        <pt x="1221" y="484" on="0"/>
        <pt x="1221" y="406" on="1"/>
        <pt x="1221" y="292" on="0"/>
        <pt x="1129" y="128" on="0"/>
        <pt x="971" y="23" on="0"/>
        <pt x="761" y="-27" on="0"/>
        <pt x="643" y="-27" on="1"/>
        <pt x="548" y="-27" on="0"/>
        <pt x="381" y="3" on="0"/>
        <pt x="244" y="61" on="0"/>
        <pt x="138" y="149" on="0"/>
      </contour>
      <contour>
        <pt x="537" y="574" on="1"/>
        <pt x="535" y="572" on="1"/>
        <pt x="504" y="540" on="0"/>
        <pt x="471" y="460" on="0"/>
        <pt x="471" y="406" on="1"/>
        <pt x="471" y="371" on="0"/>
        <pt x="497" y="316" on="0"/>
        <pt x="544" y="277" on="0"/>
        <pt x="607" y="257" on="0"/>
        <pt x="645" y="257" on="1"/>
        <pt x="682" y="257" on="0"/>
        <pt x="746" y="271" on="0"/>
        <pt x="792" y="298" on="0"/>
        <pt x="819" y="338" on="0"/>
        <pt x="819" y="364" on="1"/>
        <pt x="819" y="395" on="0"/>
        <pt x="788" y="447" on="0"/>
        <pt x="734" y="489" on="0"/>
        <pt x="662" y="524" on="0"/>
        <pt x="622" y="539" on="1"/>
        <pt x="578" y="557" on="1"/>
        <pt x="562" y="564" on="0"/>
        <pt x="543" y="572" on="0"/>
        <pt x="540" y="573" on="1"/>
      </contour>
      <contour>
        <pt x="794" y="1020" on="1"/>
        <pt x="794" y="1092" on="0"/>
        <pt x="715" y="1167" on="0"/>
        <pt x="643" y="1167" on="1"/>
        <pt x="613" y="1167" on="0"/>
        <pt x="556" y="1157" on="0"/>
        <pt x="512" y="1132" on="0"/>
        <pt x="486" y="1091" on="0"/>
        <pt x="486" y="1060" on="1"/>
        <pt x="486" y="1031" on="0"/>
        <pt x="510" y="985" on="0"/>
        <pt x="567" y="941" on="0"/>
        <pt x="660" y="898" on="0"/>
        <pt x="728" y="873" on="1"/>
        <pt x="731" y="872" on="1"/>
        <pt x="733" y="874" on="1"/>
        <pt x="794" y="932" on="0"/>
      </contour>
    </TTGlyph>
    <TTGlyph name="ellipsis" xMin="58" yMin="-32" xMax="1780" yMax="382">
      <contour>
        <pt x="58" y="176" on="1"/>
        <pt x="58" y="221" on="0"/>
        <pt x="97" y="297" on="0"/>
        <pt x="161" y="351" on="0"/>
        <pt x="244" y="382" on="0"/>
        <pt x="288" y="382" on="1"/>
        <pt x="334" y="382" on="0"/>
        <pt x="418" y="349" on="0"/>
        <pt x="481" y="292" on="0"/>
        <pt x="518" y="218" on="0"/>
        <pt x="518" y="176" on="1"/>
        <pt x="518" y="129" on="0"/>
        <pt x="479" y="53" on="0"/>
        <pt x="415" y="-2" on="0"/>
        <pt x="332" y="-32" on="0"/>
        <pt x="288" y="-32" on="1"/>
        <pt x="240" y="-32" on="0"/>
        <pt x="156" y="0" on="0"/>
        <pt x="94" y="56" on="0"/>
        <pt x="58" y="132" on="0"/>
      </contour>
      <contour>
        <pt x="688" y="176" on="1"/>
        <pt x="688" y="221" on="0"/>
        <pt x="727" y="297" on="0"/>
        <pt x="792" y="352" on="0"/>
        <pt x="875" y="382" on="0"/>
        <pt x="920" y="382" on="1"/>
        <pt x="966" y="382" on="0"/>
        <pt x="1050" y="349" on="0"/>
        <pt x="1113" y="292" on="0"/>
        <pt x="1150" y="218" on="0"/>
        <pt x="1150" y="176" on="1"/>
        <pt x="1150" y="129" on="0"/>
        <pt x="1111" y="53" on="0"/>
        <pt x="1047" y="-2" on="0"/>
        <pt x="964" y="-32" on="0"/>
        <pt x="920" y="-32" on="1"/>
        <pt x="871" y="-32" on="0"/>
        <pt x="787" y="0" on="0"/>
        <pt x="724" y="56" on="0"/>
        <pt x="688" y="132" on="0"/>
      </contour>
      <contour>
        <pt x="1320" y="176" on="1"/>
        <pt x="1320" y="221" on="0"/>
        <pt x="1358" y="297" on="0"/>
        <pt x="1422" y="352" on="0"/>
        <pt x="1505" y="382" on="0"/>
        <pt x="1550" y="382" on="1"/>
        <pt x="1596" y="382" on="0"/>
        <pt x="1680" y="349" on="0"/>
        <pt x="1743" y="293" on="0"/>
        <pt x="1780" y="218" on="0"/>
        <pt x="1780" y="176" on="1"/>
        <pt x="1780" y="129" on="0"/>
        <pt x="1742" y="53" on="0"/>
        <pt x="1678" y="-2" on="0"/>
        <pt x="1595" y="-32" on="0"/>
        <pt x="1550" y="-32" on="1"/>
        <pt x="1502" y="-32" on="0"/>
        <pt x="1418" y="0" on="0"/>
        <pt x="1356" y="56" on="0"/>
        <pt x="1320" y="132" on="0"/>
      </contour>
    </TTGlyph>
    <TTGlyph name="emacron" xMin="52" yMin="-16" xMax="1092" yMax="1420">
      <component glyphName="hyphen" x="248" y="770" flags="0x4"/>
      <component glyphName="e" x="0" y="0" flags="0x4"/>
    </TTGlyph>
    <TTGlyph name="emdash" xMin="97" yMin="302" xMax="1147" yMax="476">
      <contour>
        <pt x="97" y="476" on="1"/>
        <pt x="1147" y="476" on="1"/>
        <pt x="1147" y="302" on="1"/>
        <pt x="97" y="302" on="1"/>
      </contour>
    </TTGlyph>
    <TTGlyph name="endash" xMin="97" yMin="302" xMax="876" yMax="476">
      <contour>
        <pt x="97" y="476" on="1"/>
        <pt x="876" y="476" on="1"/>
        <pt x="876" y="302" on="1"/>
        <pt x="97" y="302" on="1"/>
      </contour>
    </TTGlyph>
    <TTGlyph name="eng" xMin="102" yMin="-504" xMax="1310" yMax="1056">
      <contour>
        <pt x="742" y="-170" on="1"/>
        <pt x="880" y="-170" on="0"/>
        <pt x="880" y="0" on="1"/>
        <pt x="880" y="512" on="1"/>
        <pt x="880" y="551" on="0"/>
        <pt x="858" y="625" on="0"/>
        <pt x="820" y="682" on="0"/>
        <pt x="767" y="716" on="0"/>
        <pt x="736" y="716" on="1"/>
        <pt x="694" y="716" on="0"/>
        <pt x="621" y="684" on="0"/>
        <pt x="567" y="630" on="0"/>
        <pt x="535" y="559" on="0"/>
        <pt x="534" y="520" on="1"/>
        <pt x="534" y="0" on="1"/>
        <pt x="102" y="0" on="1"/>
        <pt x="102" y="990" on="1"/>
        <pt x="534" y="1056" on="1"/>
        <pt x="534" y="802" on="1"/>
        <pt x="588" y="922" on="0"/>
        <pt x="769" y="1056" on="0"/>
        <pt x="890" y="1056" on="1"/>
        <pt x="980" y="1056" on="0"/>
        <pt x="1134" y="972" on="0"/>
        <pt x="1247" y="825" on="0"/>
        <pt x="1310" y="627" on="0"/>
        <pt x="1310" y="512" on="1"/>
        <pt x="1310" y="0" on="1"/>
        <pt x="1310" y="-117" on="0"/>
        <pt x="1249" y="-304" on="0"/>
        <pt x="1132" y="-434" on="0"/>
        <pt x="964" y="-504" on="0"/>
        <pt x="858" y="-504" on="1"/>
        <pt x="670" y="-504" on="0"/>
        <pt x="508" y="-396" on="1"/>
        <pt x="602" y="-142" on="1"/>
        <pt x="683" y="-170" on="0"/>
      </contour>
    </TTGlyph>
    <TTGlyph name="eogonek" xMin="52" yMin="-521" xMax="1092" yMax="1041">
      <component glyphName="ogonek" x="214" y="-13" flags="0x4"/>
      <component glyphName="e" x="0" y="0" flags="0x4"/>
    </TTGlyph>
    <TTGlyph name="equal" xMin="107" yMin="318" xMax="731" yMax="720">
      <contour>
        <pt x="107" y="442" on="1"/>
        <pt x="731" y="442" on="1"/>
        <pt x="731" y="318" on="1"/>
        <pt x="107" y="318" on="1"/>
      </contour>
      <contour>
        <pt x="107" y="720" on="1"/>
        <pt x="731" y="720" on="1"/>
        <pt x="731" y="594" on="1"/>
        <pt x="107" y="594" on="1"/>
      </contour>
    </TTGlyph>
    <TTGlyph name="eth" xMin="33" yMin="-32" xMax="1293" yMax="1440">
      <contour>
        <pt x="1170" y="1103" on="1"/>
        <pt x="1262" y="924" on="0"/>
        <pt x="1262" y="690" on="1"/>
        <pt x="1262" y="526" on="0"/>
        <pt x="1171" y="260" on="0"/>
        <pt x="1006" y="71" on="0"/>
        <pt x="774" y="-32" on="0"/>
        <pt x="632" y="-32" on="1"/>
        <pt x="497" y="-32" on="0"/>
        <pt x="276" y="38" on="0"/>
        <pt x="119" y="164" on="0"/>
        <pt x="33" y="339" on="0"/>
        <pt x="33" y="444" on="1"/>
        <pt x="33" y="549" on="0"/>
        <pt x="105" y="711" on="0"/>
        <pt x="237" y="822" on="0"/>
        <pt x="424" y="880" on="0"/>
        <pt x="540" y="880" on="1"/>
        <pt x="695" y="880" on="0"/>
        <pt x="808" y="788" on="1"/>
        <pt x="793" y="897" on="0"/>
        <pt x="762" y="958" on="1"/>
        <pt x="615" y="906" on="1"/>
        <pt x="569" y="1021" on="1"/>
        <pt x="674" y="1058" on="1"/>
        <pt x="631" y="1080" on="0"/>
        <pt x="580" y="1080" on="1"/>
        <pt x="451" y="1080" on="0"/>
        <pt x="240" y="1026" on="1"/>
        <pt x="132" y="1330" on="1"/>
        <pt x="390" y="1440" on="0"/>
        <pt x="632" y="1440" on="1"/>
        <pt x="925" y="1440" on="0"/>
        <pt x="1102" y="1210" on="1"/>
        <pt x="1247" y="1262" on="1"/>
        <pt x="1293" y="1147" on="1"/>
      </contour>
      <contour>
        <pt x="632" y="302" on="1"/>
        <pt x="676" y="302" on="0"/>
        <pt x="737" y="344" on="0"/>
        <pt x="777" y="416" on="0"/>
        <pt x="800" y="511" on="0"/>
        <pt x="806" y="564" on="1"/>
        <pt x="725" y="594" on="0"/>
        <pt x="622" y="594" on="1"/>
        <pt x="588" y="594" on="0"/>
        <pt x="529" y="573" on="0"/>
        <pt x="485" y="534" on="0"/>
        <pt x="460" y="478" on="0"/>
        <pt x="460" y="444" on="1"/>
        <pt x="460" y="411" on="0"/>
        <pt x="486" y="358" on="0"/>
        <pt x="531" y="321" on="0"/>
        <pt x="594" y="302" on="0"/>
      </contour>
    </TTGlyph>
    <TTGlyph name="exclam" xMin="86" yMin="-32" xMax="548" yMax="1414">
      <contour>
        <pt x="94" y="1096" on="1"/>
        <pt x="94" y="1414" on="1"/>
        <pt x="526" y="1414" on="1"/>
        <pt x="526" y="1096" on="1"/>
        <pt x="446" y="516" on="1"/>
        <pt x="176" y="516" on="1"/>
      </contour>
      <contour>
        <pt x="86" y="176" on="1"/>
        <pt x="86" y="222" on="0"/>
        <pt x="124" y="298" on="0"/>
        <pt x="189" y="352" on="0"/>
        <pt x="273" y="382" on="0"/>
        <pt x="318" y="382" on="1"/>
        <pt x="364" y="382" on="0"/>
        <pt x="448" y="350" on="0"/>
        <pt x="511" y="294" on="0"/>
        <pt x="548" y="219" on="0"/>
        <pt x="548" y="176" on="1"/>
        <pt x="548" y="131" on="0"/>
        <pt x="509" y="54" on="0"/>
        <pt x="445" y="-1" on="0"/>
        <pt x="362" y="-32" on="0"/>
        <pt x="318" y="-32" on="1"/>
        <pt x="270" y="-32" on="0"/>
        <pt x="185" y="0" on="0"/>
        <pt x="122" y="57" on="0"/>
        <pt x="86" y="132" on="0"/>
      </contour>
    </TTGlyph>
    <TTGlyph name="exclamdown" xMin="87" yMin="0" xMax="549" yMax="1445">
      <component glyphName="exclam" x="1" y="1414" scalex="1.0" scaley="-0.999877929688" flags="0x4"/>
    </TTGlyph>
    <TTGlyph name="f" xMin="52" yMin="0" xMax="888" yMax="1572">
      <contour>
        <pt x="676" y="1264" on="1"/>
        <pt x="616" y="1264" on="0"/>
        <pt x="549" y="1205" on="0"/>
        <pt x="549" y="1148" on="1"/>
        <pt x="549" y="1094" on="0"/>
        <pt x="584" y="1026" on="1"/>
        <pt x="870" y="1026" on="1"/>
        <pt x="870" y="772" on="1"/>
        <pt x="612" y="772" on="1"/>
        <pt x="612" y="0" on="1"/>
        <pt x="180" y="0" on="1"/>
        <pt x="180" y="772" on="1"/>
        <pt x="52" y="772" on="1"/>
        <pt x="52" y="1026" on="1"/>
        <pt x="180" y="1026" on="1"/>
        <pt x="180" y="1169" on="0"/>
        <pt x="221" y="1375" on="0"/>
        <pt x="311" y="1509" on="0"/>
        <pt x="453" y="1572" on="0"/>
        <pt x="554" y="1572" on="1"/>
        <pt x="712" y="1572" on="0"/>
        <pt x="888" y="1494" on="1"/>
        <pt x="874" y="1216" on="1"/>
        <pt x="757" y="1264" on="0"/>
      </contour>
    </TTGlyph>
    <TTGlyph name="fi" xMin="52" yMin="-32" xMax="1716" yMax="1572">
      <contour>
        <pt x="1716" y="38" on="1"/>
        <pt x="1595" y="-32" on="0"/>
        <pt x="1448" y="-32" on="1"/>
        <pt x="1361" y="-32" on="0"/>
        <pt x="1227" y="26" on="0"/>
        <pt x="1134" y="133" on="0"/>
        <pt x="1086" y="285" on="0"/>
        <pt x="1086" y="378" on="1"/>
        <pt x="1086" y="772" on="1"/>
        <pt x="612" y="772" on="1"/>
        <pt x="612" y="0" on="1"/>
        <pt x="180" y="0" on="1"/>
        <pt x="180" y="772" on="1"/>
        <pt x="52" y="772" on="1"/>
        <pt x="52" y="1026" on="1"/>
        <pt x="180" y="1026" on="1"/>
        <pt x="180" y="1136" on="1"/>
        <pt x="180" y="1343" on="0"/>
        <pt x="365" y="1572" on="0"/>
        <pt x="554" y="1572" on="1"/>
        <pt x="712" y="1572" on="0"/>
        <pt x="888" y="1494" on="1"/>
        <pt x="874" y="1216" on="1"/>
        <pt x="784" y="1246" on="0"/>
        <pt x="728" y="1246" on="1"/>
        <pt x="612" y="1246" on="0"/>
        <pt x="612" y="1122" on="1"/>
        <pt x="612" y="1026" on="1"/>
        <pt x="1518" y="1026" on="1"/>
        <pt x="1518" y="398" on="1"/>
        <pt x="1518" y="349" on="0"/>
        <pt x="1570" y="300" on="0"/>
        <pt x="1610" y="300" on="1"/>
        <pt x="1650" y="300" on="0"/>
        <pt x="1694" y="324" on="1"/>
      </contour>
      <contour>
        <pt x="1076" y="1366" on="1"/>
        <pt x="1076" y="1411" on="0"/>
        <pt x="1115" y="1486" on="0"/>
        <pt x="1180" y="1541" on="0"/>
        <pt x="1264" y="1572" on="0"/>
        <pt x="1308" y="1572" on="1"/>
        <pt x="1354" y="1572" on="0"/>
        <pt x="1438" y="1539" on="0"/>
        <pt x="1501" y="1482" on="0"/>
        <pt x="1538" y="1408" on="0"/>
        <pt x="1538" y="1366" on="1"/>
        <pt x="1538" y="1319" on="0"/>
        <pt x="1499" y="1243" on="0"/>
        <pt x="1435" y="1188" on="0"/>
        <pt x="1352" y="1158" on="0"/>
        <pt x="1308" y="1158" on="1"/>
        <pt x="1260" y="1158" on="0"/>
        <pt x="1175" y="1190" on="0"/>
        <pt x="1112" y="1246" on="0"/>
        <pt x="1076" y="1322" on="0"/>
      </contour>
    </TTGlyph>
    <TTGlyph name="five" xMin="88" yMin="-27" xMax="1040" yMax="1371">
      <contour>
        <pt x="871" y="98" on="1"/>
        <pt x="799" y="41" on="0"/>
        <pt x="605" y="-27" on="0"/>
        <pt x="485" y="-27" on="1"/>
        <pt x="311" y="-27" on="0"/>
        <pt x="96" y="61" on="1"/>
        <pt x="123" y="351" on="1"/>
        <pt x="305" y="287" on="0"/>
        <pt x="479" y="287" on="1"/>
        <pt x="514" y="287" on="0"/>
        <pt x="572" y="311" on="0"/>
        <pt x="613" y="355" on="0"/>
        <pt x="636" y="416" on="0"/>
        <pt x="636" y="453" on="1"/>
        <pt x="636" y="484" on="0"/>
        <pt x="618" y="540" on="0"/>
        <pt x="584" y="581" on="0"/>
        <pt x="534" y="605" on="0"/>
        <pt x="503" y="605" on="1"/>
        <pt x="424" y="605" on="0"/>
        <pt x="302" y="522" on="1"/>
        <pt x="88" y="615" on="1"/>
        <pt x="141" y="1371" on="1"/>
        <pt x="931" y="1371" on="1"/>
        <pt x="902" y="1077" on="1"/>
        <pt x="417" y="1077" on="1"/>
        <pt x="392" y="865" on="1"/>
        <pt x="447" y="883" on="1"/>
        <pt x="468" y="887" on="0"/>
        <pt x="505" y="898" on="0"/>
        <pt x="543" y="907" on="0"/>
        <pt x="587" y="913" on="0"/>
        <pt x="615" y="913" on="1"/>
        <pt x="890" y="913" on="0"/>
        <pt x="998" y="660" on="1"/>
        <pt x="1040" y="562" on="0"/>
        <pt x="1040" y="452" on="1"/>
        <pt x="1040" y="231" on="0"/>
      </contour>
    </TTGlyph>
    <TTGlyph name="fl" xMin="52" yMin="-32" xMax="1698" yMax="1534">
      <contour>
        <pt x="826" y="1246" on="1"/>
        <pt x="612" y="1246" on="0"/>
        <pt x="612" y="1122" on="1"/>
        <pt x="612" y="1026" on="1"/>
        <pt x="870" y="1026" on="1"/>
        <pt x="870" y="772" on="1"/>
        <pt x="612" y="772" on="1"/>
        <pt x="612" y="0" on="1"/>
        <pt x="180" y="0" on="1"/>
        <pt x="180" y="772" on="1"/>
        <pt x="52" y="772" on="1"/>
        <pt x="52" y="1026" on="1"/>
        <pt x="180" y="1026" on="1"/>
        <pt x="180" y="1136" on="1"/>
        <pt x="180" y="1220" on="0"/>
        <pt x="232" y="1344" on="0"/>
        <pt x="326" y="1432" on="0"/>
        <pt x="458" y="1489" on="0"/>
        <pt x="618" y="1522" on="0"/>
        <pt x="803" y="1534" on="0"/>
        <pt x="902" y="1534" on="1"/>
        <pt x="930" y="1534" on="0"/>
        <pt x="980" y="1532" on="0"/>
        <pt x="1040" y="1525" on="0"/>
        <pt x="1118" y="1511" on="0"/>
        <pt x="1229" y="1490" on="0"/>
        <pt x="1383" y="1458" on="0"/>
        <pt x="1488" y="1436" on="1"/>
        <pt x="1488" y="408" on="1"/>
        <pt x="1488" y="300" on="0"/>
        <pt x="1586" y="300" on="1"/>
        <pt x="1629" y="300" on="0"/>
        <pt x="1674" y="324" on="1"/>
        <pt x="1698" y="38" on="1"/>
        <pt x="1565" y="-32" on="0"/>
        <pt x="1418" y="-32" on="1"/>
        <pt x="1326" y="-32" on="0"/>
        <pt x="1190" y="31" on="0"/>
        <pt x="1100" y="142" on="0"/>
        <pt x="1056" y="291" on="0"/>
        <pt x="1056" y="378" on="1"/>
        <pt x="1056" y="1228" on="1"/>
        <pt x="921" y="1246" on="0"/>
      </contour>
    </TTGlyph>
    <TTGlyph name="florin" xMin="53" yMin="0" xMax="889" yMax="1572">
      <contour>
        <pt x="729" y="1246" on="1"/>
        <pt x="613" y="1246" on="0"/>
        <pt x="613" y="1122" on="1"/>
        <pt x="613" y="1026" on="1"/>
        <pt x="871" y="1026" on="1"/>
        <pt x="871" y="772" on="1"/>
        <pt x="613" y="772" on="1"/>
        <pt x="613" y="0" on="1"/>
        <pt x="179" y="0" on="1"/>
        <pt x="179" y="772" on="1"/>
        <pt x="53" y="772" on="1"/>
        <pt x="53" y="1026" on="1"/>
        <pt x="179" y="1026" on="1"/>
        <pt x="179" y="1136" on="1"/>
        <pt x="179" y="1239" on="0"/>
        <pt x="225" y="1402" on="0"/>
        <pt x="319" y="1513" on="0"/>
        <pt x="460" y="1572" on="0"/>
        <pt x="555" y="1572" on="1"/>
        <pt x="704" y="1572" on="0"/>
        <pt x="889" y="1494" on="1"/>
        <pt x="875" y="1216" on="1"/>
        <pt x="785" y="1246" on="0"/>
      </contour>
    </TTGlyph>
    <TTGlyph name="four" xMin="36" yMin="0" xMax="1236" yMax="1371">
      <contour>
        <pt x="36" y="333" on="1"/>
        <pt x="36" y="620" on="1"/>
        <pt x="582" y="1371" on="1"/>
        <pt x="1040" y="1371" on="1"/>
        <pt x="1040" y="617" on="1"/>
        <pt x="1236" y="617" on="1"/>
        <pt x="1236" y="331" on="1"/>
        <pt x="1040" y="331" on="1"/>
        <pt x="1040" y="0" on="1"/>
        <pt x="604" y="0" on="1"/>
        <pt x="604" y="333" on="1"/>
      </contour>
      <contour>
        <pt x="338" y="617" on="1"/>
        <pt x="604" y="617" on="1"/>
        <pt x="604" y="1022" on="1"/>
      </contour>
    </TTGlyph>
    <TTGlyph name="foursuperior" xMin="40" yMin="650" xMax="692" yMax="1376">
      <contour>
        <pt x="40" y="978" on="1"/>
        <pt x="342" y="1376" on="1"/>
        <pt x="598" y="1376" on="1"/>
        <pt x="598" y="978" on="1"/>
        <pt x="692" y="978" on="1"/>
        <pt x="692" y="822" on="1"/>
        <pt x="598" y="822" on="1"/>
        <pt x="598" y="650" on="1"/>
        <pt x="352" y="650" on="1"/>
        <pt x="352" y="822" on="1"/>
        <pt x="40" y="822" on="1"/>
      </contour>
      <contour>
        <pt x="352" y="978" on="1"/>
        <pt x="352" y="1180" on="1"/>
        <pt x="208" y="978" on="1"/>
      </contour>
    </TTGlyph>
    <TTGlyph name="fraction" xMin="13" yMin="0" xMax="553" yMax="1408">
      <contour>
        <pt x="349" y="1408" on="1"/>
        <pt x="553" y="1408" on="1"/>
        <pt x="213" y="0" on="1"/>
        <pt x="13" y="0" on="1"/>
      </contour>
    </TTGlyph>
    <TTGlyph name="g" xMin="54" yMin="-470" xMax="1319" yMax="1041">
      <contour>
        <pt x="917" y="170" on="1"/>
        <pt x="798" y="0" on="0"/>
        <pt x="549" y="0" on="1"/>
        <pt x="450" y="0" on="0"/>
        <pt x="270" y="78" on="0"/>
        <pt x="134" y="217" on="0"/>
        <pt x="54" y="407" on="0"/>
        <pt x="54" y="519" on="1"/>
        <pt x="54" y="636" on="0"/>
        <pt x="137" y="828" on="0"/>
        <pt x="274" y="966" on="0"/>
        <pt x="452" y="1041" on="0"/>
        <pt x="547" y="1041" on="1"/>
        <pt x="610" y="1041" on="0"/>
        <pt x="721" y="1007" on="0"/>
        <pt x="809" y="944" on="0"/>
        <pt x="872" y="856" on="0"/>
        <pt x="887" y="802" on="1"/>
        <pt x="887" y="1041" on="1"/>
        <pt x="1319" y="1041" on="1"/>
        <pt x="1319" y="260" on="1"/>
        <pt x="1319" y="92" on="0"/>
        <pt x="1244" y="-179" on="0"/>
        <pt x="1088" y="-368" on="0"/>
        <pt x="848" y="-470" on="0"/>
        <pt x="683" y="-470" on="1"/>
        <pt x="635" y="-470" on="0"/>
        <pt x="527" y="-460" on="0"/>
        <pt x="467" y="-450" on="1"/>
        <pt x="499" y="-144" on="1"/>
        <pt x="599" y="-156" on="0"/>
        <pt x="639" y="-156" on="1"/>
        <pt x="716" y="-156" on="0"/>
        <pt x="814" y="-106" on="0"/>
        <pt x="874" y="-19" on="0"/>
        <pt x="906" y="100" on="0"/>
      </contour>
      <contour>
        <pt x="887" y="520" on="1"/>
        <pt x="885" y="560" on="0"/>
        <pt x="850" y="631" on="0"/>
        <pt x="794" y="685" on="0"/>
        <pt x="722" y="716" on="0"/>
        <pt x="683" y="716" on="1"/>
        <pt x="639" y="716" on="0"/>
        <pt x="564" y="683" on="0"/>
        <pt x="510" y="627" on="0"/>
        <pt x="479" y="553" on="0"/>
        <pt x="479" y="512" on="1"/>
        <pt x="479" y="463" on="0"/>
        <pt x="516" y="387" on="0"/>
        <pt x="575" y="335" on="0"/>
        <pt x="648" y="308" on="0"/>
        <pt x="683" y="308" on="1"/>
        <pt x="724" y="308" on="0"/>
        <pt x="797" y="340" on="0"/>
        <pt x="852" y="394" on="0"/>
        <pt x="885" y="465" on="0"/>
        <pt x="887" y="504" on="1"/>
      </contour>
    </TTGlyph>
    <TTGlyph name="gbreve" xMin="54" yMin="-470" xMax="1319" yMax="1528">
      <component glyphName="breve" x="295" y="28" flags="0x4"/>
      <component glyphName="g" x="0" y="0" flags="0x4"/>
    </TTGlyph>
    <TTGlyph name="gcircumflex" xMin="54" yMin="-470" xMax="1319" yMax="1688">
      <component glyphName="circumflex" x="227" y="48" flags="0x4"/>
      <component glyphName="g" x="0" y="0" flags="0x4"/>
    </TTGlyph>
    <TTGlyph name="gcommaaccent" xMin="54" yMin="-470" xMax="1319" yMax="1828">
      <component glyphName="g" x="0" y="0" flags="0x204"/>
      <component glyphName="comma" x="556" y="1446" flags="0x4"/>
    </TTGlyph>
    <TTGlyph name="gdotaccent" xMin="54" yMin="-470" xMax="1319" yMax="1592">
      <component glyphName="dotaccent" x="400" y="14" flags="0x4"/>
      <component glyphName="g" x="0" y="0" flags="0x4"/>
    </TTGlyph>
    <TTGlyph name="germandbls" xMin="106" yMin="-92" xMax="1410" yMax="1440">
      <contour>
        <pt x="694" y="1168" on="1"/>
        <pt x="627" y="1168" on="0"/>
        <pt x="546" y="1093" on="0"/>
        <pt x="546" y="1030" on="1"/>
        <pt x="546" y="0" on="1"/>
        <pt x="106" y="-32" on="1"/>
        <pt x="106" y="1104" on="1"/>
        <pt x="106" y="1176" on="0"/>
        <pt x="196" y="1299" on="0"/>
        <pt x="354" y="1389" on="0"/>
        <pt x="571" y="1440" on="0"/>
        <pt x="698" y="1440" on="1"/>
        <pt x="801" y="1440" on="0"/>
        <pt x="988" y="1393" on="0"/>
        <pt x="1130" y="1305" on="0"/>
        <pt x="1214" y="1176" on="0"/>
        <pt x="1214" y="1094" on="1"/>
        <pt x="1214" y="997" on="0"/>
        <pt x="1130" y="856" on="0"/>
        <pt x="1060" y="814" on="1"/>
        <pt x="1133" y="793" on="0"/>
        <pt x="1260" y="713" on="0"/>
        <pt x="1355" y="605" on="0"/>
        <pt x="1410" y="473" on="0"/>
        <pt x="1410" y="400" on="1"/>
        <pt x="1410" y="270" on="0"/>
        <pt x="1308" y="84" on="0"/>
        <pt x="1138" y="-36" on="0"/>
        <pt x="918" y="-92" on="0"/>
        <pt x="800" y="-92" on="1"/>
        <pt x="789" y="-92" on="0"/>
        <pt x="752" y="-91" on="0"/>
        <pt x="711" y="-91" on="0"/>
        <pt x="674" y="-90" on="0"/>
        <pt x="664" y="-90" on="1"/>
        <pt x="664" y="240" on="1"/>
        <pt x="690" y="238" on="0"/>
        <pt x="739" y="236" on="0"/>
        <pt x="764" y="236" on="1"/>
        <pt x="813" y="236" on="0"/>
        <pt x="890" y="271" on="0"/>
        <pt x="942" y="333" on="0"/>
        <pt x="970" y="418" on="0"/>
        <pt x="970" y="468" on="1"/>
        <pt x="970" y="510" on="0"/>
        <pt x="936" y="588" on="0"/>
        <pt x="870" y="653" on="0"/>
        <pt x="770" y="703" on="0"/>
        <pt x="704" y="718" on="1"/>
        <pt x="704" y="908" on="1"/>
        <pt x="740" y="914" on="0"/>
        <pt x="802" y="940" on="0"/>
        <pt x="848" y="976" on="0"/>
        <pt x="874" y="1023" on="0"/>
        <pt x="874" y="1050" on="1"/>
        <pt x="874" y="1080" on="0"/>
        <pt x="845" y="1125" on="0"/>
        <pt x="795" y="1154" on="0"/>
        <pt x="730" y="1168" on="0"/>
      </contour>
    </TTGlyph>
    <TTGlyph name="grave" xMin="30" yMin="1150" xMax="838" yMax="1790">
      <contour>
        <pt x="238" y="1790" on="1"/>
        <pt x="838" y="1370" on="1"/>
        <pt x="712" y="1150" on="1"/>
        <pt x="30" y="1424" on="1"/>
      </contour>
    </TTGlyph>
    <TTGlyph name="greater" xMin="103" yMin="0" xMax="883" yMax="1232">
      <contour>
        <pt x="103" y="332" on="1"/>
        <pt x="711" y="620" on="1"/>
        <pt x="103" y="924" on="1"/>
        <pt x="103" y="1232" on="1"/>
        <pt x="883" y="804" on="1"/>
        <pt x="883" y="456" on="1"/>
        <pt x="103" y="0" on="1"/>
      </contour>
    </TTGlyph>
    <TTGlyph name="greaterequal" xMin="90" yMin="0" xMax="916" yMax="1582">
      <contour>
        <pt x="114" y="682" on="1"/>
        <pt x="722" y="970" on="1"/>
        <pt x="114" y="1274" on="1"/>
        <pt x="114" y="1582" on="1"/>
        <pt x="894" y="1154" on="1"/>
        <pt x="894" y="806" on="1"/>
        <pt x="114" y="350" on="1"/>
      </contour>
      <contour>
        <pt x="90" y="114" on="1"/>
        <pt x="916" y="114" on="1"/>
        <pt x="916" y="0" on="1"/>
        <pt x="90" y="0" on="1"/>
      </contour>
    </TTGlyph>
    <TTGlyph name="guillemotleft" xMin="53" yMin="128" xMax="1015" yMax="1116">
      <contour>
        <pt x="585" y="810" on="1"/>
        <pt x="1015" y="1116" on="1"/>
        <pt x="1015" y="744" on="1"/>
        <pt x="817" y="626" on="1"/>
        <pt x="1015" y="502" on="1"/>
        <pt x="1015" y="128" on="1"/>
        <pt x="585" y="442" on="1"/>
      </contour>
      <contour>
        <pt x="53" y="810" on="1"/>
        <pt x="483" y="1116" on="1"/>
        <pt x="483" y="744" on="1"/>
        <pt x="287" y="626" on="1"/>
        <pt x="483" y="502" on="1"/>
        <pt x="483" y="128" on="1"/>
        <pt x="53" y="442" on="1"/>
      </contour>
    </TTGlyph>
    <TTGlyph name="guillemotright" xMin="94" yMin="128" xMax="1054" yMax="1116">
      <contour>
        <pt x="624" y="502" on="1"/>
        <pt x="820" y="626" on="1"/>
        <pt x="624" y="744" on="1"/>
        <pt x="624" y="1116" on="1"/>
        <pt x="1054" y="810" on="1"/>
        <pt x="1054" y="442" on="1"/>
        <pt x="624" y="128" on="1"/>
      </contour>
      <contour>
        <pt x="94" y="502" on="1"/>
        <pt x="290" y="626" on="1"/>
        <pt x="94" y="744" on="1"/>
        <pt x="94" y="1116" on="1"/>
        <pt x="524" y="810" on="1"/>
        <pt x="524" y="442" on="1"/>
        <pt x="94" y="128" on="1"/>
      </contour>
    </TTGlyph>
    <TTGlyph name="guilsinglleft" xMin="53" yMin="128" xMax="483" yMax="1116">
      <contour>
        <pt x="53" y="810" on="1"/>
        <pt x="483" y="1116" on="1"/>
        <pt x="483" y="744" on="1"/>
        <pt x="285" y="626" on="1"/>
        <pt x="483" y="502" on="1"/>
        <pt x="483" y="128" on="1"/>
        <pt x="53" y="442" on="1"/>
      </contour>
    </TTGlyph>
    <TTGlyph name="guilsinglright" xMin="94" yMin="128" xMax="524" yMax="1116">
      <contour>
        <pt x="94" y="502" on="1"/>
        <pt x="290" y="626" on="1"/>
        <pt x="94" y="744" on="1"/>
        <pt x="94" y="1116" on="1"/>
        <pt x="524" y="810" on="1"/>
        <pt x="524" y="442" on="1"/>
        <pt x="94" y="128" on="1"/>
      </contour>
    </TTGlyph>
    <TTGlyph name="h" xMin="107" yMin="0" xMax="1317" yMax="1414">
      <contour>
        <pt x="107" y="1350" on="1"/>
        <pt x="539" y="1414" on="1"/>
        <pt x="539" y="798" on="1"/>
        <pt x="591" y="925" on="0"/>
        <pt x="762" y="1041" on="0"/>
        <pt x="877" y="1041" on="1"/>
        <pt x="970" y="1041" on="0"/>
        <pt x="1130" y="966" on="0"/>
        <pt x="1249" y="829" on="0"/>
        <pt x="1317" y="637" on="0"/>
        <pt x="1317" y="520" on="1"/>
        <pt x="1317" y="0" on="1"/>
        <pt x="887" y="0" on="1"/>
        <pt x="887" y="512" on="1"/>
        <pt x="887" y="551" on="0"/>
        <pt x="865" y="625" on="0"/>
        <pt x="827" y="682" on="0"/>
        <pt x="774" y="716" on="0"/>
        <pt x="743" y="716" on="1"/>
        <pt x="699" y="716" on="0"/>
        <pt x="624" y="681" on="0"/>
        <pt x="570" y="621" on="0"/>
        <pt x="539" y="542" on="0"/>
        <pt x="539" y="498" on="1"/>
        <pt x="539" y="0" on="1"/>
        <pt x="107" y="0" on="1"/>
      </contour>
    </TTGlyph>
    <TTGlyph name="hbar" xMin="-15" yMin="0" xMax="1317" yMax="1414">
      <contour>
        <pt x="-15" y="1280" on="1"/>
        <pt x="107" y="1280" on="1"/>
        <pt x="107" y="1350" on="1"/>
        <pt x="539" y="1414" on="1"/>
        <pt x="539" y="1280" on="1"/>
        <pt x="753" y="1280" on="1"/>
        <pt x="753" y="1106" on="1"/>
        <pt x="539" y="1106" on="1"/>
        <pt x="539" y="798" on="1"/>
        <pt x="591" y="924" on="0"/>
        <pt x="762" y="1056" on="0"/>
        <pt x="877" y="1056" on="1"/>
        <pt x="970" y="1056" on="0"/>
        <pt x="1130" y="976" on="0"/>
        <pt x="1249" y="833" on="0"/>
        <pt x="1317" y="637" on="0"/>
        <pt x="1317" y="520" on="1"/>
        <pt x="1317" y="0" on="1"/>
        <pt x="887" y="0" on="1"/>
        <pt x="887" y="512" on="1"/>
        <pt x="887" y="551" on="0"/>
        <pt x="865" y="625" on="0"/>
        <pt x="827" y="682" on="0"/>
        <pt x="774" y="716" on="0"/>
        <pt x="743" y="716" on="1"/>
        <pt x="699" y="716" on="0"/>
        <pt x="624" y="681" on="0"/>
        <pt x="570" y="621" on="0"/>
        <pt x="539" y="542" on="0"/>
        <pt x="539" y="498" on="1"/>
        <pt x="539" y="0" on="1"/>
        <pt x="107" y="0" on="1"/>
        <pt x="107" y="1106" on="1"/>
        <pt x="-15" y="1106" on="1"/>
      </contour>
    </TTGlyph>
    <TTGlyph name="hcircumflex" xMin="107" yMin="0" xMax="1317" yMax="2046">
      <component glyphName="circumflex" x="223" y="406" flags="0x4"/>
      <component glyphName="h" x="0" y="0" flags="0x4"/>
    </TTGlyph>
    <TTGlyph name="hungarumlaut" xMin="114" yMin="1216" xMax="1234" yMax="2010">
      <contour>
        <pt x="258" y="2006" on="1"/>
        <pt x="658" y="1888" on="1"/>
        <pt x="358" y="1218" on="1"/>
        <pt x="114" y="1288" on="1"/>
      </contour>
      <contour>
        <pt x="860" y="2010" on="1"/>
        <pt x="1234" y="1822" on="1"/>
        <pt x="818" y="1216" on="1"/>
        <pt x="592" y="1328" on="1"/>
      </contour>
    </TTGlyph>
    <TTGlyph name="hyphen" xMin="95" yMin="408" xMax="645" yMax="650">
      <contour>
        <pt x="95" y="650" on="1"/>
        <pt x="645" y="650" on="1"/>
        <pt x="645" y="408" on="1"/>
        <pt x="95" y="408" on="1"/>
      </contour>
    </TTGlyph>
    <TTGlyph name="i" xMin="91" yMin="-16" xMax="731" yMax="1572">
      <contour>
        <pt x="91" y="1366" on="1"/>
        <pt x="91" y="1411" on="0"/>
        <pt x="130" y="1487" on="0"/>
        <pt x="194" y="1542" on="0"/>
        <pt x="278" y="1572" on="0"/>
        <pt x="323" y="1572" on="1"/>
        <pt x="375" y="1572" on="0"/>
        <pt x="460" y="1535" on="0"/>
        <pt x="520" y="1476" on="0"/>
        <pt x="553" y="1403" on="0"/>
        <pt x="553" y="1366" on="1"/>
        <pt x="553" y="1320" on="0"/>
        <pt x="515" y="1244" on="0"/>
        <pt x="451" y="1189" on="0"/>
        <pt x="368" y="1158" on="0"/>
        <pt x="323" y="1158" on="1"/>
        <pt x="274" y="1158" on="0"/>
        <pt x="189" y="1190" on="0"/>
        <pt x="127" y="1247" on="0"/>
        <pt x="91" y="1322" on="0"/>
      </contour>
      <contour>
        <pt x="731" y="54" on="1"/>
        <pt x="610" y="-16" on="0"/>
        <pt x="463" y="-16" on="1"/>
        <pt x="376" y="-16" on="0"/>
        <pt x="240" y="42" on="0"/>
        <pt x="147" y="149" on="0"/>
        <pt x="99" y="301" on="0"/>
        <pt x="99" y="394" on="1"/>
        <pt x="99" y="1026" on="1"/>
        <pt x="533" y="1026" on="1"/>
        <pt x="533" y="414" on="1"/>
        <pt x="533" y="365" on="0"/>
        <pt x="585" y="316" on="0"/>
        <pt x="625" y="316" on="1"/>
        <pt x="665" y="316" on="0"/>
        <pt x="709" y="340" on="1"/>
      </contour>
    </TTGlyph>
    <TTGlyph name="iacute" xMin="99" yMin="-32" xMax="908" yMax="1818">
      <component glyphName="acute" x="96" y="28" flags="0x4"/>
      <component glyphName="dotlessi" x="0" y="0" flags="0x4"/>
    </TTGlyph>
    <TTGlyph name="ibreve" xMin="-33" yMin="-32" xMax="731" yMax="1528">
      <component glyphName="breve" x="-103" y="28" flags="0x4"/>
      <component glyphName="dotlessi" x="0" y="0" flags="0x4"/>
    </TTGlyph>
    <TTGlyph name="icircumflex" xMin="-123" yMin="-32" xMax="759" yMax="1688">
      <component glyphName="circumflex" x="-171" y="48" flags="0x4"/>
      <component glyphName="dotlessi" x="0" y="0" flags="0x4"/>
    </TTGlyph>
    <TTGlyph name="idieresis" xMin="-221" yMin="-32" xMax="857" yMax="1592">
      <component glyphName="dieresis" x="-305" y="56" flags="0x4"/>
      <component glyphName="dotlessi" x="0" y="0" flags="0x4"/>
    </TTGlyph>
    <TTGlyph name="igrave" xMin="-82" yMin="-32" xMax="731" yMax="1818">
      <component glyphName="grave" x="-112" y="28" flags="0x4"/>
      <component glyphName="dotlessi" x="0" y="0" flags="0x4"/>
    </TTGlyph>
    <TTGlyph name="ij" xMin="-265" yMin="-442" xMax="547" yMax="1572">
      <component glyphName="j" x="0" y="0" flags="0x204"/>
    </TTGlyph>
    <TTGlyph name="imacron" xMin="43" yMin="-32" xMax="731" yMax="1420">
      <component glyphName="hyphen" x="-52" y="770" flags="0x4"/>
      <component glyphName="dotlessi" x="0" y="0" flags="0x4"/>
    </TTGlyph>
    <TTGlyph name="iogonek" xMin="91" yMin="-521" xMax="731" yMax="1572">
      <component glyphName="ogonek" x="45" y="-13" flags="0x4"/>
      <component glyphName="i" x="0" y="0" flags="0x4"/>
    </TTGlyph>
    <TTGlyph name="itilde" xMin="-178" yMin="-32" xMax="814" yMax="1638">
      <component glyphName="tilde" x="-240" y="26" flags="0x4"/>
      <component glyphName="dotlessi" x="0" y="0" flags="0x4"/>
    </TTGlyph>
    <TTGlyph name="j" xMin="-265" yMin="-442" xMax="547" yMax="1572">
      <contour>
        <pt x="-29" y="-110" on="1"/>
        <pt x="107" y="-110" on="0"/>
        <pt x="107" y="60" on="1"/>
        <pt x="107" y="1026" on="1"/>
        <pt x="539" y="1026" on="1"/>
        <pt x="539" y="60" on="1"/>
        <pt x="539" y="-57" on="0"/>
        <pt x="476" y="-243" on="0"/>
        <pt x="359" y="-373" on="0"/>
        <pt x="191" y="-442" on="0"/>
        <pt x="85" y="-442" on="1"/>
        <pt x="-103" y="-442" on="0"/>
        <pt x="-265" y="-334" on="1"/>
        <pt x="-171" y="-80" on="1"/>
        <pt x="-77" y="-110" on="0"/>
      </contour>
      <contour>
        <pt x="85" y="1366" on="1"/>
        <pt x="85" y="1410" on="0"/>
        <pt x="124" y="1486" on="0"/>
        <pt x="188" y="1541" on="0"/>
        <pt x="271" y="1572" on="0"/>
        <pt x="315" y="1572" on="1"/>
        <pt x="367" y="1572" on="0"/>
        <pt x="453" y="1536" on="0"/>
        <pt x="514" y="1477" on="0"/>
        <pt x="547" y="1403" on="0"/>
        <pt x="547" y="1366" on="1"/>
        <pt x="547" y="1320" on="0"/>
        <pt x="509" y="1244" on="0"/>
        <pt x="446" y="1189" on="0"/>
        <pt x="361" y="1158" on="0"/>
        <pt x="315" y="1158" on="1"/>
        <pt x="266" y="1158" on="0"/>
        <pt x="182" y="1191" on="0"/>
        <pt x="120" y="1248" on="0"/>
        <pt x="85" y="1324" on="0"/>
      </contour>
    </TTGlyph>
    <TTGlyph name="jcircumflex" xMin="-265" yMin="-442" xMax="766" yMax="1688">
      <component glyphName="circumflex" x="-164" y="48" flags="0x4"/>
      <component glyphName="dotlessj" x="0" y="0" flags="0x4"/>
    </TTGlyph>
    <TTGlyph name="k" xMin="107" yMin="-16" xMax="1303" yMax="1414">
      <contour>
        <pt x="973" y="592" on="1"/>
        <pt x="995" y="462" on="0"/>
        <pt x="1017" y="417" on="1"/>
        <pt x="1063" y="314" on="0"/>
        <pt x="1179" y="314" on="1"/>
        <pt x="1208" y="314" on="0"/>
        <pt x="1267" y="326" on="1"/>
        <pt x="1227" y="-10" on="1"/>
        <pt x="1164" y="-16" on="0"/>
        <pt x="1113" y="-16" on="1"/>
        <pt x="1003" y="-16" on="0"/>
        <pt x="856" y="29" on="0"/>
        <pt x="755" y="125" on="0"/>
        <pt x="689" y="274" on="0"/>
        <pt x="661" y="378" on="1"/>
        <pt x="541" y="282" on="1"/>
        <pt x="541" y="0" on="1"/>
        <pt x="107" y="0" on="1"/>
        <pt x="107" y="1350" on="1"/>
        <pt x="541" y="1414" on="1"/>
        <pt x="541" y="712" on="1"/>
        <pt x="1067" y="1142" on="1"/>
        <pt x="1303" y="822" on="1"/>
      </contour>
    </TTGlyph>
    <TTGlyph name="kcommaaccent" xMin="107" yMin="-878" xMax="1303" yMax="1414">
      <component glyphName="comma" x="368" y="-532" flags="0x4"/>
      <component glyphName="k" x="0" y="0" flags="0x4"/>
    </TTGlyph>
    <TTGlyph name="kgreenlandic" xMin="107" yMin="-30" xMax="1293" yMax="1024">
      <contour>
        <pt x="1169" y="314" on="1"/>
        <pt x="1195" y="314" on="0"/>
        <pt x="1257" y="326" on="1"/>
        <pt x="1225" y="-24" on="1"/>
        <pt x="1165" y="-30" on="0"/>
        <pt x="1113" y="-30" on="1"/>
        <pt x="1005" y="-30" on="0"/>
        <pt x="857" y="17" on="0"/>
        <pt x="755" y="113" on="0"/>
        <pt x="687" y="259" on="0"/>
        <pt x="659" y="358" on="1"/>
        <pt x="539" y="262" on="1"/>
        <pt x="539" y="0" on="1"/>
        <pt x="107" y="0" on="1"/>
        <pt x="107" y="1024" on="1"/>
        <pt x="539" y="1024" on="1"/>
        <pt x="539" y="692" on="1"/>
        <pt x="925" y="1024" on="1"/>
        <pt x="1145" y="1024" on="1"/>
        <pt x="1293" y="848" on="1"/>
        <pt x="951" y="572" on="1"/>
        <pt x="963" y="513" on="1"/>
        <pt x="978" y="461" on="1"/>
        <pt x="987" y="431" on="0"/>
        <pt x="1015" y="377" on="0"/>
        <pt x="1060" y="337" on="0"/>
        <pt x="1124" y="314" on="0"/>
      </contour>
    </TTGlyph>
    <TTGlyph name="l" xMin="99" yMin="-16" xMax="771" yMax="1414">
      <contour>
        <pt x="771" y="54" on="1"/>
        <pt x="632" y="-16" on="0"/>
        <pt x="463" y="-16" on="1"/>
        <pt x="376" y="-16" on="0"/>
        <pt x="240" y="41" on="0"/>
        <pt x="147" y="148" on="0"/>
        <pt x="99" y="299" on="0"/>
        <pt x="99" y="394" on="1"/>
        <pt x="99" y="1350" on="1"/>
        <pt x="531" y="1414" on="1"/>
        <pt x="531" y="424" on="1"/>
        <pt x="531" y="369" on="0"/>
        <pt x="601" y="316" on="0"/>
        <pt x="661" y="316" on="1"/>
        <pt x="707" y="316" on="0"/>
        <pt x="755" y="340" on="1"/>
      </contour>
    </TTGlyph>
    <TTGlyph name="lacute" xMin="99" yMin="-16" xMax="910" yMax="2176">
      <component glyphName="acute" x="98" y="386" flags="0x4"/>
      <component glyphName="l" x="0" y="0" flags="0x4"/>
    </TTGlyph>
    <TTGlyph name="lcaron" xMin="99" yMin="-16" xMax="1134" yMax="1414">
      <component glyphName="comma" x="620" y="1032" flags="0x4"/>
      <component glyphName="l" x="0" y="0" flags="0x4"/>
    </TTGlyph>
    <TTGlyph name="lcommaaccent" xMin="99" yMin="-880" xMax="771" yMax="1414">
      <component glyphName="comma" x="159" y="-534" flags="0x4"/>
      <component glyphName="l" x="0" y="0" flags="0x4"/>
    </TTGlyph>
    <TTGlyph name="ldot" xMin="99" yMin="-16" xMax="1320" yMax="1414">
      <component glyphName="periodcentered" x="774" y="0" flags="0x4"/>
      <component glyphName="l" x="0" y="0" flags="0x4"/>
    </TTGlyph>
    <TTGlyph name="less" xMin="55" yMin="0" xMax="835" yMax="1232">
      <contour>
        <pt x="55" y="804" on="1"/>
        <pt x="835" y="1232" on="1"/>
        <pt x="835" y="924" on="1"/>
        <pt x="227" y="620" on="1"/>
        <pt x="835" y="332" on="1"/>
        <pt x="835" y="0" on="1"/>
        <pt x="55" y="456" on="1"/>
      </contour>
    </TTGlyph>
    <TTGlyph name="lessequal" xMin="68" yMin="0" xMax="894" yMax="1582">
      <contour>
        <pt x="92" y="1154" on="1"/>
        <pt x="872" y="1582" on="1"/>
        <pt x="872" y="1274" on="1"/>
        <pt x="264" y="970" on="1"/>
        <pt x="872" y="682" on="1"/>
        <pt x="872" y="350" on="1"/>
        <pt x="92" y="806" on="1"/>
      </contour>
      <contour>
        <pt x="68" y="114" on="1"/>
        <pt x="894" y="114" on="1"/>
        <pt x="894" y="0" on="1"/>
        <pt x="68" y="0" on="1"/>
      </contour>
    </TTGlyph>
    <TTGlyph name="logicalnot" xMin="80" yMin="174" xMax="982" yMax="852">
      <contour>
        <pt x="982" y="852" on="1"/>
        <pt x="982" y="174" on="1"/>
        <pt x="762" y="174" on="1"/>
        <pt x="762" y="530" on="1"/>
        <pt x="80" y="530" on="1"/>
        <pt x="80" y="852" on="1"/>
      </contour>
    </TTGlyph>
    <TTGlyph name="longs" xMin="52" yMin="0" xMax="888" yMax="1572">
      <component glyphName="f" x="0" y="0" flags="0x204"/>
    </TTGlyph>
    <TTGlyph name="lozenge" xMin="56" yMin="0" xMax="988" yMax="1408">
      <contour>
        <pt x="686" y="710" on="1"/>
        <pt x="518" y="1236" on="1"/>
        <pt x="334" y="710" on="1"/>
        <pt x="518" y="172" on="1"/>
      </contour>
      <contour>
        <pt x="56" y="710" on="1"/>
        <pt x="314" y="1408" on="1"/>
        <pt x="712" y="1408" on="1"/>
        <pt x="988" y="710" on="1"/>
        <pt x="686" y="0" on="1"/>
        <pt x="314" y="0" on="1"/>
      </contour>
    </TTGlyph>
    <TTGlyph name="lslash" xMin="16" yMin="-32" xMax="828" yMax="1414">
      <contour>
        <pt x="828" y="38" on="1"/>
        <pt x="695" y="-32" on="0"/>
        <pt x="550" y="-32" on="1"/>
        <pt x="463" y="-32" on="0"/>
        <pt x="329" y="26" on="0"/>
        <pt x="236" y="133" on="0"/>
        <pt x="188" y="285" on="0"/>
        <pt x="188" y="378" on="1"/>
        <pt x="188" y="666" on="1"/>
        <pt x="16" y="614" on="1"/>
        <pt x="16" y="788" on="1"/>
        <pt x="188" y="840" on="1"/>
        <pt x="188" y="1350" on="1"/>
        <pt x="620" y="1414" on="1"/>
        <pt x="620" y="972" on="1"/>
        <pt x="796" y="1026" on="1"/>
        <pt x="796" y="852" on="1"/>
        <pt x="620" y="798" on="1"/>
        <pt x="620" y="408" on="1"/>
        <pt x="620" y="300" on="0"/>
        <pt x="718" y="300" on="1"/>
        <pt x="761" y="300" on="0"/>
        <pt x="806" y="324" on="1"/>
      </contour>
    </TTGlyph>
    <TTGlyph name="m" xMin="102" yMin="0" xMax="2004" yMax="1041">
      <contour>
        <pt x="1240" y="786" on="1"/>
        <pt x="1282" y="913" on="0"/>
        <pt x="1468" y="1041" on="0"/>
        <pt x="1616" y="1041" on="1"/>
        <pt x="1700" y="1041" on="0"/>
        <pt x="1842" y="963" on="0"/>
        <pt x="1946" y="823" on="0"/>
        <pt x="2004" y="629" on="0"/>
        <pt x="2004" y="512" on="1"/>
        <pt x="2004" y="0" on="1"/>
        <pt x="1572" y="0" on="1"/>
        <pt x="1572" y="512" on="1"/>
        <pt x="1572" y="555" on="0"/>
        <pt x="1553" y="628" on="0"/>
        <pt x="1517" y="682" on="0"/>
        <pt x="1465" y="712" on="0"/>
        <pt x="1432" y="712" on="1"/>
        <pt x="1389" y="712" on="0"/>
        <pt x="1327" y="673" on="0"/>
        <pt x="1287" y="614" on="0"/>
        <pt x="1268" y="543" on="0"/>
        <pt x="1268" y="512" on="1"/>
        <pt x="1268" y="0" on="1"/>
        <pt x="840" y="0" on="1"/>
        <pt x="840" y="512" on="1"/>
        <pt x="840" y="554" on="0"/>
        <pt x="821" y="627" on="0"/>
        <pt x="784" y="681" on="0"/>
        <pt x="730" y="712" on="0"/>
        <pt x="696" y="712" on="1"/>
        <pt x="659" y="712" on="0"/>
        <pt x="600" y="682" on="0"/>
        <pt x="558" y="629" on="0"/>
        <pt x="535" y="559" on="0"/>
        <pt x="534" y="520" on="1"/>
        <pt x="534" y="0" on="1"/>
        <pt x="102" y="0" on="1"/>
        <pt x="102" y="1011" on="1"/>
        <pt x="534" y="1011" on="1"/>
        <pt x="534" y="802" on="1"/>
        <pt x="591" y="929" on="0"/>
        <pt x="766" y="1041" on="0"/>
        <pt x="884" y="1041" on="1"/>
        <pt x="941" y="1041" on="0"/>
        <pt x="1047" y="1012" on="0"/>
        <pt x="1140" y="950" on="0"/>
        <pt x="1215" y="853" on="0"/>
      </contour>
    </TTGlyph>
    <TTGlyph name="macron" xMin="69" yMin="1170" xMax="619" yMax="1412">
      <component glyphName="hyphen" x="-26" y="762" flags="0x4"/>
    </TTGlyph>
    <TTGlyph name="minus" xMin="102" yMin="0" xMax="928" yMax="114">
      <contour>
        <pt x="102" y="114" on="1"/>
        <pt x="928" y="114" on="1"/>
        <pt x="928" y="0" on="1"/>
        <pt x="102" y="0" on="1"/>
      </contour>
    </TTGlyph>
    <TTGlyph name="mu" xMin="116" yMin="-300" xMax="1202" yMax="1026">
      <contour>
        <pt x="755" y="-32" on="1"/>
        <pt x="644" y="-32" on="0"/>
        <pt x="526" y="24" on="1"/>
        <pt x="526" y="-270" on="1"/>
        <pt x="116" y="-300" on="1"/>
        <pt x="116" y="1026" on="1"/>
        <pt x="538" y="1026" on="1"/>
        <pt x="538" y="344" on="1"/>
        <pt x="599" y="304" on="0"/>
        <pt x="666" y="304" on="1"/>
        <pt x="692" y="304" on="0"/>
        <pt x="737" y="323" on="0"/>
        <pt x="771" y="356" on="0"/>
        <pt x="790" y="400" on="0"/>
        <pt x="790" y="426" on="1"/>
        <pt x="790" y="1026" on="1"/>
        <pt x="1202" y="1026" on="1"/>
        <pt x="1202" y="440" on="1"/>
        <pt x="1202" y="338" on="0"/>
        <pt x="1133" y="165" on="0"/>
        <pt x="1013" y="39" on="0"/>
        <pt x="849" y="-32" on="0"/>
      </contour>
    </TTGlyph>
    <TTGlyph name="multiply" xMin="66" yMin="122" xMax="876" yMax="920">
      <contour>
        <pt x="386" y="514" on="1"/>
        <pt x="66" y="836" on="1"/>
        <pt x="150" y="920" on="1"/>
        <pt x="472" y="600" on="1"/>
        <pt x="792" y="920" on="1"/>
        <pt x="876" y="836" on="1"/>
        <pt x="558" y="514" on="1"/>
        <pt x="868" y="202" on="1"/>
        <pt x="786" y="122" on="1"/>
        <pt x="472" y="434" on="1"/>
        <pt x="156" y="122" on="1"/>
        <pt x="74" y="202" on="1"/>
      </contour>
    </TTGlyph>
    <TTGlyph name="n" xMin="102" yMin="0" xMax="1310" yMax="1041">
      <contour>
        <pt x="102" y="1011" on="1"/>
        <pt x="514" y="1011" on="1"/>
        <pt x="514" y="802" on="1"/>
        <pt x="574" y="923" on="0"/>
        <pt x="763" y="1041" on="0"/>
        <pt x="890" y="1041" on="1"/>
        <pt x="992" y="1041" on="0"/>
        <pt x="1148" y="965" on="0"/>
        <pt x="1255" y="826" on="0"/>
        <pt x="1310" y="631" on="0"/>
        <pt x="1310" y="512" on="1"/>
        <pt x="1310" y="0" on="1"/>
        <pt x="880" y="0" on="1"/>
        <pt x="880" y="554" on="1"/>
        <pt x="880" y="594" on="0"/>
        <pt x="865" y="662" on="0"/>
        <pt x="832" y="711" on="0"/>
        <pt x="782" y="738" on="0"/>
        <pt x="746" y="738" on="1"/>
        <pt x="702" y="738" on="0"/>
        <pt x="628" y="695" on="0"/>
        <pt x="573" y="633" on="0"/>
        <pt x="539" y="566" on="0"/>
        <pt x="534" y="542" on="1"/>
        <pt x="534" y="0" on="1"/>
        <pt x="102" y="0" on="1"/>
      </contour>
    </TTGlyph>
    <TTGlyph name="nacute" xMin="102" yMin="0" xMax="1388" yMax="1818">
      <component glyphName="acute" x="576" y="28" flags="0x4"/>
      <component glyphName="n" x="0" y="0" flags="0x4"/>
    </TTGlyph>
    <TTGlyph name="napostrophe" xMin="102" yMin="0" xMax="1310" yMax="1844">
      <component glyphName="n" x="0" y="0" flags="0x4"/>
      <component glyphName="comma" x="8" y="1462" flags="0x4"/>
    </TTGlyph>
    <TTGlyph name="ncaron" xMin="102" yMin="0" xMax="1310" yMax="1688">
      <component glyphName="caron" x="217" y="48" flags="0x4"/>
      <component glyphName="n" x="0" y="0" flags="0x4"/>
    </TTGlyph>
    <TTGlyph name="ncommaaccent" xMin="102" yMin="-848" xMax="1310" yMax="1041">
      <component glyphName="comma" x="402" y="-502" flags="0x4"/>
      <component glyphName="n" x="0" y="0" flags="0x4"/>
    </TTGlyph>
    <TTGlyph name="nine" xMin="62" yMin="-8" xMax="1191" yMax="1388">
      <contour>
        <pt x="218" y="387" on="1"/>
        <pt x="293" y="355" on="1"/>
        <pt x="348" y="332" on="0"/>
        <pt x="469" y="302" on="0"/>
        <pt x="527" y="302" on="1"/>
        <pt x="746" y="302" on="0"/>
        <pt x="790" y="589" on="1"/>
        <pt x="800" y="655" on="1"/>
        <pt x="751" y="612" on="1"/>
        <pt x="706" y="573" on="0"/>
        <pt x="598" y="526" on="0"/>
        <pt x="517" y="526" on="1"/>
        <pt x="412" y="526" on="0"/>
        <pt x="244" y="582" on="0"/>
        <pt x="125" y="689" on="0"/>
        <pt x="62" y="841" on="0"/>
        <pt x="62" y="937" on="1"/>
        <pt x="62" y="1034" on="0"/>
        <pt x="146" y="1200" on="0"/>
        <pt x="293" y="1320" on="0"/>
        <pt x="494" y="1388" on="0"/>
        <pt x="612" y="1388" on="1"/>
        <pt x="711" y="1388" on="0"/>
        <pt x="874" y="1333" on="0"/>
        <pt x="1002" y="1237" on="0"/>
        <pt x="1098" y="1105" on="0"/>
        <pt x="1160" y="950" on="0"/>
        <pt x="1191" y="778" on="0"/>
        <pt x="1191" y="691" on="1"/>
        <pt x="1191" y="530" on="0"/>
        <pt x="1092" y="271" on="0"/>
        <pt x="923" y="90" on="0"/>
        <pt x="699" y="-8" on="0"/>
        <pt x="575" y="-8" on="1"/>
        <pt x="514" y="-8" on="0"/>
        <pt x="402" y="10" on="0"/>
        <pt x="293" y="44" on="0"/>
        <pt x="184" y="95" on="0"/>
        <pt x="126" y="128" on="1"/>
      </contour>
      <contour>
        <pt x="594" y="762" on="1"/>
        <pt x="611" y="762" on="1"/>
        <pt x="657" y="762" on="0"/>
        <pt x="735" y="780" on="0"/>
        <pt x="773" y="794" on="1"/>
        <pt x="790" y="800" on="1"/>
        <pt x="788" y="820" on="1"/>
        <pt x="774" y="963" on="0"/>
        <pt x="687" y="1104" on="0"/>
        <pt x="612" y="1104" on="1"/>
        <pt x="574" y="1104" on="0"/>
        <pt x="508" y="1082" on="0"/>
        <pt x="457" y="1040" on="0"/>
        <pt x="428" y="977" on="0"/>
        <pt x="428" y="937" on="1"/>
        <pt x="428" y="899" on="0"/>
        <pt x="453" y="835" on="0"/>
        <pt x="497" y="788" on="0"/>
        <pt x="558" y="762" on="0"/>
      </contour>
    </TTGlyph>
    <TTGlyph name="notequal" xMin="68" yMin="0" xMax="692" yMax="1026">
      <contour>
        <pt x="68" y="442" on="1"/>
        <pt x="290" y="442" on="1"/>
        <pt x="330" y="594" on="1"/>
        <pt x="68" y="594" on="1"/>
        <pt x="68" y="720" on="1"/>
        <pt x="363" y="720" on="1"/>
        <pt x="444" y="1026" on="1"/>
        <pt x="586" y="1026" on="1"/>
        <pt x="504" y="720" on="1"/>
        <pt x="692" y="720" on="1"/>
        <pt x="692" y="594" on="1"/>
        <pt x="470" y="594" on="1"/>
        <pt x="430" y="442" on="1"/>
        <pt x="692" y="442" on="1"/>
        <pt x="692" y="318" on="1"/>
        <pt x="397" y="318" on="1"/>
        <pt x="312" y="0" on="1"/>
        <pt x="174" y="0" on="1"/>
        <pt x="257" y="318" on="1"/>
        <pt x="68" y="318" on="1"/>
      </contour>
    </TTGlyph>
    <TTGlyph name="ntilde" xMin="102" yMin="0" xMax="1310" yMax="1638">
      <component glyphName="tilde" x="148" y="26" flags="0x4"/>
      <component glyphName="n" x="0" y="0" flags="0x4"/>
    </TTGlyph>
    <TTGlyph name="numbersign" xMin="56" yMin="0" xMax="1012" yMax="1376">
      <contour>
        <pt x="212" y="502" on="1"/>
        <pt x="56" y="502" on="1"/>
        <pt x="72" y="624" on="1"/>
        <pt x="240" y="624" on="1"/>
        <pt x="278" y="776" on="1"/>
        <pt x="94" y="776" on="1"/>
        <pt x="110" y="902" on="1"/>
        <pt x="308" y="902" on="1"/>
        <pt x="426" y="1376" on="1"/>
        <pt x="608" y="1376" on="1"/>
        <pt x="490" y="902" on="1"/>
        <pt x="684" y="902" on="1"/>
        <pt x="800" y="1376" on="1"/>
        <pt x="982" y="1376" on="1"/>
        <pt x="866" y="902" on="1"/>
        <pt x="1012" y="902" on="1"/>
        <pt x="996" y="776" on="1"/>
        <pt x="832" y="776" on="1"/>
        <pt x="796" y="624" on="1"/>
        <pt x="974" y="624" on="1"/>
        <pt x="958" y="502" on="1"/>
        <pt x="764" y="502" on="1"/>
        <pt x="642" y="0" on="1"/>
        <pt x="464" y="0" on="1"/>
        <pt x="586" y="502" on="1"/>
        <pt x="390" y="502" on="1"/>
        <pt x="268" y="0" on="1"/>
        <pt x="90" y="0" on="1"/>
      </contour>
      <contour>
        <pt x="616" y="624" on="1"/>
        <pt x="652" y="776" on="1"/>
        <pt x="458" y="776" on="1"/>
        <pt x="420" y="624" on="1"/>
      </contour>
    </TTGlyph>
    <TTGlyph name="o" xMin="52" yMin="-16" xMax="1232" yMax="1041">
      <contour>
        <pt x="452" y="514" on="1"/>
        <pt x="452" y="458" on="0"/>
        <pt x="485" y="374" on="0"/>
        <pt x="539" y="318" on="0"/>
        <pt x="609" y="290" on="0"/>
        <pt x="645" y="290" on="1"/>
        <pt x="681" y="290" on="0"/>
        <pt x="750" y="318" on="0"/>
        <pt x="805" y="374" on="0"/>
        <pt x="838" y="458" on="0"/>
        <pt x="838" y="514" on="1"/>
        <pt x="838" y="570" on="0"/>
        <pt x="805" y="654" on="0"/>
        <pt x="750" y="709" on="0"/>
        <pt x="681" y="737" on="0"/>
        <pt x="645" y="737" on="1"/>
        <pt x="609" y="737" on="0"/>
        <pt x="539" y="709" on="0"/>
        <pt x="485" y="654" on="0"/>
        <pt x="452" y="570" on="0"/>
      </contour>
      <contour>
        <pt x="52" y="514" on="1"/>
        <pt x="57" y="643" on="0"/>
        <pt x="154" y="839" on="0"/>
        <pt x="314" y="973" on="0"/>
        <pt x="525" y="1041" on="0"/>
        <pt x="644" y="1041" on="1"/>
        <pt x="774" y="1041" on="0"/>
        <pt x="990" y="963" on="0"/>
        <pt x="1146" y="824" on="0"/>
        <pt x="1232" y="630" on="0"/>
        <pt x="1232" y="514" on="1"/>
        <pt x="1232" y="420" on="0"/>
        <pt x="1183" y="268" on="0"/>
        <pt x="1099" y="151" on="0"/>
        <pt x="985" y="65" on="0"/>
        <pt x="853" y="10" on="0"/>
        <pt x="712" y="-16" on="0"/>
        <pt x="642" y="-16" on="1"/>
        <pt x="510" y="-16" on="0"/>
        <pt x="293" y="61" on="0"/>
        <pt x="137" y="201" on="0"/>
        <pt x="52" y="396" on="0"/>
      </contour>
    </TTGlyph>
    <TTGlyph name="oacute" xMin="52" yMin="-16" xMax="1232" yMax="1818">
      <component glyphName="acute" x="277" y="28" flags="0x4"/>
      <component glyphName="o" x="0" y="0" flags="0x4"/>
    </TTGlyph>
    <TTGlyph name="obreve" xMin="52" yMin="-16" xMax="1232" yMax="1528">
      <component glyphName="breve" x="223" y="28" flags="0x4"/>
      <component glyphName="o" x="0" y="0" flags="0x4"/>
    </TTGlyph>
    <TTGlyph name="ocircumflex" xMin="52" yMin="-16" xMax="1232" yMax="1688">
      <component glyphName="circumflex" x="155" y="48" flags="0x4"/>
      <component glyphName="o" x="0" y="0" flags="0x4"/>
    </TTGlyph>
    <TTGlyph name="odieresis" xMin="52" yMin="-16" xMax="1232" yMax="1592">
      <component glyphName="dieresis" x="21" y="56" flags="0x4"/>
      <component glyphName="o" x="0" y="0" flags="0x4"/>
    </TTGlyph>
    <TTGlyph name="oe" xMin="52" yMin="-32" xMax="1848" yMax="1056">
      <contour>
        <pt x="1454" y="262" on="1"/>
        <pt x="1483" y="262" on="0"/>
        <pt x="1540" y="269" on="0"/>
        <pt x="1570" y="275" on="1"/>
        <pt x="1604" y="282" on="0"/>
        <pt x="1644" y="292" on="0"/>
        <pt x="1680" y="303" on="0"/>
        <pt x="1721" y="320" on="0"/>
        <pt x="1756" y="334" on="1"/>
        <pt x="1806" y="52" on="1"/>
        <pt x="1620" y="-32" on="0"/>
        <pt x="1386" y="-32" on="1"/>
        <pt x="1165" y="-32" on="0"/>
        <pt x="1008" y="134" on="1"/>
        <pt x="857" y="-32" on="0"/>
        <pt x="642" y="-32" on="1"/>
        <pt x="510" y="-32" on="0"/>
        <pt x="293" y="50" on="0"/>
        <pt x="137" y="196" on="0"/>
        <pt x="52" y="396" on="0"/>
        <pt x="52" y="514" on="1"/>
        <pt x="52" y="647" on="0"/>
        <pt x="152" y="848" on="0"/>
        <pt x="237" y="918" on="1"/>
        <pt x="310" y="978" on="0"/>
        <pt x="518" y="1056" on="0"/>
        <pt x="644" y="1056" on="1"/>
        <pt x="850" y="1056" on="0"/>
        <pt x="1008" y="910" on="1"/>
        <pt x="1166" y="1056" on="0"/>
        <pt x="1374" y="1056" on="1"/>
        <pt x="1480" y="1056" on="0"/>
        <pt x="1655" y="982" on="0"/>
        <pt x="1780" y="847" on="0"/>
        <pt x="1848" y="655" on="0"/>
        <pt x="1848" y="538" on="1"/>
        <pt x="1848" y="524" on="0"/>
        <pt x="1846" y="498" on="0"/>
        <pt x="1844" y="486" on="1"/>
        <pt x="1228" y="406" on="1"/>
        <pt x="1254" y="333" on="0"/>
        <pt x="1361" y="262" on="0"/>
      </contour>
      <contour>
        <pt x="644" y="310" on="1"/>
        <pt x="690" y="310" on="0"/>
        <pt x="759" y="351" on="0"/>
        <pt x="805" y="413" on="0"/>
        <pt x="828" y="484" on="0"/>
        <pt x="828" y="514" on="1"/>
        <pt x="828" y="556" on="0"/>
        <pt x="798" y="630" on="0"/>
        <pt x="748" y="686" on="0"/>
        <pt x="681" y="718" on="0"/>
        <pt x="644" y="718" on="1"/>
        <pt x="603" y="718" on="0"/>
        <pt x="535" y="685" on="0"/>
        <pt x="487" y="628" on="0"/>
        <pt x="460" y="554" on="0"/>
        <pt x="460" y="514" on="1"/>
        <pt x="460" y="471" on="0"/>
        <pt x="489" y="397" on="0"/>
        <pt x="540" y="342" on="0"/>
        <pt x="606" y="310" on="0"/>
      </contour>
      <contour>
        <pt x="1530" y="664" on="1"/>
        <pt x="1495" y="792" on="0"/>
        <pt x="1374" y="792" on="1"/>
        <pt x="1335" y="792" on="0"/>
        <pt x="1276" y="762" on="0"/>
        <pt x="1236" y="708" on="0"/>
        <pt x="1214" y="636" on="0"/>
        <pt x="1212" y="594" on="1"/>
      </contour>
    </TTGlyph>
    <TTGlyph name="ogonek" xMin="86" yMin="-508" xMax="508" yMax="0">
      <contour>
        <pt x="410" y="-402" on="1"/>
        <pt x="439" y="-402" on="0"/>
        <pt x="506" y="-388" on="1"/>
        <pt x="508" y="-464" on="1"/>
        <pt x="402" y="-508" on="0"/>
        <pt x="310" y="-508" on="1"/>
        <pt x="263" y="-508" on="0"/>
        <pt x="181" y="-486" on="0"/>
        <pt x="121" y="-442" on="0"/>
        <pt x="86" y="-376" on="0"/>
        <pt x="86" y="-332" on="1"/>
        <pt x="86" y="-296" on="0"/>
        <pt x="117" y="-230" on="0"/>
        <pt x="165" y="-170" on="0"/>
        <pt x="223" y="-116" on="0"/>
        <pt x="250" y="-93" on="1"/>
        <pt x="307" y="-45" on="1"/>
        <pt x="327" y="-28" on="0"/>
        <pt x="355" y="-8" on="0"/>
        <pt x="362" y="0" on="1"/>
        <pt x="474" y="0" on="1"/>
        <pt x="442" y="-67" on="0"/>
        <pt x="378" y="-179" on="0"/>
        <pt x="346" y="-225" on="1"/>
        <pt x="326" y="-256" on="1"/>
        <pt x="320" y="-264" on="0"/>
        <pt x="308" y="-308" on="0"/>
        <pt x="308" y="-328" on="1"/>
        <pt x="308" y="-402" on="0"/>
      </contour>
    </TTGlyph>
    <TTGlyph name="ograve" xMin="52" yMin="-16" xMax="1232" yMax="1818">
      <component glyphName="grave" x="214" y="28" flags="0x4"/>
      <component glyphName="o" x="0" y="0" flags="0x4"/>
    </TTGlyph>
    <TTGlyph name="ohungarumlaut" xMin="52" yMin="-16" xMax="1290" yMax="1974">
      <component glyphName="hungarumlaut" x="56" y="-36" flags="0x4"/>
      <component glyphName="o" x="0" y="0" flags="0x4"/>
    </TTGlyph>
    <TTGlyph name="omacron" xMin="52" yMin="-16" xMax="1232" yMax="1420">
      <component glyphName="hyphen" x="274" y="770" flags="0x4"/>
      <component glyphName="o" x="0" y="0" flags="0x4"/>
    </TTGlyph>
    <TTGlyph name="one" xMin="88" yMin="0" xMax="872" yMax="1371">
      <contour>
        <pt x="88" y="302" on="1"/>
        <pt x="260" y="302" on="1"/>
        <pt x="260" y="983" on="1"/>
        <pt x="88" y="971" on="1"/>
        <pt x="88" y="1237" on="1"/>
        <pt x="175" y="1237" on="0"/>
        <pt x="384" y="1302" on="0"/>
        <pt x="486" y="1371" on="1"/>
        <pt x="700" y="1371" on="1"/>
        <pt x="700" y="302" on="1"/>
        <pt x="872" y="302" on="1"/>
        <pt x="872" y="0" on="1"/>
        <pt x="88" y="0" on="1"/>
      </contour>
    </TTGlyph>
    <TTGlyph name="onehalf" xMin="66" yMin="0" xMax="1277" yMax="1408">
      <component glyphName="onesuperior" x="-20" y="0" flags="0x4"/>
      <component glyphName="slash" x="329" y="0" flags="0x4"/>
      <component glyphName="twosuperior" x="687" y="-647" flags="0x4"/>
    </TTGlyph>
    <TTGlyph name="onequarter" xMin="72" yMin="0" xMax="1503" yMax="1408">
      <component glyphName="onesuperior" x="-14" y="0" flags="0x4"/>
      <component glyphName="slash" x="405" y="0" flags="0x4"/>
      <component glyphName="foursuperior" x="811" y="-647" flags="0x4"/>
    </TTGlyph>
    <TTGlyph name="onesuperior" xMin="86" yMin="682" xMax="498" yMax="1408">
      <contour>
        <pt x="86" y="1338" on="1"/>
        <pt x="200" y="1338" on="0"/>
        <pt x="294" y="1408" on="1"/>
        <pt x="408" y="1408" on="1"/>
        <pt x="408" y="842" on="1"/>
        <pt x="498" y="842" on="1"/>
        <pt x="498" y="682" on="1"/>
        <pt x="86" y="682" on="1"/>
        <pt x="86" y="842" on="1"/>
        <pt x="176" y="842" on="1"/>
        <pt x="176" y="1204" on="1"/>
        <pt x="86" y="1196" on="1"/>
      </contour>
    </TTGlyph>
    <TTGlyph name="ordfeminine" xMin="52" yMin="-16" xMax="1320" yMax="1041">
      <component glyphName="a" x="0" y="0" flags="0x204"/>
    </TTGlyph>
    <TTGlyph name="ordmasculine" xMin="52" yMin="-16" xMax="1232" yMax="1041">
      <component glyphName="o" x="0" y="0" flags="0x204"/>
    </TTGlyph>
    <TTGlyph name="oslash" xMin="54" yMin="-174" xMax="1190" yMax="1202">
      <contour>
        <pt x="432" y="-2" on="1"/>
        <pt x="348" y="25" on="0"/>
        <pt x="208" y="120" on="0"/>
        <pt x="109" y="251" on="0"/>
        <pt x="54" y="416" on="0"/>
        <pt x="54" y="514" on="1"/>
        <pt x="54" y="608" on="0"/>
        <pt x="101" y="761" on="0"/>
        <pt x="184" y="882" on="0"/>
        <pt x="297" y="970" on="0"/>
        <pt x="431" y="1028" on="0"/>
        <pt x="580" y="1056" on="0"/>
        <pt x="656" y="1056" on="1"/>
        <pt x="665" y="1056" on="1"/>
        <pt x="670" y="1056" on="0"/>
        <pt x="681" y="1055" on="0"/>
        <pt x="688" y="1054" on="1"/>
        <pt x="690" y="1054" on="1"/>
        <pt x="726" y="1202" on="1"/>
        <pt x="844" y="1202" on="1"/>
        <pt x="802" y="1032" on="1"/>
        <pt x="887" y="1006" on="0"/>
        <pt x="1030" y="911" on="0"/>
        <pt x="1133" y="779" on="0"/>
        <pt x="1190" y="612" on="0"/>
        <pt x="1190" y="514" on="1"/>
        <pt x="1190" y="419" on="0"/>
        <pt x="1141" y="264" on="0"/>
        <pt x="1054" y="143" on="0"/>
        <pt x="936" y="54" on="0"/>
        <pt x="799" y="-4" on="0"/>
        <pt x="650" y="-32" on="0"/>
        <pt x="575" y="-32" on="1"/>
        <pt x="559" y="-32" on="1"/>
        <pt x="555" y="-32" on="0"/>
        <pt x="545" y="-31" on="0"/>
        <pt x="540" y="-30" on="1"/>
        <pt x="506" y="-174" on="1"/>
        <pt x="390" y="-174" on="1"/>
      </contour>
      <contour>
        <pt x="620" y="288" on="1"/>
        <pt x="660" y="294" on="0"/>
        <pt x="730" y="335" on="0"/>
        <pt x="781" y="396" on="0"/>
        <pt x="810" y="472" on="0"/>
        <pt x="810" y="514" on="1"/>
        <pt x="810" y="574" on="0"/>
        <pt x="760" y="671" on="0"/>
        <pt x="720" y="700" on="1"/>
      </contour>
      <contour>
        <pt x="614" y="738" on="1"/>
        <pt x="573" y="736" on="0"/>
        <pt x="505" y="699" on="0"/>
        <pt x="457" y="638" on="0"/>
        <pt x="430" y="559" on="0"/>
        <pt x="430" y="514" on="1"/>
        <pt x="430" y="454" on="0"/>
        <pt x="477" y="357" on="0"/>
        <pt x="514" y="328" on="1"/>
      </contour>
    </TTGlyph>
    <TTGlyph name="otilde" xMin="52" yMin="-16" xMax="1232" yMax="1638">
      <component glyphName="tilde" x="86" y="26" flags="0x4"/>
      <component glyphName="o" x="0" y="0" flags="0x4"/>
    </TTGlyph>
    <TTGlyph name="p" xMin="102" yMin="-348" xMax="1370" yMax="1041">
      <contour>
        <pt x="870" y="-16" on="1"/>
        <pt x="757" y="-16" on="0"/>
        <pt x="589" y="79" on="0"/>
        <pt x="534" y="190" on="1"/>
        <pt x="534" y="-266" on="1"/>
        <pt x="102" y="-348" on="1"/>
        <pt x="102" y="1011" on="1"/>
        <pt x="534" y="1011" on="1"/>
        <pt x="534" y="834" on="1"/>
        <pt x="587" y="945" on="0"/>
        <pt x="754" y="1041" on="0"/>
        <pt x="868" y="1041" on="1"/>
        <pt x="963" y="1041" on="0"/>
        <pt x="1134" y="982" on="0"/>
        <pt x="1210" y="908" on="1"/>
        <pt x="1370" y="751" on="0"/>
        <pt x="1370" y="512" on="1"/>
        <pt x="1370" y="276" on="0"/>
        <pt x="1211" y="117" on="1"/>
        <pt x="1137" y="43" on="0"/>
        <pt x="966" y="-16" on="0"/>
      </contour>
      <contour>
        <pt x="534" y="512" on="1"/>
        <pt x="534" y="468" on="0"/>
        <pt x="567" y="394" on="0"/>
        <pt x="623" y="339" on="0"/>
        <pt x="696" y="308" on="0"/>
        <pt x="736" y="308" on="1"/>
        <pt x="780" y="308" on="0"/>
        <pt x="856" y="341" on="0"/>
        <pt x="911" y="397" on="0"/>
        <pt x="942" y="471" on="0"/>
        <pt x="942" y="512" on="1"/>
        <pt x="942" y="560" on="0"/>
        <pt x="906" y="636" on="0"/>
        <pt x="847" y="688" on="0"/>
        <pt x="773" y="716" on="0"/>
        <pt x="736" y="716" on="1"/>
        <pt x="688" y="716" on="0"/>
        <pt x="615" y="679" on="0"/>
        <pt x="565" y="622" on="0"/>
        <pt x="537" y="552" on="0"/>
        <pt x="534" y="520" on="1"/>
      </contour>
    </TTGlyph>
    <TTGlyph name="paragraph" xMin="47" yMin="0" xMax="987" yMax="1408">
      <contour>
        <pt x="529" y="728" on="1"/>
        <pt x="443" y="728" on="1"/>
        <pt x="357" y="728" on="0"/>
        <pt x="212" y="778" on="0"/>
        <pt x="107" y="868" on="0"/>
        <pt x="47" y="993" on="0"/>
        <pt x="47" y="1068" on="1"/>
        <pt x="47" y="1142" on="0"/>
        <pt x="115" y="1267" on="0"/>
        <pt x="241" y="1357" on="0"/>
        <pt x="419" y="1408" on="0"/>
        <pt x="529" y="1408" on="1"/>
        <pt x="987" y="1408" on="1"/>
        <pt x="987" y="0" on="1"/>
        <pt x="823" y="0" on="1"/>
        <pt x="823" y="1254" on="1"/>
        <pt x="695" y="1254" on="1"/>
        <pt x="695" y="0" on="1"/>
        <pt x="529" y="0" on="1"/>
      </contour>
    </TTGlyph>
    <TTGlyph name="parenleft" xMin="41" yMin="-264" xMax="809" yMax="1582">
      <contour>
        <pt x="809" y="-264" on="1"/>
        <pt x="623" y="-247" on="0"/>
        <pt x="336" y="-96" on="0"/>
        <pt x="141" y="149" on="0"/>
        <pt x="41" y="476" on="0"/>
        <pt x="41" y="668" on="1"/>
        <pt x="41" y="870" on="0"/>
        <pt x="148" y="1193" on="0"/>
        <pt x="348" y="1426" on="0"/>
        <pt x="632" y="1564" on="0"/>
        <pt x="809" y="1582" on="1"/>
        <pt x="809" y="1322" on="1"/>
        <pt x="738" y="1310" on="0"/>
        <pt x="622" y="1215" on="0"/>
        <pt x="541" y="1051" on="0"/>
        <pt x="497" y="818" on="0"/>
        <pt x="497" y="668" on="1"/>
        <pt x="497" y="533" on="0"/>
        <pt x="531" y="300" on="0"/>
        <pt x="606" y="123" on="0"/>
        <pt x="725" y="11" on="0"/>
        <pt x="809" y="-4" on="1"/>
      </contour>
    </TTGlyph>
    <TTGlyph name="parenright" xMin="46" yMin="-264" xMax="814" yMax="1582">
      <contour>
        <pt x="46" y="-4" on="1"/>
        <pt x="118" y="8" on="0"/>
        <pt x="233" y="105" on="0"/>
        <pt x="314" y="274" on="0"/>
        <pt x="358" y="513" on="0"/>
        <pt x="358" y="668" on="1"/>
        <pt x="358" y="810" on="0"/>
        <pt x="317" y="1041" on="0"/>
        <pt x="238" y="1209" on="0"/>
        <pt x="122" y="1310" on="0"/>
        <pt x="46" y="1322" on="1"/>
        <pt x="46" y="1582" on="1"/>
        <pt x="236" y="1562" on="0"/>
        <pt x="524" y="1411" on="0"/>
        <pt x="717" y="1171" on="0"/>
        <pt x="814" y="854" on="0"/>
        <pt x="814" y="668" on="1"/>
        <pt x="814" y="470" on="0"/>
        <pt x="710" y="142" on="0"/>
        <pt x="513" y="-100" on="0"/>
        <pt x="227" y="-247" on="0"/>
        <pt x="46" y="-264" on="1"/>
      </contour>
    </TTGlyph>
    <TTGlyph name="percent" xMin="50" yMin="-32" xMax="1768" yMax="1414">
      <contour>
        <pt x="998" y="1376" on="1"/>
        <pt x="1140" y="1376" on="1"/>
        <pt x="800" y="0" on="1"/>
        <pt x="662" y="0" on="1"/>
      </contour>
      <contour>
        <pt x="1396" y="-32" on="1"/>
        <pt x="1309" y="-32" on="0"/>
        <pt x="1171" y="29" on="0"/>
        <pt x="1075" y="137" on="0"/>
        <pt x="1024" y="283" on="0"/>
        <pt x="1024" y="368" on="1"/>
        <pt x="1024" y="455" on="0"/>
        <pt x="1079" y="603" on="0"/>
        <pt x="1178" y="710" on="0"/>
        <pt x="1315" y="770" on="0"/>
        <pt x="1396" y="770" on="1"/>
        <pt x="1483" y="770" on="0"/>
        <pt x="1621" y="704" on="0"/>
        <pt x="1717" y="593" on="0"/>
        <pt x="1768" y="447" on="0"/>
        <pt x="1768" y="368" on="1"/>
        <pt x="1768" y="281" on="0"/>
        <pt x="1714" y="134" on="0"/>
        <pt x="1615" y="28" on="0"/>
        <pt x="1478" y="-32" on="0"/>
      </contour>
      <contour>
        <pt x="1396" y="172" on="1"/>
        <pt x="1428" y="172" on="0"/>
        <pt x="1473" y="209" on="0"/>
        <pt x="1501" y="266" on="0"/>
        <pt x="1514" y="336" on="0"/>
        <pt x="1514" y="368" on="1"/>
        <pt x="1514" y="406" on="0"/>
        <pt x="1498" y="476" on="0"/>
        <pt x="1468" y="530" on="0"/>
        <pt x="1424" y="562" on="0"/>
        <pt x="1396" y="562" on="1"/>
        <pt x="1365" y="562" on="0"/>
        <pt x="1321" y="529" on="0"/>
        <pt x="1292" y="475" on="0"/>
        <pt x="1278" y="405" on="0"/>
        <pt x="1278" y="368" on="1"/>
        <pt x="1278" y="329" on="0"/>
        <pt x="1293" y="258" on="0"/>
        <pt x="1323" y="204" on="0"/>
        <pt x="1367" y="172" on="0"/>
      </contour>
      <contour>
        <pt x="420" y="614" on="1"/>
        <pt x="330" y="614" on="0"/>
        <pt x="192" y="679" on="0"/>
        <pt x="98" y="789" on="0"/>
        <pt x="50" y="934" on="0"/>
        <pt x="50" y="1014" on="1"/>
        <pt x="50" y="1102" on="0"/>
        <pt x="105" y="1249" on="0"/>
        <pt x="204" y="1355" on="0"/>
        <pt x="342" y="1414" on="0"/>
        <pt x="425" y="1414" on="1"/>
        <pt x="517" y="1414" on="0"/>
        <pt x="655" y="1344" on="0"/>
        <pt x="748" y="1230" on="0"/>
        <pt x="794" y="1087" on="0"/>
        <pt x="794" y="1014" on="1"/>
        <pt x="794" y="926" on="0"/>
        <pt x="739" y="779" on="0"/>
        <pt x="640" y="673" on="0"/>
        <pt x="502" y="614" on="0"/>
      </contour>
      <contour>
        <pt x="420" y="816" on="1"/>
        <pt x="453" y="816" on="0"/>
        <pt x="498" y="853" on="0"/>
        <pt x="527" y="911" on="0"/>
        <pt x="540" y="981" on="0"/>
        <pt x="540" y="1014" on="1"/>
        <pt x="540" y="1053" on="0"/>
        <pt x="524" y="1123" on="0"/>
        <pt x="493" y="1176" on="0"/>
        <pt x="448" y="1208" on="0"/>
        <pt x="420" y="1208" on="1"/>
        <pt x="388" y="1208" on="0"/>
        <pt x="343" y="1173" on="0"/>
        <pt x="316" y="1117" on="0"/>
        <pt x="304" y="1048" on="0"/>
        <pt x="304" y="1014" on="1"/>
        <pt x="304" y="975" on="0"/>
        <pt x="319" y="904" on="0"/>
        <pt x="349" y="849" on="0"/>
        <pt x="392" y="816" on="0"/>
      </contour>
    </TTGlyph>
    <TTGlyph name="period" xMin="58" yMin="-32" xMax="518" yMax="382">
      <contour>
        <pt x="58" y="176" on="1"/>
        <pt x="58" y="221" on="0"/>
        <pt x="97" y="297" on="0"/>
        <pt x="161" y="351" on="0"/>
        <pt x="244" y="382" on="0"/>
        <pt x="288" y="382" on="1"/>
        <pt x="334" y="382" on="0"/>
        <pt x="418" y="349" on="0"/>
        <pt x="481" y="292" on="0"/>
        <pt x="518" y="218" on="0"/>
        <pt x="518" y="176" on="1"/>
        <pt x="518" y="129" on="0"/>
        <pt x="479" y="53" on="0"/>
        <pt x="415" y="-2" on="0"/>
        <pt x="332" y="-32" on="0"/>
        <pt x="288" y="-32" on="1"/>
        <pt x="240" y="-32" on="0"/>
        <pt x="156" y="0" on="0"/>
        <pt x="94" y="56" on="0"/>
        <pt x="58" y="132" on="0"/>
      </contour>
    </TTGlyph>
    <TTGlyph name="periodcentered" xMin="86" yMin="614" xMax="546" yMax="1028">
      <contour>
        <pt x="86" y="820" on="1"/>
        <pt x="86" y="864" on="0"/>
        <pt x="124" y="940" on="0"/>
        <pt x="188" y="996" on="0"/>
        <pt x="271" y="1028" on="0"/>
        <pt x="316" y="1028" on="1"/>
        <pt x="364" y="1028" on="0"/>
        <pt x="447" y="994" on="0"/>
        <pt x="510" y="936" on="0"/>
        <pt x="546" y="861" on="0"/>
        <pt x="546" y="820" on="1"/>
        <pt x="546" y="774" on="0"/>
        <pt x="507" y="698" on="0"/>
        <pt x="443" y="644" on="0"/>
        <pt x="360" y="614" on="0"/>
        <pt x="316" y="614" on="1"/>
        <pt x="268" y="614" on="0"/>
        <pt x="185" y="646" on="0"/>
        <pt x="122" y="701" on="0"/>
        <pt x="86" y="776" on="0"/>
      </contour>
    </TTGlyph>
    <TTGlyph name="perthousand" xMin="50" yMin="-32" xMax="2610" yMax="1414">
      <contour>
        <pt x="998" y="1376" on="1"/>
        <pt x="1140" y="1376" on="1"/>
        <pt x="800" y="0" on="1"/>
        <pt x="662" y="0" on="1"/>
      </contour>
      <contour>
        <pt x="1396" y="-32" on="1"/>
        <pt x="1307" y="-32" on="0"/>
        <pt x="1169" y="33" on="0"/>
        <pt x="1075" y="144" on="0"/>
        <pt x="1026" y="288" on="0"/>
        <pt x="1026" y="368" on="1"/>
        <pt x="1026" y="455" on="0"/>
        <pt x="1081" y="602" on="0"/>
        <pt x="1179" y="710" on="0"/>
        <pt x="1315" y="770" on="0"/>
        <pt x="1396" y="770" on="1"/>
        <pt x="1484" y="770" on="0"/>
        <pt x="1622" y="704" on="0"/>
        <pt x="1718" y="593" on="0"/>
        <pt x="1768" y="447" on="0"/>
        <pt x="1768" y="368" on="1"/>
        <pt x="1768" y="280" on="0"/>
        <pt x="1714" y="133" on="0"/>
        <pt x="1616" y="27" on="0"/>
        <pt x="1479" y="-32" on="0"/>
      </contour>
      <contour>
        <pt x="1396" y="172" on="1"/>
        <pt x="1427" y="172" on="0"/>
        <pt x="1472" y="206" on="0"/>
        <pt x="1500" y="261" on="0"/>
        <pt x="1514" y="332" on="0"/>
        <pt x="1514" y="368" on="1"/>
        <pt x="1514" y="406" on="0"/>
        <pt x="1499" y="476" on="0"/>
        <pt x="1469" y="530" on="0"/>
        <pt x="1425" y="562" on="0"/>
        <pt x="1396" y="562" on="1"/>
        <pt x="1364" y="562" on="0"/>
        <pt x="1319" y="527" on="0"/>
        <pt x="1292" y="471" on="0"/>
        <pt x="1280" y="402" on="0"/>
        <pt x="1280" y="368" on="1"/>
        <pt x="1280" y="330" on="0"/>
        <pt x="1295" y="259" on="0"/>
        <pt x="1325" y="205" on="0"/>
        <pt x="1368" y="172" on="0"/>
      </contour>
      <contour>
        <pt x="420" y="614" on="1"/>
        <pt x="330" y="614" on="0"/>
        <pt x="192" y="679" on="0"/>
        <pt x="98" y="790" on="0"/>
        <pt x="50" y="934" on="0"/>
        <pt x="50" y="1014" on="1"/>
        <pt x="50" y="1107" on="0"/>
        <pt x="109" y="1255" on="0"/>
        <pt x="211" y="1359" on="0"/>
        <pt x="347" y="1414" on="0"/>
        <pt x="425" y="1414" on="1"/>
        <pt x="517" y="1414" on="0"/>
        <pt x="655" y="1345" on="0"/>
        <pt x="748" y="1232" on="0"/>
        <pt x="794" y="1089" on="0"/>
        <pt x="794" y="1014" on="1"/>
        <pt x="794" y="925" on="0"/>
        <pt x="740" y="778" on="0"/>
        <pt x="641" y="673" on="0"/>
        <pt x="504" y="614" on="0"/>
      </contour>
      <contour>
        <pt x="420" y="816" on="1"/>
        <pt x="453" y="816" on="0"/>
        <pt x="499" y="853" on="0"/>
        <pt x="528" y="910" on="0"/>
        <pt x="540" y="980" on="0"/>
        <pt x="540" y="1014" on="1"/>
        <pt x="540" y="1051" on="0"/>
        <pt x="525" y="1121" on="0"/>
        <pt x="495" y="1175" on="0"/>
        <pt x="450" y="1208" on="0"/>
        <pt x="420" y="1208" on="1"/>
        <pt x="390" y="1208" on="0"/>
        <pt x="346" y="1175" on="0"/>
        <pt x="317" y="1121" on="0"/>
        <pt x="304" y="1051" on="0"/>
        <pt x="304" y="1014" on="1"/>
        <pt x="304" y="975" on="0"/>
        <pt x="319" y="903" on="0"/>
        <pt x="349" y="849" on="0"/>
        <pt x="392" y="816" on="0"/>
      </contour>
      <contour>
        <pt x="2238" y="-32" on="1"/>
        <pt x="2149" y="-32" on="0"/>
        <pt x="2011" y="33" on="0"/>
        <pt x="1916" y="144" on="0"/>
        <pt x="1866" y="288" on="0"/>
        <pt x="1866" y="368" on="1"/>
        <pt x="1866" y="455" on="0"/>
        <pt x="1921" y="603" on="0"/>
        <pt x="2020" y="710" on="0"/>
        <pt x="2157" y="770" on="0"/>
        <pt x="2238" y="770" on="1"/>
        <pt x="2325" y="770" on="0"/>
        <pt x="2463" y="704" on="0"/>
        <pt x="2559" y="593" on="0"/>
        <pt x="2610" y="447" on="0"/>
        <pt x="2610" y="368" on="1"/>
        <pt x="2610" y="280" on="0"/>
        <pt x="2556" y="133" on="0"/>
        <pt x="2458" y="27" on="0"/>
        <pt x="2321" y="-32" on="0"/>
      </contour>
      <contour>
        <pt x="2238" y="172" on="1"/>
        <pt x="2269" y="172" on="0"/>
        <pt x="2314" y="206" on="0"/>
        <pt x="2342" y="261" on="0"/>
        <pt x="2356" y="332" on="0"/>
        <pt x="2356" y="368" on="1"/>
        <pt x="2356" y="406" on="0"/>
        <pt x="2341" y="476" on="0"/>
        <pt x="2311" y="530" on="0"/>
        <pt x="2267" y="562" on="0"/>
        <pt x="2238" y="562" on="1"/>
        <pt x="2207" y="562" on="0"/>
        <pt x="2163" y="529" on="0"/>
        <pt x="2134" y="475" on="0"/>
        <pt x="2120" y="405" on="0"/>
        <pt x="2120" y="368" on="1"/>
        <pt x="2120" y="329" on="0"/>
        <pt x="2135" y="258" on="0"/>
        <pt x="2165" y="204" on="0"/>
        <pt x="2209" y="172" on="0"/>
      </contour>
    </TTGlyph>
    <TTGlyph name="pi" xMin="42" yMin="-32" xMax="1318" yMax="1026">
      <contour>
        <pt x="240" y="1026" on="1"/>
        <pt x="1318" y="1026" on="1"/>
        <pt x="1318" y="3" on="1"/>
        <pt x="886" y="3" on="1"/>
        <pt x="886" y="852" on="1"/>
        <pt x="674" y="852" on="1"/>
        <pt x="674" y="378" on="1"/>
        <pt x="674" y="282" on="0"/>
        <pt x="624" y="130" on="0"/>
        <pt x="530" y="24" on="0"/>
        <pt x="395" y="-32" on="0"/>
        <pt x="310" y="-32" on="1"/>
        <pt x="163" y="-32" on="0"/>
        <pt x="42" y="38" on="1"/>
        <pt x="64" y="324" on="1"/>
        <pt x="107" y="300" on="0"/>
        <pt x="148" y="300" on="1"/>
        <pt x="188" y="300" on="0"/>
        <pt x="240" y="349" on="0"/>
        <pt x="240" y="398" on="1"/>
        <pt x="240" y="408" on="1"/>
      </contour>
    </TTGlyph>
    <TTGlyph name="plus" xMin="48" yMin="0" xMax="1044" yMax="1026">
      <contour>
        <pt x="488" y="458" on="1"/>
        <pt x="48" y="458" on="1"/>
        <pt x="48" y="572" on="1"/>
        <pt x="488" y="572" on="1"/>
        <pt x="488" y="1026" on="1"/>
        <pt x="608" y="1026" on="1"/>
        <pt x="608" y="572" on="1"/>
        <pt x="1044" y="572" on="1"/>
        <pt x="1044" y="458" on="1"/>
        <pt x="608" y="458" on="1"/>
        <pt x="608" y="0" on="1"/>
        <pt x="488" y="0" on="1"/>
      </contour>
    </TTGlyph>
    <TTGlyph name="plusminus" xMin="72" yMin="0" xMax="1068" yMax="1212">
      <contour>
        <pt x="512" y="644" on="1"/>
        <pt x="72" y="644" on="1"/>
        <pt x="72" y="760" on="1"/>
        <pt x="512" y="760" on="1"/>
        <pt x="512" y="1212" on="1"/>
        <pt x="632" y="1212" on="1"/>
        <pt x="632" y="760" on="1"/>
        <pt x="1068" y="760" on="1"/>
        <pt x="1068" y="644" on="1"/>
        <pt x="632" y="644" on="1"/>
        <pt x="632" y="186" on="1"/>
        <pt x="512" y="186" on="1"/>
      </contour>
      <contour>
        <pt x="72" y="114" on="1"/>
        <pt x="1068" y="114" on="1"/>
        <pt x="1068" y="0" on="1"/>
        <pt x="72" y="0" on="1"/>
      </contour>
    </TTGlyph>
    <TTGlyph name="q" xMin="53" yMin="-348" xMax="1323" yMax="1041">
      <contour>
        <pt x="555" y="1041" on="1"/>
        <pt x="669" y="1041" on="0"/>
        <pt x="837" y="945" on="0"/>
        <pt x="891" y="834" on="1"/>
        <pt x="891" y="1011" on="1"/>
        <pt x="1323" y="1011" on="1"/>
        <pt x="1323" y="-266" on="1"/>
        <pt x="891" y="-348" on="1"/>
        <pt x="891" y="190" on="1"/>
        <pt x="836" y="79" on="0"/>
        <pt x="667" y="-16" on="0"/>
        <pt x="553" y="-16" on="1"/>
        <pt x="439" y="-16" on="0"/>
        <pt x="254" y="71" on="0"/>
        <pt x="123" y="217" on="0"/>
        <pt x="53" y="408" on="0"/>
        <pt x="53" y="512" on="1"/>
        <pt x="53" y="626" on="0"/>
        <pt x="133" y="820" on="0"/>
        <pt x="270" y="961" on="0"/>
        <pt x="452" y="1041" on="0"/>
      </contour>
      <contour>
        <pt x="891" y="520" on="1"/>
        <pt x="889" y="560" on="0"/>
        <pt x="854" y="632" on="0"/>
        <pt x="798" y="685" on="0"/>
        <pt x="727" y="716" on="0"/>
        <pt x="689" y="716" on="1"/>
        <pt x="645" y="716" on="0"/>
        <pt x="570" y="683" on="0"/>
        <pt x="515" y="627" on="0"/>
        <pt x="483" y="553" on="0"/>
        <pt x="483" y="512" on="1"/>
        <pt x="483" y="468" on="0"/>
        <pt x="517" y="394" on="0"/>
        <pt x="574" y="339" on="0"/>
        <pt x="648" y="308" on="0"/>
        <pt x="689" y="308" on="1"/>
        <pt x="730" y="308" on="0"/>
        <pt x="802" y="340" on="0"/>
        <pt x="856" y="394" on="0"/>
        <pt x="889" y="465" on="0"/>
        <pt x="891" y="504" on="1"/>
      </contour>
    </TTGlyph>
    <TTGlyph name="question" xMin="78" yMin="-32" xMax="986" yMax="1440">
      <contour>
        <pt x="534" y="1026" on="1"/>
        <pt x="534" y="1092" on="0"/>
        <pt x="372" y="1092" on="1"/>
        <pt x="214" y="1092" on="0"/>
        <pt x="106" y="1038" on="1"/>
        <pt x="78" y="1350" on="1"/>
        <pt x="297" y="1440" on="0"/>
        <pt x="490" y="1440" on="1"/>
        <pt x="595" y="1440" on="0"/>
        <pt x="776" y="1387" on="0"/>
        <pt x="910" y="1288" on="0"/>
        <pt x="986" y="1146" on="0"/>
        <pt x="986" y="1058" on="1"/>
        <pt x="986" y="995" on="0"/>
        <pt x="950" y="900" on="0"/>
        <pt x="889" y="826" on="0"/>
        <pt x="805" y="769" on="0"/>
        <pt x="757" y="745" on="1"/>
        <pt x="732" y="733" on="0"/>
        <pt x="671" y="705" on="0"/>
        <pt x="611" y="676" on="0"/>
        <pt x="561" y="647" on="0"/>
        <pt x="548" y="633" on="1"/>
        <pt x="531" y="615" on="0"/>
        <pt x="526" y="572" on="0"/>
        <pt x="526" y="546" on="1"/>
        <pt x="526" y="520" on="1"/>
        <pt x="240" y="520" on="1"/>
        <pt x="216" y="597" on="1"/>
        <pt x="212" y="613" on="0"/>
        <pt x="204" y="659" on="0"/>
        <pt x="204" y="680" on="1"/>
        <pt x="204" y="718" on="0"/>
        <pt x="220" y="777" on="0"/>
        <pt x="249" y="825" on="0"/>
        <pt x="289" y="863" on="0"/>
        <pt x="313" y="879" on="1"/>
        <pt x="343" y="899" on="0"/>
        <pt x="419" y="936" on="0"/>
        <pt x="487" y="972" on="0"/>
        <pt x="534" y="1008" on="0"/>
      </contour>
      <contour>
        <pt x="148" y="176" on="1"/>
        <pt x="148" y="221" on="0"/>
        <pt x="187" y="296" on="0"/>
        <pt x="252" y="351" on="0"/>
        <pt x="336" y="382" on="0"/>
        <pt x="380" y="382" on="1"/>
        <pt x="426" y="382" on="0"/>
        <pt x="510" y="349" on="0"/>
        <pt x="573" y="292" on="0"/>
        <pt x="610" y="218" on="0"/>
        <pt x="610" y="176" on="1"/>
        <pt x="610" y="129" on="0"/>
        <pt x="571" y="53" on="0"/>
        <pt x="507" y="-2" on="0"/>
        <pt x="424" y="-32" on="0"/>
        <pt x="380" y="-32" on="1"/>
        <pt x="332" y="-32" on="0"/>
        <pt x="247" y="0" on="0"/>
        <pt x="184" y="56" on="0"/>
        <pt x="148" y="132" on="0"/>
      </contour>
    </TTGlyph>
</ttFont>
